<?xml version="1.0" standalone="no"?>
<!DOCTYPE svg PUBLIC "-//W3C//DTD SVG 1.1//EN" "http://www.w3.org/Graphics/SVG/1.1/DTD/svg11.dtd" >
<svg xmlns="http://www.w3.org/2000/svg">
<metadata>
Created by FontPrep 20130207 at Fri Aug 26 15:23:59 2016
 By Phillip De Vita
(c) 1990, 1992, 1996, 2000, 2001 Adobe Systems Incorporated. All rights reserved.
</metadata>
<defs>
<font id="66be995022d6f507f528f15386d1e64f" horiz-adv-x='1024' >
  <font-face 
    font-family="ACaslonPro-Regular"
    font-weight="400"
    font-stretch="normal"
    units-per-em="2048"
    panose-1="2 5 5 2 5 5 10 2 4 3"
    ascent="1505"
    descent="-543"
    x-height="860"
    cap-height="1456"
    bbox="-389.032 -1434 3074 2052"
    underline-thickness="102"
    underline-position="-102"
    unicode-range="U+0020-FB04"
  />
<missing-glyph 
d="M102 1239v-1044l349 522zM164 102h696l-348 523zM573 717l349 -522v1044zM512 809l348 522h-696zM0 0v1434h1024v-1434h-1024z" />
    <glyph glyph-name="f_f" unicode="ff" horiz-adv-x="1204" 
d="M367 915v-61h421v39q0 229 84 344l-2 4q-45 -6 -89 14q-45 21 -71 55t-104 33q-109 0 -168 -71q-71 -91 -71 -357zM51 53q0 14 21 15h98q27 0 37 16t12 55v617h-137q-18 0 -14 22l8 62q2 14 24 14h119v39q0 229 137 385q147 162 332 162q78 0 145 -30t101 -83
q139 154 328 154q78 0 132 -30t54 -75q0 -46 -30 -72t-60 -26t-51 12q-23 12 -57 53t-89 41q-163 0 -206 -199q-17 -83 -18 -131t-1 -159v-41h248q20 0 14 -20l-10 -68q-2 -10 -27 -10h-225v-183q0 -429 3 -455t12 -38t40 -12h117q23 0 22 -17v-33q0 -25 -14 -24l-31 2
l-225 4l-192 -6q-16 0 -17 14v45q0 14 21 15h67q27 0 37 16t12 55v617h-421v-183q0 -429 3 -455t12 -38t40 -12h55q23 0 23 -17v-33q0 -25 -15 -24l-184 6l-233 -6q-16 0 -17 14v45z" />
    <glyph glyph-name="f_f_i" unicode="ffi" horiz-adv-x="1689" 
d="M367 915v-61h421v39q0 223 91 338l-2 4q-109 -6 -164 72q-29 37 -107 36q-109 0 -168 -71q-71 -91 -71 -357zM51 53q0 14 21 15h98q27 0 37 16t12 55v617h-137q-18 0 -14 22l8 62q2 14 24 14h119v39q0 229 137 385q148 162 330 162t264 -121q68 82 170 122t190 40
t147 -42q59 -41 61 -93t-28 -78t-69 -27q-63 1 -117 71t-112 70q-92 0 -156 -71q-44 -49 -68 -127t-28 -137t-4 -152v-41h297q90 0 176 20t90 19q16 0 11 -30t-5 -343v-223q0 -154 2 -176q0 -53 39 -53h88q18 0 19 -19v-35q0 -20 -17 -20l-196 6l-201 -6q-16 0 -16 16v41
q0 16 20 17h82q31 0 33 47v475q0 102 -32 134t-140 32h-250v-183q0 -430 4 -452q0 -53 37 -53h92q20 0 21 -17v-33q0 -25 -13 -24l-221 6l-188 -6q-16 0 -17 14v45q0 14 21 15h67q27 0 37 16t12 55v617h-421v-183q0 -429 3 -455t12 -38t40 -12h55q23 0 23 -17v-33
q0 -25 -15 -24l-184 6l-233 -6q-16 0 -17 14v45z" />
    <glyph glyph-name="f_f_l" unicode="ffl" horiz-adv-x="1685" 
d="M936 854h422q0 188 -5 306q-9 222 -157 222q-135 0 -204 -103q-21 -33 -29 -66q-9 -32 -13 -47t-7 -45t-4 -44q-3 -42 -3 -92v-131zM367 915v-61h421v39q0 227 84 346l-2 4q-45 -6 -90 13q-44 20 -70 54t-104 33q-109 0 -168 -71q-71 -91 -71 -357zM51 53q0 14 21 15h98
q27 0 37 16t12 55v617h-133q-18 0 -16 26l6 58q2 14 24 14h119v39q0 229 137 385q147 162 332 162q78 0 146 -30t102 -85q127 156 330 156q143 0 225 -45q18 -10 16 -57t-2 -586v-183q0 -416 2 -465q1 -49 13 -63t34 -14h97q25 0 24 -19v-35q0 -20 -14 -20l-229 6
q-130 0 -169 -3t-42 -3q-14 0 -15 20v35q0 18 27 19h80q39 0 43 45q2 70 2 540v103h-422v-183q0 -429 3 -455t12 -38t40 -12h86q23 0 23 -17v-33q0 -25 -15 -24l-215 6q-49 0 -125 -4l-77 -2q-16 0 -17 14v45q0 14 21 15h67q27 0 37 16t12 55v617h-421v-183q0 -429 3 -455
t12 -38t40 -12h55q23 0 23 -17v-33q0 -25 -15 -24l-184 6l-233 -6q-16 0 -17 14v45z" />
    <glyph glyph-name="T_h" unicode="Th" horiz-adv-x="2217" 
d="M1167 51q0 16 31 17h43q61 0 68 32q6 40 6 398v618q0 172 -107 225q-70 35 -354 35h-57v-583q0 -602 2 -637q6 -82 69 -82h129q20 0 21 -21v-43q0 -16 -21 -16l-286 6q-190 0 -247 -3t-65 -3q-18 0 -18 20v39q0 20 14 21h140q29 0 47 14t22 54t4 708v526h-51
q-244 0 -329 -26t-177 -236q-6 -12 -20 -10l-37 10q-12 4 -8 16q88 318 94 356t21 38t26 -8l27 -19q45 -33 116 -35q326 -12 387 -12h211q111 0 412 12q74 2 125 45q20 16 43 17q30 0 22 -43t-8 -604v-132h11q51 61 130 97t150 37q119 0 203 -82q43 -41 63 -97
q21 -56 23 -92q2 -35 2 -112v-117l4 -281q0 -31 76 -30h35q23 0 22 -19v-31q0 -25 -16 -24l-197 6l-192 -6q-18 0 -19 22v35q0 16 15 17h47q76 0 77 38v369q0 97 -13 155t-63 106t-126 48q-115 0 -191 -86q-41 -49 -41 -100v-446q0 -52 8 -68t37 -16h62q23 0 22 -17v-35
q0 -23 -16 -22l-195 6l-198 -6q-14 0 -15 20v37z" />
    <glyph glyph-name="Tcommaaccent_h" unicode="&#x162;h" horiz-adv-x="2217" 
d="M610 -186q0 22 24 42t66 21q43 0 85 -40q42 -41 42 -123t-63 -160t-115 -107q-14 -14 -30 -14t-17 14q0 10 14 23q109 102 109 190q0 31 -27 47l-10 2q-62 31 -74 69q-4 14 -4 36zM1167 51q0 16 31 17h43q61 0 68 32q6 40 6 398v618q0 172 -107 225q-70 35 -354 35h-57
v-583q0 -602 2 -637q6 -82 69 -82h129q20 0 21 -21v-43q0 -16 -21 -16l-286 6q-190 0 -247 -3t-65 -3q-18 0 -18 20v39q0 20 14 21h140q29 0 47 14t22 54t4 708v526h-51q-244 0 -329 -26t-177 -236q-6 -12 -20 -10l-37 10q-12 4 -8 16q88 318 94 356t21 38t26 -8l27 -19
q45 -33 116 -35q326 -12 387 -12h211q111 0 412 12q74 2 125 45q20 16 43 17q30 0 22 -43t-8 -604v-132h11q51 61 130 97t150 37q119 0 203 -82q43 -41 63 -97q21 -56 23 -92q2 -35 2 -112v-117l4 -281q0 -31 76 -30h35q23 0 22 -19v-31q0 -25 -16 -24l-197 6l-192 -6
q-18 0 -19 22v35q0 16 15 17h47q76 0 77 38v369q0 97 -13 155t-63 106t-126 48q-115 0 -191 -86q-41 -49 -41 -100v-446q0 -52 8 -68t37 -16h62q23 0 22 -17v-35q0 -23 -16 -22l-195 6l-198 -6q-14 0 -15 20v37z" />
    <glyph glyph-name="Tcaron_h" unicode="&#x164;h" horiz-adv-x="2217" 
d="M720 1577q-5 0 -28 18l-258 230q-8 8 -2 16l14 19q7 8 19 2l268 -115l240 113q16 10 20 2l17 -21q6 -6 -4 -18l-258 -228q-23 -18 -28 -18zM1167 51q0 16 31 17h43q61 0 68 32q6 40 6 398v618q0 172 -107 225q-70 35 -354 35h-57v-583q0 -602 2 -637q6 -82 69 -82h129
q20 0 21 -21v-43q0 -16 -21 -16l-286 6q-190 0 -247 -3t-65 -3q-18 0 -18 20v39q0 20 14 21h140q29 0 47 14t22 54t4 708v526h-51q-244 0 -329 -26t-177 -236q-6 -12 -20 -10l-37 10q-12 4 -8 16q88 318 94 356t21 38t26 -8l27 -19q45 -33 116 -35q326 -12 387 -12h211
q111 0 412 12q74 2 125 45q20 16 43 17q30 0 22 -43t-8 -604v-132h11q51 61 130 97t150 37q119 0 203 -82q43 -41 63 -97q21 -56 23 -92q2 -35 2 -112v-117l4 -281q0 -31 76 -30h35q23 0 22 -19v-31q0 -25 -16 -24l-197 6l-192 -6q-18 0 -19 22v35q0 16 15 17h47q76 0 77 38
v369q0 97 -13 155t-63 106t-126 48q-115 0 -191 -86q-41 -49 -41 -100v-446q0 -52 8 -68t37 -16h62q23 0 22 -17v-35q0 -23 -16 -22l-195 6l-198 -6q-14 0 -15 20v37z" />
    <glyph glyph-name="f_i" unicode="fi" horiz-adv-x="1120" 
d="M51 53q0 14 21 15h106q39 0 41 71v617h-137q-18 0 -14 20l8 64q2 14 24 14h119v35q0 254 154 422q76 86 179 128t189 42q87 0 147 -44q60 -43 61 -95t-29 -78t-68 -27q-62 1 -116 71t-113 70q-92 0 -156 -71q-45 -49 -69 -126t-28 -137t-3 -149v-41h297q90 0 176 20
t90 19q16 0 11 -30t-5 -343v-223q0 -154 2 -176q0 -53 39 -53h88q18 0 18 -19v-37q0 -18 -16 -18l-197 6l-200 -6q-16 0 -17 16v41q0 16 21 17h82q31 0 32 47v487q0 92 -32 123q-33 31 -140 31h-249v-183q0 -430 4 -452q0 -53 37 -53h92q20 0 20 -17v-37q0 -20 -12 -20
l-207 6l-233 -6q-16 0 -17 14v45z" />
    <glyph glyph-name="f_j" unicode="fj" horiz-adv-x="1120" 
d="M51 53q0 14 21 15h106q41 0 41 71v617h-137q-18 0 -14 20l8 64q2 14 24 14h119v35q0 254 154 422q76 86 179 128t188 42q86 0 146 -43q60 -44 61 -96t-29 -78t-66 -27q-62 1 -116 71t-113 70q-92 0 -156 -71q-45 -49 -69 -126t-28 -137t-3 -149v-41h297q90 0 176 20
t90 19q16 0 8 -47t-5 -188q3 -140 3 -162v-256q0 -309 -31 -465t-127 -244t-221 -88q-49 0 -84 27q-35 28 -35 62t22 64t52 29q59 0 117 -63q29 -31 47 -31q88 0 100 165t12 454v452q0 92 -32 123q-33 31 -140 31h-249v-183q0 -430 4 -452q0 -53 37 -53h92q20 0 20 -17v-37
q0 -20 -12 -20l-207 6l-233 -6q-16 0 -17 14v45z" />
    <glyph glyph-name="f_l" unicode="fl" horiz-adv-x="1116" 
d="M367 972v-118h421q0 184 -6 340q-6 184 -155 184q-111 0 -181 -71q-29 -29 -41 -64t-18 -52t-10 -49t-6 -46q-4 -28 -4 -124zM68 -6q-16 0 -17 14v45q0 14 21 15h102q43 0 45 63v625h-137q-18 0 -14 20l8 64q2 14 24 14h119v35q0 264 130 428t347 164q137 0 226 -49
q18 -10 16 -57t-2 -582v-183q0 -416 2 -465t13 -63t34 -14h96q25 0 25 -19v-35q0 -20 -14 -20l-230 6q-129 0 -168 -3t-43 -3q-14 0 -14 20v35q0 18 27 19h79q39 0 43 45q2 70 2 540v103h-421v-183q0 -430 2 -460q4 -45 41 -45h100q20 0 20 -17v-33q0 -25 -14 -24l-29 2
l-186 4q-143 0 -187 -3t-46 -3z" />
    <glyph glyph-name="f_f_j" unicode="ffj" horiz-adv-x="1689" 
d="M367 854h421v39q1 223 91 338l-2 4q-109 -6 -164 72q-29 37 -107 36q-109 0 -168 -71q-72 -90 -71 -357v-61zM51 53q0 14 21 15h98q49 0 49 71v617h-137q-18 0 -14 22l8 62q2 14 24 14h119v39q0 229 137 385q148 162 330 162t264 -121q68 82 170 122t190 40t146 -42
q58 -41 60 -93t-28 -78t-67 -27q-63 1 -117 71t-112 70q-92 0 -156 -71q-44 -49 -68 -127t-28 -137t-4 -152v-41h297q90 0 176 20t94 19q8 0 7 -40t-1 -163l2 -450q-1 -309 -31 -465t-126 -244t-221 -88q-49 0 -84 27q-35 28 -35 62t21 64q22 30 52 29q59 0 117 -63
q29 -31 47 -31q89 -1 101 163t12 344v211q0 32 -1 46t-2 90q-1 75 -3 191t-34 148t-138 32h-250v-183q0 -430 4 -452q0 -53 37 -53h92q20 0 21 -17v-33q0 -25 -13 -24l-221 6l-188 -6q-16 0 -17 14v45q0 14 21 15h67q49 0 49 71v617h-421v-183q0 -429 3 -455t12 -38t40 -12
h55q23 0 23 -17v-33q0 -25 -15 -24l-184 6l-233 -6q-16 0 -17 14v45z" />
    <glyph glyph-name="longs_h" unicode="&#x17f;h" horiz-adv-x="1675" 
d="M51 53q0 14 21 15h98q27 0 37 16t12 55v617h-137q-16 0 -14 22l8 62q2 14 24 14h119v39q0 276 156 450q123 137 301 138q63 1 131 -15q69 -16 95 -32t22 -54t-4 -503v-132h10q51 61 130 97t150 37q119 0 203 -82q43 -41 63 -97t23 -92q2 -35 2 -112v-117l4 -281
q0 -31 76 -30h35q23 0 22 -19v-31q0 -25 -16 -24l-197 6l-192 -6q-18 0 -19 22v35q0 16 15 17h47q76 0 78 38v369q0 97 -14 155t-63 106q-50 48 -126 48q-115 0 -190 -86q-41 -49 -41 -100v-446q0 -52 8 -68t37 -16h61q23 0 23 -17v-35q0 -23 -17 -22l-188 6l-209 -6
q-14 0 -14 20v35q0 18 26 19h78q43 0 45 57t2 528v129q0 307 -8 404q-14 195 -148 194q-102 0 -170 -71q-39 -43 -57 -124t-20 -131t-2 -159v-322q0 -429 3 -455t12 -38t40 -12h76q23 0 22 -17v-33q0 -25 -14 -24l-205 6l-233 -6q-16 0 -17 14v45z" />
    <glyph glyph-name="longs_i" unicode="&#x17f;i" horiz-adv-x="1105" 
d="M51 53q0 14 21 15h98q27 0 37 16t12 55v617h-137q-16 0 -12 22l6 62q2 14 24 14h119v35q0 254 154 422q76 86 173 128t179 42t142 -44q59 -43 61 -95t-28 -78t-69 -27q-63 1 -116 71t-103 70q-82 0 -145 -71q-45 -49 -69 -126t-28 -137t-3 -149v-322q0 -429 3 -455
t12 -38t40 -12h76q23 0 22 -17v-33q0 -25 -14 -24l-205 6l-233 -6q-16 0 -17 14v45zM768 295v301q0 57 -22 84t-93 39q-18 2 -18 14v19q0 8 14 14q123 48 185 80t75 32q15 0 11 -29q-4 -30 -5 -329v-223q0 -154 3 -176q6 -53 32 -53h94q20 0 21 -19v-35q0 -20 -18 -20l-72 2
q-69 4 -125 4t-129 -4l-72 -2q-16 0 -16 16v41q0 16 20 17h80q31 0 33 51t2 176z" />
    <glyph glyph-name="longs_l" unicode="&#x17f;l" horiz-adv-x="1099" 
d="M51 53q0 14 21 15h98q27 0 37 16t12 55v617h-137q-16 0 -12 22l6 62q2 14 24 14h119v39q0 276 156 450q123 137 301 138q63 1 131 -15q69 -16 95 -32t22 -54t-4 -587v-183q0 -416 3 -479t52 -63h92q23 0 23 -19v-35q0 -20 -13 -20l-221 6l-221 -6q-14 0 -14 20v35
q0 18 26 19h78q43 0 45 57t2 528v129q0 307 -8 404q-14 195 -150 194q-100 0 -168 -71q-39 -43 -57 -124t-20 -131t-2 -159v-322q0 -429 3 -455t12 -38t40 -12h76q23 0 22 -17v-33q0 -25 -14 -24l-205 6l-233 -6q-16 0 -17 14v45z" />
    <glyph glyph-name="longs_longs" unicode="&#x17f;&#x17f;" horiz-adv-x="1146" 
d="M51 53q0 14 21 15h98q27 0 37 16t12 55v617h-137q-16 0 -12 22l6 62q2 14 24 14h119v39q0 229 137 385q147 162 326 162q76 0 144 -30t102 -83q145 154 327 154q79 0 133 -30t54 -75q0 -46 -30 -72t-60 -26t-52 12t-56 53t-89 41q-165 0 -206 -199q-17 -83 -18 -131
t-1 -159v-322q0 -429 3 -455t12 -38t40 -12h117q23 0 22 -17v-33q0 -25 -14 -24l-225 6l-223 -6q-16 0 -17 14v45q0 14 21 15h67q27 0 37 16t12 55v617h-137q-16 0 -12 22l6 62q2 14 25 14h118v39q0 227 86 350l-4 2q-94 -16 -147 51q-39 47 -130 47t-149 -71
q-35 -43 -52 -124t-18 -124t-1 -129v-322q0 -429 3 -455t11 -38t35 -12h61q23 0 23 -17v-33q0 -25 -15 -24l-184 6l-233 -6q-16 0 -17 14v45z" />
    <glyph glyph-name="longs_t" unicode="&#x17f;t" horiz-adv-x="1218" 
d="M51 53q0 14 21 15h98q27 0 37 16t12 55v617h-137q-16 0 -12 22l6 62q2 14 24 14h119v39q0 268 135 428t328 160q123 0 217 -41q27 -10 27 -54q0 -8 -5 -250t1 -282h284q20 0 17 -18l-23 -72q-4 -16 -18 -16h-264q-6 -141 -7 -287v-205q0 -102 34 -141t73 -39q94 0 135 26
q14 8 25 -4l10 -18q8 -10 -12 -30t-79 -48t-137 -27q-78 -1 -140 57t-62 118l6 292v45q0 88 4 261h-125q-31 0 -31 24q0 14 56 48t108 95q0 14 1 86q4 307 -25 330q-61 51 -119 51q-235 0 -258 -267q-8 -95 -8 -220v-322q0 -429 3 -455t12 -38t40 -12h117q23 0 22 -17v-33
q0 -25 -14 -24q-2 0 -31 1l-87 3q-58 2 -128 2l-233 -6q-16 0 -17 14v45z" />
    <glyph glyph-name=".notdef" 
d="M102 1239v-1044l349 522zM164 102h696l-348 523zM573 717l349 -522v1044zM512 809l348 522h-696zM0 0v1434h1024v-1434h-1024z" />
    <glyph glyph-name=".null" horiz-adv-x="0" 
 />
    <glyph glyph-name="nonmarkingreturn" horiz-adv-x="681" 
 />
    <glyph glyph-name="space" unicode=" " horiz-adv-x="520" 
 />
    <glyph glyph-name="exclam" unicode="!" horiz-adv-x="520" 
d="M166 1285q0 42 28 78t73 36q44 0 74 -30t26 -91q0 -8 -36 -368t-38 -474q0 -14 -14 -14h-37q-14 0 -15 20q-2 109 -31 455q-30 346 -30 388zM269 -25q-46 0 -88 29t-42 79t31 89t87 39t91 -34t35 -86t-34 -84t-80 -32z" />
    <glyph glyph-name="quotedbl" unicode="&#x22;" horiz-adv-x="757" 
d="M544 1481q95 0 95 -84q1 -29 -29 -213t-32 -240h-68q-2 56 -32 240t-29 211q0 86 95 86zM121 1395q0 86 95 86t95 -84q-1 -29 -29 -213t-30 -240h-70q-2 56 -32 240t-29 211z" />
    <glyph glyph-name="numbersign" unicode="#" 
d="M233 -31h-92q-14 0 -8 29l94 432h-231q-18 0 -12 19l20 75q2 14 23 15h223l65 317h-213q-18 0 -24 3t-4 11l16 80q4 14 27 15h221l92 415q4 18 16 19h91q14 0 8 -21l-86 -413h221l86 415q8 18 20 19h91q14 0 10 -23l-86 -411h223q10 0 15 -3t3 -12l-18 -80
q-2 -14 -31 -14h-215l-67 -317h227q12 0 18 -4t5 -13l-21 -82q-2 -10 -25 -10h-227l-90 -436q-6 -25 -20 -25h-93q-14 0 -8 23l92 438h-223l-92 -428q-6 -33 -21 -33zM592 539l65 317h-221l-67 -317h223z" />
    <glyph glyph-name="dollar" unicode="$" 
d="M758 342q0 186 -133 252l-13 -477q61 25 104 81q42 56 42 144zM449 643l-15 -526q18 -18 111 -15l12 514q-40 11 -108 27zM385 819l8 416q-115 -58 -113 -225q1 -135 89 -182q14 -7 16 -9zM561 768l12 471q-51 27 -108 14l-12 -458q24 -13 108 -27zM594 -88h-39
q-14 0 -14 20l2 101q-57 -6 -111 8l-4 -111q0 -18 -14 -18h-41q-14 0 -15 20l4 125q-45 15 -89 49t-57 34q-14 0 -28 -25q-14 -24 -36 -25q-20 0 -19 27q20 136 32 314q1 15 15 15l31 -2q12 0 12 -14q3 -118 49 -190t93 -97l14 523q-80 25 -135 79q-96 91 -96 237t126 257
q53 49 121 70l4 116q0 20 15 21h41q14 0 14 -21l-2 -106q53 6 108 -4l3 110q0 20 14 21h41q14 0 14 -25l-4 -118q37 -7 65 -21t46 -2l20 20q14 12 29 13q16 0 16 -31q0 -158 6 -281q0 -10 -10 -14l-29 -6q-10 0 -12 6q-23 127 -86 187l-43 36l-16 -456q262 -78 262 -351
q0 -125 -78 -230t-203 -132l-2 -109q0 -20 -14 -20z" />
    <glyph glyph-name="percent" unicode="%" horiz-adv-x="1536" 
d="M1188 840q220 0 288 -285q15 -68 19 -143q-2 -203 -83 -317t-214 -113q-243 0 -296 296q-11 60 -11 115q0 187 76 317t221 130zM1198 43q90 0 119 84q29 90 29 274q0 377 -164 377q-70 0 -105 -71q-43 -90 -43 -280t37 -284q20 -47 58 -73t69 -27zM372 -31q-7 1 -36 17
t-29 24t10 25l832 1347q8 16 16 17q8 -1 38 -17t30 -22t-8 -21l-832 -1343q-14 -27 -21 -27zM41 952q0 186 76 316t232 131q156 0 229 -149q59 -123 67 -279q-2 -203 -83 -317t-214 -113q-242 0 -296 296q-11 60 -11 115zM348 602q90 0 119 84q29 90 29 275q0 377 -164 376
q-70 0 -105 -71q-43 -90 -43 -280t37 -284q20 -48 58 -74t69 -26z" />
    <glyph glyph-name="ampersand" unicode="&#x26;" horiz-adv-x="1689" 
d="M762 1160q0 74 -48 145t-120 71t-130 -74t-58 -166q0 -93 208 -223q80 61 114 117t34 130zM582 92q87 0 160 41t110 79q107 109 117 130q-242 340 -451 459q-121 -67 -200 -175q-78 -108 -76 -229t110 -213t230 -92zM1618 936v-43q0 -14 -14 -14h-35q-76 -1 -104 -11
q-27 -10 -53 -50t-136 -196t-146 -194q135 -152 156 -172q147 -154 277 -154q80 0 143 60t82 100q6 10 16 2l31 -18q15 -10 -25 -68q-41 -57 -86 -103q-46 -46 -116 -76t-138 -30q-166 0 -287 123q-67 68 -117 133t-52 70q-119 -147 -185 -201q-153 -125 -321 -125
q-168 -1 -301 97t-133 275q0 276 403 503q-102 59 -158 129q-55 70 -55 127q0 118 118 234t222 116t194 -90q89 -90 85 -195q-2 -75 -76 -159t-150 -123q105 -55 229 -170t204 -230q59 76 129 185q69 110 73 142t-14 51t-49 20h-35q-14 0 -14 14v45q0 10 14 10l199 -6l211 6
q14 0 14 -14z" />
    <glyph glyph-name="quotesingle" unicode="'" horiz-adv-x="421" 
d="M212 1481q95 0 95 -84q-1 -29 -29 -213t-30 -240h-70q-2 56 -32 240t-29 211q0 86 95 86z" />
    <glyph glyph-name="parenleft" unicode="(" horiz-adv-x="675" 
d="M123 564q0 292 137 583q88 195 270 369q20 14 36 14t30 -10t14 -24t-18 -32q-330 -344 -330 -878t332 -873q16 -21 16 -33t-14 -23t-30 -11t-36 16q-201 186 -288 369q-119 241 -119 533z" />
    <glyph glyph-name="parenright" unicode=")" horiz-adv-x="675" 
d="M553 612q0 -292 -137 -583q-92 -201 -271 -367q-19 -16 -35 -16t-30 11t-14 23t18 31q330 344 330 879t-332 872q-16 20 -16 34t14 24t29 10t36 -14q203 -193 289 -371q119 -241 119 -533z" />
    <glyph glyph-name="asterisk" unicode="*" horiz-adv-x="671" 
d="M336 817q-66 0 -66 72q0 8 60 246h-4q-8 -6 -83 -81t-96 -89q-67 -39 -99 16t32 94q16 10 125 42t119 32v4q-14 2 -125 32t-131 38q-20 7 -29 29q-10 22 4 57q31 57 98 20q17 -8 99 -83t86 -83l4 4q-4 12 -32 122t-28 124q0 68 66 68t65 -68q1 -18 -27 -129t-32 -119
l4 -4q6 10 88 88t96 86q58 31 92 -24t-28 -90q-16 -10 -125 -39t-119 -29v-4q213 -53 250 -72q63 -31 25 -96q-33 -53 -101 -14q-16 8 -95 86t-83 86l-4 -4q4 -8 32 -118t27 -128q1 -72 -65 -72z" />
    <glyph glyph-name="plus" unicode="+" 
d="M575 82h-122v352h-338v115h338v352h122v-352h334v-115h-334v-352z" />
    <glyph glyph-name="comma" unicode="," horiz-adv-x="520" 
d="M240 236q57 0 115 -54q59 -54 59 -136q0 -80 -31 -152t-91 -138t-118 -102q-37 -18 -41 -19q-25 0 -24 19q0 14 18 31q145 133 145 258q0 18 -11 38t-34 28q-106 35 -106 130q0 41 31 69t88 28z" />
    <glyph glyph-name="hyphen" unicode="-" horiz-adv-x="827" 
d="M106 498v90q0 14 19 14h573q23 0 23 -22v-78q0 -14 -25 -15h-571q-19 -1 -19 11z" />
    <glyph glyph-name="period" unicode="." horiz-adv-x="520" 
d="M268 -25q-47 0 -88 29t-41 80t30 89t87 38t91 -34t34 -86t-33 -84t-80 -32z" />
    <glyph glyph-name="slash" unicode="/" horiz-adv-x="716" 
d="M4 33l610 1440q8 18 27 12l66 -27q16 -6 8 -28l-613 -1442q-10 -25 -26 -17l-70 35q-12 7 -2 27z" />
    <glyph glyph-name="zero" unicode="0" 
d="M524 43q132 0 196 142t64 556q0 238 -75 411q-76 173 -199 173t-186 -123q-82 -160 -82 -553q0 -287 69 -432q82 -174 213 -174zM522 -31q-117 0 -210 65q-155 108 -222 374q-27 106 -27 206q-1 348 129 566t328 219q109 0 196 -66t138 -170q107 -218 107 -467
q0 -346 -119 -536t-320 -191z" />
    <glyph glyph-name="one" unicode="1" 
d="M197 10v51q0 12 28 13h94q98 0 118 16q19 16 23 70t3 506v358q-4 115 -49 115q-29 0 -82 -17l-144 -47q-16 -4 -20 6l-16 37q-6 14 12 25l424 243q20 12 31 12t12 -28l-2 -98q-4 -196 -4 -506v-86l2 -485q2 -82 23 -102q22 -19 120 -19h74q20 0 20 -17v-47q0 -16 -18 -16
l-316 6l-317 -6q-16 0 -16 16z" />
    <glyph glyph-name="two" unicode="2" 
d="M528 1399q137 1 248 -103t111 -270q-1 -131 -59 -253t-195 -275q-101 -119 -290 -274q-83 -69 -101 -85h415q100 0 157 61q38 41 81 111q12 23 38 10t15 -28l-133 -320q-4 -6 -4 -13t-4 -8q-5 -1 -23 -1q-18 1 -28 25t-111 24h-444l-166 -8q-15 0 -23 14t6 29l105 96
q225 208 336 328q260 279 252 512q-4 135 -78 213t-191 77t-187 -82q-36 -41 -47 -57t-36 -61q-10 -18 -25 -10l-28 12q-10 6 0 29q127 307 409 307z" />
    <glyph glyph-name="three" unicode="3" 
d="M379 -31q-162 0 -235 51t-72 111q0 39 25 70t72 12q31 -14 45 -56q3 -9 7 -18l2 -10q39 -84 183 -84t226 84q83 84 83 214t-86 229t-226 124q-18 18 -20 27q0 23 25 29q106 20 186 99t80 185t-58 171t-151 65q-190 0 -272 -223q-8 -25 -21 -21l-37 8q-8 4 -2 31
q25 125 126 228t256 103t231 -85q76 -86 75 -183q0 -211 -229 -352q115 -29 207 -130t92 -228q-1 -195 -151 -323t-361 -128z" />
    <glyph glyph-name="four" unicode="4" 
d="M643 508v563q0 25 -12 29t-27 -17l-377 -520q-39 -55 15 -55h401zM768 0h-102q-25 0 -25 23v360h-571q-31 0 -31 25q0 12 20 41l666 917q25 33 45 33q27 0 27 -62v-819h166q25 0 24 -16v-99q0 -20 -33 -20h-157v-354q0 -16 -5 -23q-6 -6 -24 -6z" />
    <glyph glyph-name="five" unicode="5" 
d="M55 84q1 53 53 53q28 0 94 -40t176 -40q110 1 208 93t98 223q0 236 -180 313q-125 55 -266 45q-50 -9 -48 27l74 577q2 17 8 25t25 8h438q65 0 92 44q12 17 33 58q8 16 25 11q29 -15 29 -19t-1 -6l-73 -205q-10 -25 -26 -33t-62 -8h-426l-37 -329q37 2 118 -5
q235 -20 348 -158q83 -101 83 -241q2 -217 -151 -362t-365 -146q-111 0 -189 35t-78 80z" />
    <glyph glyph-name="six" unicode="6" 
d="M512 717q-154 0 -203 -101q-45 -84 -45 -210q0 -371 264 -371q49 0 94 24q136 74 137 306q1 159 -66 255t-181 97zM504 -31q-188 0 -283 113q-131 141 -131 377q0 416 311 719q139 135 301 198q51 23 76 23t25 -22t-19 -31q-154 -70 -302 -239t-183 -396q109 94 272 94
q119 0 206 -65q157 -117 157 -296q0 -131 -33 -210t-94 -142q-115 -123 -303 -123z" />
    <glyph glyph-name="seven" unicode="7" 
d="M399 1368h576q20 0 20 -18q0 -12 -36 -77t-119 -233q-82 -168 -119 -258q-209 -479 -277 -708q-31 -104 -102 -105q-36 1 -58 21t-22 58t41 123t256 499t283 547h-486q-58 1 -80 -11t-29 -14t-19 -14l-16 -16q-5 -4 -16 -19q-10 -17 -14 -21t-17 -24t-18 -25
q-14 -18 -33 -7t-21 15q-1 4 3 19l127 330q7 14 29 14t28 -7t2 -30q-3 -23 19 -31t98 -8z" />
    <glyph glyph-name="eight" unicode="8" 
d="M528 1315q-108 0 -178 -76t-70 -194t120 -205q48 -35 157 -99q84 53 146 139q61 86 67 190t-64 174t-178 71zM264 282q0 -110 79 -176t187 -67q108 0 172 62t64 184t-84 192q-84 71 -213 139q-205 -116 -205 -334zM500 -31q-184 0 -274 88q-91 88 -91 210q-1 122 63 210
t203 178q-281 158 -280 351q0 150 118 272t320 121q139 0 243 -81t105 -183q0 -143 -58 -233t-224 -204q137 -66 213 -152t76 -216q0 -131 -116 -246q-114 -115 -298 -115z" />
    <glyph glyph-name="nine" unicode="9" 
d="M510 1333q-100 0 -177 -92q-77 -93 -77 -245t74 -246t180 -95q150 0 207 117q31 63 31 203q0 358 -238 358zM488 1399q122 0 192 -33t136 -107q66 -75 91 -169t25 -164q0 -475 -334 -770q-137 -121 -295 -172q-47 -14 -63 -15q-31 0 -31 29q0 20 18 29q162 67 314 235
t182 402l-2 4q-109 -100 -250 -101q-195 0 -287 121t-92 289q0 61 48 163t104 152q122 107 244 107z" />
    <glyph glyph-name="colon" unicode=":" horiz-adv-x="520" 
d="M268 643q-47 0 -88 29t-41 80t30 89t87 38t91 -34t34 -86t-33 -84t-80 -32zM268 -25q-47 0 -88 29t-41 80t30 89t87 38t91 -34t34 -86t-33 -84t-80 -32z" />
    <glyph glyph-name="semicolon" unicode=";" horiz-adv-x="520" 
d="M226 879q56 0 90 -34t34 -86t-32 -84t-80 -32q-47 0 -88 29t-41 79t30 89q31 39 87 39zM240 236q57 0 115 -54q59 -54 59 -136q0 -80 -31 -152t-91 -138t-118 -102q-37 -18 -41 -19q-25 0 -24 19q0 14 18 31q145 133 145 258q0 18 -11 38t-34 28q-106 35 -106 130
q0 41 31 69t88 28z" />
    <glyph glyph-name="less" unicode="&#x3c;" 
d="M809 82l-637 379v65l637 375v-135l-453 -262v-10l453 -273v-139z" />
    <glyph glyph-name="equal" unicode="=" 
d="M115 401h794v-114h-794v114zM115 711h794v-115h-794v115z" />
    <glyph glyph-name="greater" unicode="&#x3e;" 
d="M215 901l637 -379v-65l-637 -375v135l453 262v10l-453 273v139z" />
    <glyph glyph-name="question" unicode="?" horiz-adv-x="757" 
d="M395 84q-1 -43 -33 -76t-80 -33t-81 31t-33 78t31 79t79 32t82 -34t35 -77zM295 594v-219q0 -14 -14 -15h-39q-14 0 -15 15v387q0 24 29 18q30 -6 100 -6t115 12t87 52t42 98q0 98 -111 184q-73 62 -121 80t-112 18t-108 30q-42 30 -42 67t31 60t68 24q135 0 308 -178
t173 -357q0 -113 -53 -160q-90 -80 -206 -89q-70 -5 -116 -5q-16 0 -16 -16z" />
    <glyph glyph-name="at" unicode="@" horiz-adv-x="1609" 
d="M700 -31q-295 0 -466 159t-171 405q-1 247 133 465t348 350t458 133q244 -1 384 -147q141 -146 142 -400q0 -217 -163 -395t-419 -179q-28 0 -52 20t-24 48q0 63 72 244l-8 4q-80 -113 -202 -214t-226 -102q-43 0 -74 31t-31 88q0 131 96 291q95 160 233 270t240 109
q102 0 138 -72l27 39q10 14 20 14h78q20 0 13 -14q-6 -14 -122 -280t-116 -355q0 -41 59 -41q104 0 220 140t116 370q0 229 -116 343q-115 114 -321 114t-381 -126q-175 -127 -273 -319t-97 -391q0 -244 145 -384t386 -139t374 85l27 -51q-49 -45 -178 -79t-269 -34z
M956 1090q-80 0 -179 -106t-165 -242t-67 -213q0 -77 49 -76q82 0 219 146q137 147 183 239t46 140t-23 80q-24 32 -63 32z" />
    <glyph glyph-name="A" unicode="A" horiz-adv-x="1521" 
d="M717 1276q-9 0 -25 -40t-112 -300t-105 -293h453q-61 205 -195 604q-12 29 -16 29zM950 59q0 14 19 15h51q43 0 57 17t4 61q-31 134 -129 417h-503q-17 -47 -77 -212t-67 -193q-6 -43 -6 -45q0 -45 70 -45h96q20 0 20 -15v-47q0 -18 -16 -18l-233 6q-138 0 -177 -3
t-47 -3q-14 0 -14 16v49q0 14 16 15h72q45 0 71 22t45 64q19 43 103 260q83 218 105 280t114 308t104 286t0 58q-13 20 -14 28q0 12 19 19q41 8 96 43t74 59q18 18 26 19q13 0 27 -48t114 -344t127 -388q27 -93 103 -311t98 -263q47 -92 140 -92h67q16 0 17 -15v-51
q0 -14 -21 -14l-246 6l-288 -6q-16 0 -17 18v47z" />
    <glyph glyph-name="B" unicode="B" horiz-adv-x="1351" 
d="M463 963v-152q39 -4 108 -4q182 0 258 53q115 86 115 236t-100 223q-100 72 -281 72q-59 0 -67 -2q-29 -8 -29 -37q-4 -82 -4 -389zM463 741v-409q0 -148 46 -210t179 -62t226 77q93 78 94 248q0 121 -56 203t-147 118q-92 36 -277 35h-65zM74 59q0 14 18 15h98
q45 0 61 18q15 18 23 84t9 473v242q1 252 -5 349t-31 117q-26 19 -104 19h-63q-16 0 -17 15v51q0 14 17 14l272 -6l260 6q266 0 363 -55q158 -86 158 -279q-1 -139 -55 -201t-195 -137l6 -4q332 -109 332 -405q0 -82 -45 -173t-113 -134q-119 -74 -391 -74l-307 6l-263 -6
q-29 0 -28 12v53z" />
    <glyph glyph-name="C" unicode="C" horiz-adv-x="1527" 
d="M836 -31q-313 0 -519 189q-106 100 -162 258t-57 315q0 322 209 543q84 90 219 148t293 59q221 0 414 -113q35 -20 41 0l16 59q4 13 22 13t23 -6q4 -6 4 -30t22 -184t28 -194t-7 -37l-30 -8q-14 -2 -21 16q-68 160 -160 254q-154 158 -356 158q-131 0 -233 -54
q-182 -97 -250 -346q-29 -108 -29 -225t45 -263q44 -145 146 -257t190 -145t230 -33t274 75q133 75 211 185q8 14 16 6l27 -20q10 -8 4 -19q-237 -344 -610 -344z" />
    <glyph glyph-name="D" unicode="D" horiz-adv-x="1665" 
d="M481 887v-146q0 -248 4 -501q0 -61 35 -115q49 -66 209 -66q160 -1 285 59t205 163q150 184 149 460q0 119 -47 245q-151 405 -635 405q-129 0 -164 -22q-35 -21 -38 -101t-3 -381zM74 -6q-14 0 -15 14v53q0 12 17 13h137q59 0 66 49q14 100 14 663v154q0 294 -7 354
q-6 60 -26 71t-65 11h-113q-16 0 -16 15v55q0 10 14 10l301 -6l305 6q221 0 381 -39t285 -145q227 -197 227 -522q1 -318 -185 -520q-88 -96 -174 -143q-166 -93 -481 -93l-377 6q-174 0 -227 -3t-61 -3z" />
    <glyph glyph-name="E" unicode="E" horiz-adv-x="1413" 
d="M487 784q186 0 246 10t77 28q18 18 32 64t16 101q0 14 14 14l52 -2q16 1 11 -25t-5 -167t12 -270q0 -12 -12 -17l-45 -6q-8 -2 -12 3q-3 5 -6 25t-22 90q-19 69 -87 77q-96 10 -271 10v-127q0 -290 5 -350q2 -137 116 -160q72 -14 170 -14t185 9q86 9 155 68q18 13 82 97
t80 110q18 26 31 21l32 -19q12 -8 5 -28l-109 -301q-10 -31 -45 -31l-178 4l-641 2l-174 -2q-86 -4 -88 -4q-18 0 -19 14v55q0 10 21 11h82q70 0 86 15t16 75v686q0 385 -6 440q-7 54 -27 70t-78 16h-73q-16 0 -17 15v55q0 10 15 10l252 -6h90l608 2l82 4q12 0 16 -10
q4 -16 53 -170q48 -154 52 -164t-6 -14l-31 -17q-10 -6 -17 6q-6 13 -90 113t-114 121q-78 53 -156 55l-365 8v-600z" />
    <glyph glyph-name="F" unicode="F" horiz-adv-x="1224" 
d="M100 63q0 10 15 11h92q41 0 55 9t20 63t5 624v143l-4 404q0 59 -84 59h-119q-14 0 -14 13v55q0 12 14 12l84 -2q94 -4 534 -4t467 8q31 -174 82 -364q2 -10 -4 -15l-37 -14q-8 -1 -26 31t-121 172q-55 76 -139 95t-443 19l-2 -563v-102q207 0 256 8q49 7 69 27t32 57
q10 37 22 109q4 14 14 14l41 -2q12 0 13 -15q-4 -35 -4 -189t10 -257q0 -14 -15 -16l-39 -9q-10 -2 -12 6t-4 24q-2 18 -21 88t-83 77q-96 12 -279 12v-76l2 -436q1 -41 15 -53t65 -12h100q18 0 19 -13v-51q0 -16 -17 -16l-278 6l-268 -6q-12 0 -13 14v55z" />
    <glyph glyph-name="G" unicode="G" horiz-adv-x="1675" 
d="M860 -31q-154 1 -314 59t-259 175q-188 213 -189 563q0 142 60 282t172 238q227 195 575 195q121 0 233 -37t171 -82q29 -23 47 2l30 37q18 18 29 18q18 0 19 -24l6 -391q0 -18 -10 -19l-37 -4q-12 0 -17 16q-71 254 -274 360q-96 50 -221 50q-236 0 -392 -166
q-180 -190 -180 -471q0 -389 195 -573q152 -145 362 -145t334 69q35 20 45 58t10 122v152q0 55 -18 74t-66 20h-86q-14 0 -14 12v51q0 16 12 17l88 -4q88 -2 172 -2l242 6q16 0 17 -15v-49q0 -16 -15 -16h-80q-63 0 -63 -78v-270l8 -66q0 -20 -33 -33q-258 -131 -559 -131z
" />
    <glyph glyph-name="H" unicode="H" horiz-adv-x="1746" 
d="M76 8v53q0 12 14 13h121q57 0 57 98q6 289 6 547v88l-4 436q0 80 -17 107t-73 26h-96q-12 0 -12 17v49q0 14 16 14l287 -6l272 6q20 0 21 -10v-53q0 -16 -17 -17h-104q-49 0 -65 -25q-15 -26 -15 -91l-4 -414v-35q0 -16 24 -16h758q25 0 33 6t8 24v21q0 70 -4 248l-2 178
q0 55 -13 80t-55 24h-106q-14 0 -14 15v53q0 12 12 12l270 -6l262 6q16 0 17 -16v-49q0 -14 -17 -15h-92q-41 0 -53 -24t-12 -84l-4 -451v-69q0 -221 6 -572q0 -55 18 -79t64 -23h90q18 0 18 -15v-49q0 -16 -16 -16l-258 6l-305 -6q-12 0 -13 14v51q0 14 17 15h129
q35 0 48 31t13 563v28q0 16 -9 20t-36 5h-749q-29 0 -29 -21v-43q0 -227 4 -514q2 -70 65 -69h101q16 0 16 -15v-51q0 -14 -16 -14l-258 6l-285 -6q-14 0 -14 14z" />
    <glyph glyph-name="I" unicode="I" horiz-adv-x="759" 
d="M70 -6q-16 0 -17 12v55q0 12 17 13h114q84 0 92 59q11 78 11 582v143q0 326 -8 449q-5 39 -25 54t-78 15h-119q-16 0 -16 13v55q0 12 14 12l320 -6l276 6q14 0 15 -14v-51q0 -14 -17 -15h-96q-72 0 -72 -57l-6 -498v-157l6 -517q0 -45 22 -59t75 -14h84q16 0 16 -15v-53
q0 -12 -19 -12l-284 6q-193 0 -247 -3t-58 -3z" />
    <glyph glyph-name="J" unicode="J" horiz-adv-x="679" 
d="M-18 -449q-41 0 -91 30q-49 30 -49 82t32 79t84 27t97 -31t62 -78q78 25 113 129t33 439q-1 118 -3 276t-2 176v143q0 395 -4 458t-24 79t-78 16h-91q-14 0 -14 10v56q0 14 14 14q4 0 38 -1l102 -3q68 -2 153 -2l277 6q16 0 16 -12v-51q0 -16 -16 -17h-103q-41 0 -57 -13
t-20 -79t-5 -510v-94l-8 -508q0 -213 -73 -337t-173 -204t-210 -80z" />
    <glyph glyph-name="K" unicode="K" horiz-adv-x="1458" 
d="M129 -6q-14 0 -14 14v53q0 12 14 13h84q47 0 55 37q6 55 6 645v118l-6 453q0 49 -61 49h-72q-16 0 -16 15v53q0 12 16 12l240 -6l231 6q16 0 17 -12v-53q0 -14 -15 -15h-86q-31 0 -44 -13t-13 -50l-6 -451v-102h37q43 0 78 24q34 24 228 266t214 272t14 44t-26 14h-29
q-10 0 -10 15v47q0 14 12 14l203 -6l155 6q14 0 15 -10v-55q0 -14 -17 -15h-43q-59 0 -111 -39q-53 -39 -227 -235t-252 -297q10 -12 274 -341t275 -339q41 -51 144 -51h71q14 0 15 -15v-51q0 -14 -17 -14l-252 6l-278 -6q-12 0 -12 12v53q0 12 12 13h31q27 0 35 19t-5 43
q-12 24 -198 270t-215 271q-29 24 -82 23h-39v-147q0 -346 6 -432q4 -45 47 -45h90q16 0 16 -13v-53q0 -14 -12 -14l-231 6q-155 0 -199 -3t-47 -3z" />
    <glyph glyph-name="L" unicode="L" horiz-adv-x="1355" 
d="M1221 -6q-80 6 -863 6l-182 -2l-80 -4q-16 0 -16 14v51q0 14 14 15h99q88 0 88 55l6 674v115q0 274 -6 385q-5 43 -19 58t-57 15h-96q-14 0 -15 21v45q0 14 15 14l266 -6l303 6q18 0 18 -16v-47q0 -16 -20 -17h-123q-45 0 -58 -16t-14 -64l-6 -479v-176q0 -477 6 -561
q41 -4 251 -5t264 6t117 80q102 120 155 263q6 12 16 8l33 -12q6 -4 4 -19q-20 -47 -100 -407z" />
    <glyph glyph-name="M" unicode="M" horiz-adv-x="2009" 
d="M1915 1442v-47q0 -18 -17 -19h-90q-43 0 -55 -20t-12 -64l-6 -489v-144l6 -475q0 -59 15 -85t54 -25h121q14 0 15 -15v-47q0 -18 -19 -18l-287 6q-182 0 -235 -3t-59 -3q-16 0 -17 18v47q0 14 17 15h139q29 0 42 15t16 61t3 530v131q0 500 -6 518h-4q-20 -29 -170 -359
q-150 -329 -154 -336q-4 -8 -63 -144t-119 -276t-63 -142q-23 -49 -40 -49t-32 36q-4 8 -253 623t-280 641q-12 -43 -12 -547t6 -573q6 -68 24 -99t69 -30h102q14 0 14 -15v-51q0 -14 -18 -14l-248 6q-167 0 -213 -3t-55 -3q-8 0 -12 3q-3 3 -3 15v49q0 12 13 13h108
q53 0 76 30q63 85 63 706q0 431 -2 480t-12 67q-10 19 -72 19h-124q-14 0 -15 15v53q0 12 15 12l249 -6l174 6q40 0 54 -35l454 -1093q16 18 131 279q116 261 130 289t121 266q108 236 112 262t47 26l365 6q12 0 12 -14z" />
    <glyph glyph-name="N" unicode="N" horiz-adv-x="1628" 
d="M94 8v53q0 12 12 13h70q45 0 65 25q19 26 27 102t8 635v348q0 88 -38 138q-39 50 -97 52l-84 2q-12 0 -12 15v53q0 12 12 12l58 -2q61 -4 145 -4l137 4q35 0 49 -16t117 -149q103 -132 209 -269q106 -138 114 -148t156 -194q149 -184 263 -326h8v244q0 617 -31 700
q-25 80 -113 80h-65q-12 0 -12 15v53q0 12 12 12l225 -6l199 6q16 0 16 -14v-51q0 -14 -12 -15h-55q-41 0 -59 -26q-17 -27 -23 -125t-6 -434v-766q0 -49 -11 -50q-25 0 -49 33q-2 2 -250 316q-303 377 -316 388t-401 500h-12v-454q0 -582 42 -658q15 -27 54 -26h62
q16 0 16 -19v-45q0 -16 -16 -16l-199 6l-205 -6q-10 0 -10 14z" />
    <glyph glyph-name="O" unicode="O" horiz-adv-x="1681" 
d="M1382 691q0 159 -53 298t-135 227t-176 138q-94 49 -182 49q-2 0 -20 1q-173 10 -304 -122q-98 -94 -152 -233t-53 -283q0 -144 41 -272q72 -223 240 -344q142 -103 269 -103q126 0 225 50t155 123q55 73 100 193q45 119 45 278zM840 -31q-225 0 -441 133
q-121 74 -211 237t-90 372q0 281 191 510q213 260 555 260q264 0 459 -162q281 -242 280 -612q0 -242 -153 -449q-217 -289 -590 -289z" />
    <glyph glyph-name="P" unicode="P" horiz-adv-x="1243" 
d="M630 705q108 1 186 41q79 40 127 104t48 180q0 274 -261 344q-58 16 -143 16t-126 -14v-653q61 -18 169 -18zM1204 1057q0 -195 -138 -307t-382 -111q-141 0 -223 10v-106q0 -346 5 -408t66 -61h132q16 0 16 -15v-49q0 -16 -18 -16l-285 6q-175 0 -227 -3t-56 -3
q-16 0 -16 14v51q0 14 12 15h88q53 0 70 12q16 12 22 74t6 557v235q0 338 -3 373t-19 43t-61 8h-117q-12 0 -13 17v49q0 14 13 14l291 -6l225 6q176 0 273 -22t177 -75q80 -54 120 -134q42 -80 42 -168z" />
    <glyph glyph-name="Q" unicode="Q" horiz-adv-x="1669" 
d="M842 35q117 0 212 51t151 126q110 147 147 335q14 76 14 135q0 182 -47 328t-136 230q-89 85 -176 126t-196 41q-195 0 -328 -133q-178 -178 -178 -508q0 -188 66 -336t153 -233q171 -162 318 -162zM2165 -266q68 0 127 45q12 12 18 2l14 -21q6 -10 -6 -20
q-166 -166 -274 -166q-172 0 -532 91t-801 298q-4 2 -32 9q-29 8 -53 16q-176 61 -329 221q-199 203 -199 541q0 147 63 289q62 143 172 243t252 152t238 47q336 6 545 -213t203 -523q1 -158 -57 -301t-154 -237q-154 -154 -356 -221v-9q233 -86 524 -149q408 -96 570 -96
q20 0 44 2h23z" />
    <glyph glyph-name="R" unicode="R" horiz-adv-x="1427" 
d="M469 1309v-580q41 -8 92 -8q131 0 225 40t139 100q79 107 80 190q2 160 -102 245q-119 94 -340 95q-45 1 -69 -17t-25 -65zM123 -6q-16 0 -17 16v47q0 16 11 17h84q80 0 80 69q4 203 4 590v199q0 283 -2 342q-4 102 -78 102h-82q-12 0 -12 15v51q0 14 12 14q4 0 33 -1
l87 -3q58 -2 134 -2l342 6q252 0 383 -125q106 -102 106 -233q0 -186 -88 -276t-291 -134v-4q51 -18 95 -78q16 -18 94 -128t90 -134t84 -120q72 -97 98 -115q49 -35 148 -35q16 0 16 -17v-45q0 -18 -16 -18l-160 6q-74 0 -166 -6q-53 45 -226 357q-5 9 -73 109t-101 129
q-76 66 -175 66q-39 0 -68 -6v-114q0 -319 6 -390t49 -71h129q16 0 17 -17v-45q0 -12 -4 -15t-19 -3l-268 6q-171 0 -211 -3t-45 -3z" />
    <glyph glyph-name="S" unicode="S" horiz-adv-x="1122" 
d="M915 1430l29 -323q0 -13 -10 -15l-25 -7q-8 -4 -12 7q-37 133 -123 224t-219 91t-195 -74q-62 -75 -61 -177t69 -172t228 -118q94 -31 137 -46t101 -48q182 -105 182 -363q0 -181 -112 -311t-302 -129q-192 0 -330 107q-33 24 -46 24t-30 -30t-41 -29q-24 0 -19 32
q4 31 20 197t17 176t13 11l31 -2q12 0 12 -17q4 -129 74 -237q45 -72 123 -112t174 -40t182 67q86 68 86 202t-83 209t-264 139t-267 155q-102 102 -102 299q0 143 127 262q104 98 286 99q133 0 242 -51q25 -12 39 2l26 24q16 12 27 12q16 0 16 -38z" />
    <glyph glyph-name="T" unicode="T" horiz-adv-x="1437" 
d="M399 -6q-18 0 -18 20v39q0 20 14 21h140q29 0 47 14t22 54t4 708v526h-51q-244 0 -329 -26t-177 -236q-6 -12 -20 -10l-37 10q-12 4 -8 16q88 318 94 356t21 38t26 -8l27 -19q45 -33 116 -35q326 -12 387 -12h99q111 0 411 12q63 2 107 29l39 25q14 8 26 8q13 0 15 -18
q33 -245 61 -384q2 -14 -12 -16l-33 -8q-10 -2 -16 14q-84 200 -150 232t-350 32h-57v-583q0 -602 2 -637q6 -82 69 -82h129q20 0 21 -21v-43q0 -16 -21 -16l-286 6q-190 0 -247 -3t-65 -3z" />
    <glyph glyph-name="U" unicode="U" horiz-adv-x="1527" 
d="M1513 1442v-45q0 -20 -12 -21h-84q-48 0 -64 -24t-18 -33q-2 -8 -4 -15q-2 -6 -4 -18t-2 -339t-10 -460q-18 -264 -172 -395q-133 -123 -385 -123q-176 0 -277 43q-193 78 -243 275q-33 123 -33 497v488q-1 57 -17 81t-61 23h-96q-14 0 -15 19v45q0 16 19 16l280 -6
l281 6q18 0 18 -12v-53q0 -14 -16 -15h-102q-43 0 -69 -24t-30 -61q-4 -36 -4 -265v-135q0 -106 10 -434q10 -406 392 -408q413 0 413 473v439q0 240 -7 303q-13 114 -95 112h-90q-14 0 -15 17v49q0 14 15 14l252 -6l225 6q20 0 20 -14z" />
    <glyph glyph-name="V" unicode="V" horiz-adv-x="1445" 
d="M1470 1456q14 0 15 -14v-51q0 -14 -15 -15h-55q-80 0 -145 -80q-41 -51 -252 -571q-18 -47 -154 -385t-148 -360q-10 -22 -26 -21q-16 0 -35 47q-137 393 -258 729l-20 70q-164 485 -172 504q-29 68 -84 67h-53q-11 1 -11 15v51q0 14 15 14l247 -6l283 6q20 0 21 -14v-47
q0 -18 -17 -19h-98q-86 0 -86 -53q0 -92 114 -451q114 -358 209 -606h5q45 97 148 375t146 410l54 161q29 90 28 117q0 47 -65 47h-53q-10 0 -11 19v47q0 14 13 14l241 -6q66 0 116 2l75 3q25 1 28 1z" />
    <glyph glyph-name="W" unicode="W" horiz-adv-x="2140" 
d="M469 1444v-51q0 -16 -16 -17h-35q-80 1 -60 -73l330 -1037h4q2 10 158 465t164 531q4 30 -28 72t-85 42h-51q-12 0 -12 17v49q0 14 14 14l250 -6l270 6q14 0 14 -14v-51q0 -14 -14 -15h-82q-37 0 -52 -26t-5 -56l319 -1028h4q319 930 320 1047q0 63 -72 63h-55
q-14 0 -14 19v47q0 14 16 14l219 -6l191 6q14 0 14 -14v-51q0 -14 -14 -15h-50q-51 0 -81 -55q-11 -22 -240 -645q-230 -623 -250 -670t-39 -47q-29 0 -45 45l-379 1124h-4q-19 -59 -207 -587t-201 -555t-38 -27t-35 33l-457 1311q-27 74 -88 73h-70q-12 0 -12 17v49
q0 14 17 14l219 -6l252 6q16 0 16 -12z" />
    <glyph glyph-name="X" unicode="X" horiz-adv-x="1427" 
d="M866 59q0 14 13 15h79q64 0 50 39q-10 23 -158 265t-180 286q-315 -444 -336 -498q-37 -92 39 -92h80q16 -1 16 -13v-49q0 -18 -16 -18l-267 6l-221 -6q-12 0 -12 18v47q0 14 12 15h80q47 0 119 62t259 319q187 256 204 274q-387 575 -423 611t-98 36h-90q-10 0 -10 17
v47q0 16 10 16l291 -6l309 6q16 0 17 -14v-47q0 -18 -19 -19h-71q-63 0 -75 -31q-11 -32 15 -65q219 -365 256 -416q47 56 171 228t140 202t7 56q-10 27 -49 26h-43q-12 0 -13 19v47q0 14 15 14l223 -6l207 6q16 0 16 -14v-47q0 -18 -12 -19h-86q-45 0 -79 -22t-205 -238
t-245 -315q8 -10 216 -333t227 -339q61 -55 135 -55h68q16 0 16 -15v-49q0 -16 -16 -16l-261 6l-288 -6q-16 0 -17 14v51z" />
    <glyph glyph-name="Y" unicode="Y" horiz-adv-x="1361" 
d="M1208 1450l185 6q16 0 16 -12v-49q0 -18 -16 -19h-52q-53 0 -97 -42t-488 -685v-268q0 -145 6 -213t26 -81t66 -13h80q14 0 14 -15v-47q0 -18 -14 -18l-277 6q-173 0 -219 -3t-55 -3q-8 0 -8 16v49q0 14 14 15h100q68 0 72 51q6 86 6 381v119q-27 53 -207 354t-221 349
t-104 48h-51q-14 0 -15 15v53q0 12 15 12l239 -6l305 6q14 0 15 -10v-51q0 -18 -15 -19h-67q-45 0 -57 -14t-7 -44q4 -30 322 -603q20 31 192 291t179 290q14 27 2 54t-70 26h-55q-14 0 -15 19v49q0 12 15 12z" />
    <glyph glyph-name="Z" unicode="Z" horiz-adv-x="1437" 
d="M1321 1462q55 0 7 -56q-24 -28 -484 -658t-488 -674h721q49 31 148 140q98 110 139 163q8 8 18 4l29 -16q10 -6 -3 -32q-14 -26 -70 -163t-65 -169t-30 -32q-4 0 -10 1q-7 1 -19 3t-22 4q-176 23 -633 23h-432q-39 0 -39 16q0 27 12 39q70 82 511 691t458 638h-555
q-41 0 -77 -30t-130 -144q-94 -115 -125 -163q-6 -10 -18 -3l-27 13q-8 6 -4 18l129 369q8 23 25 22q9 0 73 -8t523 -8l221 6q111 6 217 6z" />
    <glyph glyph-name="bracketleft" unicode="[" horiz-adv-x="724" 
d="M207 1530h420q12 0 12 -12v-50q0 -16 -16 -16h-277q-20 0 -20 -22v-1678q0 -29 14 -28h303q16 0 16 -19v-43q0 -16 -18 -16h-432q-23 0 -23 22v1843q1 19 21 19z" />
    <glyph glyph-name="backslash" unicode="\" horiz-adv-x="716" 
d="M709 0l-76 -31q-6 -2 -12 3t-13 22l-604 1438q-6 16 4 20l78 33q12 6 20 -10l607 -1450q8 -21 -4 -25z" />
    <glyph glyph-name="bracketright" unicode="]" horiz-adv-x="724" 
d="M516 -354h-432q-18 0 -18 16v43q0 18 16 19h305q12 0 12 24v1682q0 23 -18 22h-279q-16 0 -16 16v50q0 12 12 12h420q20 0 21 -19v-1843q0 -22 -23 -22z" />
    <glyph glyph-name="asciicircum" unicode="^" 
d="M47 532l432 867h66l434 -867h-133l-336 672h-10l-326 -672h-127z" />
    <glyph glyph-name="underscore" unicode="_" 
d="M0 -256v102h1024v-102h-1024z" />
    <glyph glyph-name="grave" unicode="`" horiz-adv-x="684" 
d="M128 1323q46 0 87 -51l197 -244q4 -8 -2 -10l-25 -23q-6 -6 -12 0l-271 193q-52 41 -36 88t62 47z" />
    <glyph glyph-name="a" unicode="a" horiz-adv-x="874" 
d="M539 199v252q-13 -11 -97 -51t-131 -90t-47 -116t30 -94q70 -68 184 16q61 44 61 83zM688 678v-434q0 -154 62 -154q49 0 71 31q12 14 21 8l20 -16q12 -12 -2 -37q-53 -100 -160 -101q-55 0 -93 37t-52 101h-4q-68 -80 -203 -125q-39 -12 -121 -13q-45 0 -84 41t-39 129
q0 158 200 246t237 121v131q-10 94 -29 115q-39 45 -124 45t-132 -43q-21 -21 -16 -53q6 -32 6 -41q0 -117 -109 -117q-49 0 -49 57q0 56 39 110t102 91q121 72 237 72t177 -56q45 -45 45 -145z" />
    <glyph glyph-name="b" unicode="b" horiz-adv-x="1032" 
d="M295 440q0 -215 31 -297q16 -39 73 -71t121 -31q109 0 192 84t83 256t-81 286t-215 114t-204 -74v-267zM147 348v756q0 100 -19 136t-77 54l-20 6q-27 8 -27 17v16q0 8 16 17q137 62 191 96t71 34t15 -24q-2 -26 -2 -442v-238q49 47 127 75t156 28q147 0 261 -116
q113 -117 113 -311t-127 -335t-290 -141t-250 53l-82 -45q-12 -8 -27 -7l-24 7q-10 2 -8 24t3 340z" />
    <glyph glyph-name="c" unicode="c" horiz-adv-x="841" 
d="M467 813q-96 0 -169 -84q-73 -85 -73 -243t105 -302q80 -104 223 -104q76 0 124 19t101 69q8 8 17 0l20 -21q12 -12 0 -26q-49 -57 -141 -101t-189 -45q-203 0 -317 144q-92 123 -92 295t122 318t317 146t263 -121q14 -26 15 -44q-4 -72 -74 -72t-115 82q-31 57 -61 74
q-31 16 -76 16z" />
    <glyph glyph-name="d" unicode="d" horiz-adv-x="1067" 
d="M743 246v352q0 68 -18 100q-57 111 -215 111q-115 0 -186 -74q-94 -102 -94 -269t90 -285q92 -118 181 -118t151 35t79 78q12 37 12 70zM891 784v-452q0 -160 20 -187q27 -31 77 -33t54 -16l5 -16q2 -16 -15 -23l-231 -77q-20 -6 -27 16l-26 90q-50 -49 -136 -80
t-150 -31t-90 2q-24 2 -73 25q-49 22 -109 82t-88 134q-27 74 -26 183q0 205 143 349q121 129 305 129q117 0 219 -31v399q0 61 -22 84q-23 23 -107 37q-14 2 -14 14v35q0 11 30 17t112 21q83 15 100 20l47 6q14 0 10 -37q-8 -137 -8 -660z" />
    <glyph glyph-name="e" unicode="e" horiz-adv-x="872" 
d="M561 606q55 0 55 31q0 86 -58 142q-38 38 -104 38t-124 -51q-57 -51 -86 -160h317zM741 545h-505q-6 -29 -7 -99q0 -150 84 -250t207 -102q88 0 154 41t94 98q6 14 18 11l27 -15q12 -4 0 -30q-37 -82 -121 -153t-205 -71q-221 0 -321 146q-54 79 -72 147t-18 176
q0 197 129 326q106 109 293 109q214 0 285 -221q15 -46 16 -80q-1 -33 -58 -33z" />
    <glyph glyph-name="f" unicode="f" horiz-adv-x="634" 
d="M51 53q0 14 21 15h98q27 0 37 16t12 55v617h-141q-14 0 -10 22l8 62q2 14 24 14h119v39q0 270 137 426q147 162 336 162q78 0 132 -30t54 -75q0 -46 -29 -72t-59 -26t-52 12t-57 53q-34 41 -89 41q-165 0 -206 -199q-17 -83 -18 -131t-1 -159v-41h247q20 0 15 -20
l-11 -68q-2 -10 -26 -10h-225v-183q0 -429 3 -455t12 -38t40 -12h117q23 0 22 -17v-33q0 -25 -14 -24q-2 0 -31 1l-87 3q-58 2 -128 2l-233 -6q-16 0 -17 14v45z" />
    <glyph glyph-name="g" unicode="g" horiz-adv-x="993" 
d="M504 -492q102 0 206 54t99 157q0 97 -75 153t-222 46l-197 -14q-57 -14 -110 -68t-53 -129q0 -37 23 -78q53 -87 167 -109q60 -12 162 -12zM434 293q94 0 139 91t45 211t-55 181q-45 45 -98 45q-88 0 -146 -57q-74 -78 -73 -242q0 -109 65 -178q53 -51 123 -51zM457 -557
q-208 0 -324 65q-104 63 -104 166q0 78 64 143q65 65 151 103v8q-62 14 -100 56t-38 98t58 108t127 76v4q-76 33 -133 111q-58 78 -58 196q0 117 94 209t256 92q161 0 259 -118q113 80 192 80q47 0 74 -27t22 -59q-1 -31 -23 -54q-22 -22 -58 -22t-70 31q-30 18 -56 18
t-53 -12q31 -76 31 -156q0 -131 -76 -221q-40 -43 -112 -73q-117 -48 -230 -19q-41 -16 -75 -46q-53 -47 -26 -104q20 -39 110 -39q34 0 56 1l66 3q243 11 345 -67t108 -203q0 -150 -134 -249t-343 -99z" />
    <glyph glyph-name="h" unicode="h" horiz-adv-x="1103" 
d="M53 51q0 16 31 17h43q61 0 68 32q6 40 6 398v618q1 90 -19 121t-80 51l-34 12q-14 4 -15 13v18q0 6 25 21l213 112q33 16 47 17q22 0 16 -52t-6 -552v-132h10q51 61 130 97t151 37q119 0 203 -82q43 -41 63 -97q21 -56 23 -92q2 -35 2 -112v-117l4 -281q0 -31 76 -30h34
q23 0 23 -19v-31q0 -25 -16 -24l-197 6l-192 -6q-18 0 -19 22v35q0 16 14 17h48q76 0 77 38v369q0 97 -13 155t-63 106t-126 48q-115 0 -191 -86q-41 -49 -41 -100v-446q0 -52 8 -68t37 -16h62q23 0 22 -17v-35q0 -23 -16 -22l-195 6l-198 -6q-14 0 -15 20v37z" />
    <glyph glyph-name="i" unicode="i" horiz-adv-x="546" 
d="M238 1114q-48 0 -84 31t-37 74q0 43 34 75t87 33q54 0 82 -31q28 -30 28 -72t-31 -76t-79 -34zM53 51q0 16 21 17h100q31 0 33 51t2 176v301q0 57 -22 84t-93 39q-18 2 -18 14v19q0 8 14 14q122 48 184 80t76 32t10 -29q-4 -30 -4 -329v-223q0 -154 2 -176q6 -53 33 -53
h94q20 0 21 -19v-35q0 -20 -19 -20l-196 6l-221 -6q-16 0 -17 16v41z" />
    <glyph glyph-name="j" unicode="j" horiz-adv-x="503" 
d="M238 1114q-50 0 -88 33t-39 82q0 49 39 90t89 41t87 -33q36 -33 36 -86t-37 -90t-87 -37zM199 150v405q-1 67 -19 93t-82 50l-20 9q-12 4 -12 14v18q0 6 16 17q106 33 221 108q18 14 39 15q18 0 11 -36t-7 -347v-256q0 -309 -31 -465t-127 -244t-221 -88q-49 0 -84 27
q-35 28 -35 62t22 64t52 29q59 0 117 -63q29 -31 47 -31q88 0 100 165t13 454z" />
    <glyph glyph-name="k" unicode="k" horiz-adv-x="1015" 
d="M57 49q0 18 21 19h76q37 0 36 49q5 180 5 381v678q-1 70 -19 98t-68 42q-50 13 -49 19v19q0 10 27 20l209 90q37 16 48 16t5 -66t-6 -613v-324q70 0 98 23q27 18 115 111t104 122t-1 41t-54 12q-16 0 -16 19v39q0 16 14 16l191 -6q101 0 131 3t34 3q12 0 13 -20v-37
q0 -16 -17 -17h-14q-70 0 -141 -47q-51 -29 -271 -241q385 -385 420 -402q57 -29 107 -28q16 0 16 -19v-37q0 -18 -18 -18l-170 6l-224 -6q-14 0 -14 20v33q0 16 21 16h14q12 -1 19 9t3 22t-123 140q-120 128 -149 157q-27 23 -88 23v-90q0 -141 2 -213q4 -43 41 -43h59
q18 0 19 -17v-35q0 -23 -17 -22l-182 6l-196 -6q-10 0 -11 20v35z" />
    <glyph glyph-name="l" unicode="l" horiz-adv-x="524" 
d="M25 14v35q0 18 26 19h99q43 0 45 57t2 528v129q-1 304 -5 370t-28 94q-25 28 -76 44l-41 15q-12 4 -12 10v16q0 8 18 15q189 88 227 111t56 24q18 0 16 -37q-8 -450 -8 -651v-183q0 -416 3 -479t52 -63h93q23 0 22 -19v-35q0 -20 -12 -20l-232 6l-231 -6q-14 0 -14 20z
" />
    <glyph glyph-name="m" unicode="m" horiz-adv-x="1650" 
d="M641 14v33q0 12 3 16t18 5h59q45 -1 45 34v422q0 164 -61 221q-41 37 -132 37q-123 0 -196 -118q-29 -47 -29 -138v-405q0 -53 41 -53h74q12 0 16 -3t4 -16v-33q0 -23 -16 -22l-186 6l-191 -6q-16 0 -16 18v37q0 11 4 15t20 4h70q29 0 31 43t2 114v365q0 74 -58 104
l-43 23q-14 8 -14 16v17q0 10 12 16l181 92q25 12 41 12t16 -28l8 -119h6q47 66 131 111t170 45q162 0 232 -158h10q49 66 132 112t187 46t166 -62q35 -37 49 -54q13 -17 31 -71t19 -127v-456q0 -41 43 -41h55q23 0 22 -19v-35q0 -20 -14 -20l-170 6l-190 -6q-16 0 -17 20
v35q0 18 27 19h51q39 0 42 42t3 162v303q0 117 -57 162t-154 45q-47 0 -100 -32t-80 -80q-27 -49 -27 -201v-354q0 -47 41 -47h70q23 0 22 -19v-33q0 -23 -14 -22l-182 6l-193 -6q-14 0 -14 20z" />
    <glyph glyph-name="n" unicode="n" horiz-adv-x="1089" 
d="M80 12v37q0 18 20 19h60q24 0 32 8t9 33v479q0 80 -84 121l-17 8q-16 6 -16 18v10q0 12 18 21l177 98q29 14 36 15q12 0 17 -25l14 -125h4q47 59 127 105t170 45q160 0 236 -137q35 -62 35 -103v-528q0 -43 45 -43h65q23 0 23 -19v-33q0 -23 -17 -22l-194 6l-185 -6
q-16 0 -16 22v33q0 18 27 19h59q39 0 41 47q4 106 4 172v270q0 94 -15 129q-39 92 -194 92q-90 0 -166 -80q-47 -51 -47 -139v-424q0 -43 9 -55t40 -12h52q20 0 20 -21v-35q0 -18 -14 -18l-179 6l-182 -6q-14 0 -14 18z" />
    <glyph glyph-name="o" unicode="o" horiz-adv-x="1019" 
d="M512 37q121 0 193 120q71 119 71 283t-90 270t-183 107q-93 0 -153 -63q-60 -64 -86 -136q-24 -72 -24 -176t15 -168t62 -131q74 -106 195 -106zM948 436q0 -182 -134 -322t-322 -139q-188 0 -308 142q-68 81 -90 151t-22 168q1 207 176 344q127 98 274 99q80 0 159 -35
t128 -84q139 -142 139 -324z" />
    <glyph glyph-name="p" unicode="p" horiz-adv-x="1052" 
d="M549 784q-140 0 -219 -131v-448q0 -80 43 -109q77 -55 191 -55t182 83q68 84 69 272q0 188 -77 288t-189 100zM29 -545v37q0 18 24 19h80q25 0 32 12t12 48t5 347v662q0 38 -15 62t-58 48l-48 27q-14 6 -14 18v17q0 8 14 14l197 98q33 16 47 17q14 0 14 -41l9 -99h6
q106 137 299 138q125 0 233 -101q59 -59 85 -131t26 -188q0 -203 -126 -343t-316 -141q-121 0 -205 35v-432q0 -41 10 -54t35 -13h90q18 0 18 -21v-35q0 -18 -18 -18l-27 2l-184 4l-207 -6q-18 0 -18 18z" />
    <glyph glyph-name="q" unicode="q" horiz-adv-x="1040" 
d="M504 813q-123 0 -197 -114t-74 -214q1 -100 21 -171q20 -72 38 -100t50 -69q74 -86 180 -86q68 0 127 27t90 66v473q-10 96 -85 142t-150 46zM580 -545v41q0 14 22 15h84q43 0 48 37t5 475v51h-4q-133 -98 -277 -98t-252 80q-58 44 -94 134t-36 199t47 217t127 174
q113 98 270 99q104 0 244 -45l108 45q12 4 19 -2l18 -15q6 -6 0 -32q-22 -95 -22 -437v-467q0 -217 10 -356q4 -59 43 -59h64q20 0 20 -13v-45q0 -16 -14 -16l-199 6l-215 -6q-16 0 -16 18z" />
    <glyph glyph-name="r" unicode="r" horiz-adv-x="698" 
d="M49 14v35q0 18 23 19h80q45 0 45 38q2 68 2 246v193q-1 75 -15 103t-59 52l-39 21q-16 6 -16 14v13q0 10 16 18l203 104q16 8 28 9q14 0 15 -25l10 -141h8q49 76 116 127t123 51t84 -27q27 -28 27 -66t-28 -68t-56 -30t-58 16t-71 17q-76 0 -120 -86q-20 -37 -21 -65
v-430q0 -48 12 -66t45 -18h97q14 0 14 -19v-37q0 -18 -10 -18l-217 6l-226 -6q-12 0 -12 20z" />
    <glyph glyph-name="s" unicode="s" horiz-adv-x="729" 
d="M343 -25q-130 0 -210 60q-8 4 -12 28l-35 195q-2 12 12 16l27 7q12 2 18 -13l52 -100q25 -47 41 -69q42 -58 120 -58t128 36q50 35 50 105t-42 113q-43 43 -156 74q-242 70 -242 260q0 104 85 177t195 73t195 -43q33 -16 37 -37l31 -144q0 -12 -14 -18l-25 -8
q-10 -2 -18 10l-70 94q-51 80 -143 80q-63 0 -111 -36t-47 -85q0 -79 35 -115t160 -70t185 -92t60 -175t-88 -191t-218 -74z" />
    <glyph glyph-name="t" unicode="t" horiz-adv-x="653" 
d="M199 487q0 88 4 261h-125q-31 0 -31 24q0 14 39 38t126 116t105 141q9 20 29 20t21 -30l-11 -203h285q23 0 14 -18l-20 -72q-4 -16 -19 -16h-264q-6 -142 -6 -287v-205q0 -102 34 -141t73 -39q94 0 135 26q14 8 24 -4l11 -18q8 -10 -12 -30t-80 -48t-137 -27
q-77 -1 -139 57t-62 118l6 292v45z" />
    <glyph glyph-name="u" unicode="u" horiz-adv-x="1036" 
d="M854 567v-151q0 -199 4 -242q6 -72 51 -72t67 6t28 -8l6 -26q2 -14 -11 -19l-215 -71q-25 -8 -41 -9q-16 0 -18 25l-16 119h-4q-43 -61 -123 -103t-156 -41q-122 -1 -186 85t-75 152t-11 259v238q-2 41 -20 57t-61 19q-42 3 -42 16v37q0 16 22 16h183q12 0 28 4l23 2
q27 0 22 -24q-8 -74 -8 -236v-145q0 -9 -2 -67t0 -86q17 -234 211 -232q39 0 92 32q103 61 105 125v488q-2 39 -24 53t-66 16t-44 17v35q1 12 5 15t20 3h190q14 0 35 4l25 2q23 0 18 -20q-12 -111 -12 -273z" />
    <glyph glyph-name="v" unicode="v" horiz-adv-x="886" 
d="M0 860l153 -6q85 0 144 2l59 4q20 0 21 -16v-37q0 -20 -15 -21h-40q-37 0 -38 -58t87 -284q88 -227 102 -256h6q176 428 198 513t-38 85h-41q-8 0 -8 21v37q0 16 12 16l164 -6l147 6q11 0 15 -3t4 -15v-35q0 -20 -10 -21h-39q-41 0 -63 -20t-78 -138t-110 -249t-161 -363
q-27 -47 -51 -47t-41 43q-114 289 -162 421q-80 224 -108 289q-28 64 -78 64h-41q-12 0 -13 21v37q0 16 23 16z" />
    <glyph glyph-name="w" unicode="w" horiz-adv-x="1404" 
d="M936 834v-43q0 -16 -14 -17h-43q-15 0 -25 -15t-4 -38l156 -498h8l166 451q18 53 9 83t-40 29h-29q-12 0 -12 17v43q0 14 14 14l158 -6l150 6q14 0 14 -14v-43q0 -16 -14 -17h-52q-43 0 -60 -26t-317 -764q-11 -27 -37 -27t-38 39l-201 584h-10l-252 -590
q-14 -33 -43 -33q-20 0 -35 41l-268 721q-20 55 -86 55h-45q-14 0 -15 19v39q0 16 13 16l186 -6l172 6q16 0 16 -16v-41q0 -16 -16 -17h-18q-43 0 -25 -55l162 -543h8l209 500q-6 50 -20 68t-54 18h-31q-14 0 -14 14v43q0 16 19 17l184 -6l156 6q18 0 18 -14z" />
    <glyph glyph-name="x" unicode="x" horiz-adv-x="897" 
d="M502 12v35q0 20 16 21h31q18 0 23 19t-11 46l-147 236q-4 -6 -84 -115t-91 -133t-6 -39q6 -14 25 -14h43q10 -1 10 -17v-41q0 -16 -14 -16l-53 2q-52 4 -102 4t-85 -1t-53 -3t-24 -2q-18 0 -19 18v37q0 18 16 19h54q59 0 90 28t258 324q-162 250 -242 338q-23 29 -74 28
h-57q-14 0 -14 15v41q0 18 16 18l168 -6l191 6q12 0 12 -18v-39q0 -16 -12 -17h-19q-26 0 -26 -20t18 -49l127 -201l156 205q14 18 8 42t-31 23h-25q-12 0 -12 15v43q0 16 10 16l54 -4q53 -2 107 -2t78 1q26 1 38 3t16 2q18 0 19 -20v-37q0 -16 -17 -17h-32q-49 0 -83 -26
t-249 -295q178 -264 254 -354q37 -43 90 -43h33q10 0 10 -17v-41q0 -16 -14 -16l-158 6l-201 -6q-16 0 -16 18z" />
    <glyph glyph-name="y" unicode="y" horiz-adv-x="892" 
d="M942 844v-39q0 -18 -10 -19h-33q-43 0 -78 -44t-277 -592t-257 -578q-26 -47 -61 -88t-101 -41q-67 0 -97 29q-30 28 -30 68t29 64t64 23t62 -10q27 -10 43 -13t33 13q20 27 80 155q59 128 84 195q-6 33 -115 360q-110 327 -126 365t-26 54q-28 40 -73 40h-53
q-16 0 -16 19v41q0 14 16 14q4 0 38 -3t150 -3l191 6q18 0 18 -14v-43q0 -16 -12 -17h-39q-33 0 -28 -40t79 -276t90 -269h9q16 27 109 249t102 259q18 78 -35 77h-33q-14 0 -14 17v41q0 16 12 16l168 -6l125 6q12 0 12 -16z" />
    <glyph glyph-name="z" unicode="z" horiz-adv-x="888" 
d="M387 0h-283q-37 0 -12 35l526 758h-217q-98 0 -148 -35t-173 -189q-12 -16 -23 -8l-26 12q-10 6 -4 21l135 287q33 -10 98 -19q100 -8 268 -8h283q14 0 20 -9t-2 -20l-542 -762h291q119 0 280 220q10 16 27 6l20 -15q12 -8 4 -20l-157 -279q-67 25 -365 25z" />
    <glyph glyph-name="braceleft" unicode="{" horiz-adv-x="724" 
d="M86 612q0 35 27 35q92 0 120 62q19 39 19 91t-36 195t-36 217q0 140 110 222t251 92q43 4 87 4t44 -29q0 -37 -25 -37q-157 0 -240 -78q-67 -61 -67 -162t16 -214t17 -164q0 -100 -58 -158q-31 -36 -49 -50q-18 -15 -18 -28q0 -12 8 -21t28 -29t35 -40q53 -57 54 -155
q-1 -41 -17 -159t-16 -214q0 -213 244 -273q35 -8 73 -8q15 0 15 -33t-15 -32q-240 0 -374 106q-43 35 -73 93t-30 132t37 209q35 147 35 195q0 129 -66 170q-29 18 -73 22q-27 4 -27 39z" />
    <glyph glyph-name="bar" unicode="|" horiz-adv-x="716" 
d="M403 -532h-86q-12 0 -12 20v2054q0 18 12 19h82q14 0 15 -25v-2048q-1 -20 -11 -20z" />
    <glyph glyph-name="braceright" unicode="}" horiz-adv-x="724" 
d="M639 604q0 -35 -31 -35q-30 0 -64 -11t-52 -50t-18 -88q0 -48 35 -190q36 -142 36 -226q0 -154 -111 -248t-252 -106q-41 -4 -85 -4t-44 30q0 35 25 35q43 0 65 2q106 12 174 87q68 76 68 182t-16 231t-17 158q0 98 56 157q20 24 45 45q24 22 24 36q-1 14 -29 40t-45 47
q-51 61 -51 156q0 29 17 152q16 123 16 192q0 112 -79 180q-80 68 -144 78t-90 10q-18 0 -19 33q0 33 17 33q39 0 95 -3t142 -31t162 -102t76 -184q0 -66 -36 -198t-36 -176q0 -129 66 -170q29 -18 71 -23q29 -4 29 -39z" />
    <glyph glyph-name="asciitilde" unicode="~" 
d="M799 633h108q0 -131 -59 -209t-134 -78t-179 68l-80 55q-70 45 -136 45q-35 0 -65 -40t-29 -124h-108q0 131 59 209t143 78t164 -49l86 -58q8 -4 50 -32t82 -29q40 0 69 40t29 124z" />
    <glyph glyph-name="uni00A0" unicode="&#xa0;" horiz-adv-x="520" 
 />
    <glyph glyph-name="exclamdown" unicode="&#xa1;" horiz-adv-x="520" 
d="M265 -557q-44 0 -74 30t-25 91q0 8 36 367t38 475q0 14 14 14h37q14 0 14 -21q2 -109 32 -455t30 -387q0 -42 -29 -78t-73 -36zM269 643q-46 0 -88 29t-42 79t31 89t87 39t91 -34t35 -86t-34 -84t-80 -32z" />
    <glyph glyph-name="cent" unicode="&#xa2;" 
d="M526 -31h-53q-14 0 -12 33l10 221q-174 19 -272 145q-99 126 -99 290t108 298q108 135 302 158l10 203q0 20 15 20h53q12 0 12 -28l-8 -189q209 -5 274 -121q14 -25 15 -43q-4 -66 -73 -66t-109 76q-40 75 -111 81l-33 -725q116 -17 181 9q65 27 120 81q8 8 16 0l21 -21
q12 -12 0 -26q-51 -57 -144 -101t-198 -45l-10 -221q-3 -29 -15 -29zM252 741q0 -125 27 -193q66 -166 198 -208l31 707q-106 -5 -181 -93t-75 -213z" />
    <glyph glyph-name="sterling" unicode="&#xa3;" 
d="M57 537h181q28 53 92 257q65 204 84 255q53 147 172 248q120 101 236 101t178 -47q62 -48 62 -86t-23 -60q-24 -22 -54 -23q-86 0 -123 75q0 15 -12 35q-24 40 -70 39q-141 1 -213 -283q-35 -138 -109 -308t-100 -203h287q18 0 19 -13v-47q0 -14 -21 -14h-319
q-47 -90 -142 -199l2 -4q150 14 236 -16t178 -135q61 -68 145 -68q31 0 57 20t36 43t5 30t-45 7q-40 1 -70 21t-30 47t24 53t78 27q54 0 97 -37t43 -97q0 -61 -67 -123t-201 -63q-168 0 -285 140q-88 106 -231 100q-104 -209 -193 -209q-37 0 -37 41t60 110t118 99
q18 18 56 92q37 74 53 121h-150q-18 0 -18 14v47q0 13 14 13z" />
    <glyph glyph-name="currency" unicode="&#xa4;" 
d="M279 688q0 -108 61 -186q62 -78 170 -78t176 73t68 191t-66 193q-66 73 -178 73t-171 -78q-60 -78 -60 -188zM503 340q-126 0 -210 74l-187 -187q-12 -14 -22 -4l-45 47q-8 12 4 25l188 184q-69 86 -69 215t84 213l-201 191q-8 8 2 20l39 41q10 12 20 2l205 -192
q78 69 209 69t205 -63l199 184q8 12 18 2l39 -41q10 -10 0 -22l-193 -183q35 -33 59 -94t25 -119q-6 -137 -81 -231l190 -178q12 -12 4 -23l-43 -49q-8 -8 -18 0l-203 185q-92 -66 -218 -66z" />
    <glyph glyph-name="yen" unicode="&#xa5;" 
d="M287 -6q-16 0 -17 16v49q0 14 15 15h96q45 0 45 51v252h-307q-20 0 -21 12v47q0 14 21 15h309v145h-311q-18 0 -19 16v43q0 14 21 15h307q-51 94 -179 314t-161 265q-35 45 -78 45h-43q-14 0 -14 15v51q0 14 14 14l199 -6l254 6q14 0 14 -10v-51q0 -18 -14 -19h-43
q-121 0 -82 -86q19 -48 121 -242t127 -233q246 422 264 477q29 84 -62 84h-53q-14 0 -14 19v47q0 14 16 14l209 -6q51 0 103 4l51 2q16 0 16 -12v-49q0 -18 -16 -19h-43q-40 0 -62 -28q-44 -58 -183 -293q-138 -235 -181 -303h284q23 0 23 -15v-47q0 -12 -25 -12h-293v-145
h295q23 0 23 -15v-47q0 -12 -21 -12h-294v-244q0 -37 13 -48t50 -11h80q16 0 16 -15v-47q0 -18 -16 -18l-213 6q-140 0 -178 -3t-43 -3z" />
    <glyph glyph-name="brokenbar" unicode="&#xa6;" horiz-adv-x="716" 
d="M395 666h-78q-12 0 -12 20v678q0 18 12 18h82q14 0 15 -24v-672q-1 -20 -19 -20zM324 358h77q12 0 13 -20v-676q0 -20 -19 -20h-78q-12 0 -12 20v676q1 20 19 20z" />
    <glyph glyph-name="section" unicode="&#xa7;" horiz-adv-x="1105" 
d="M274 780q0 -121 121 -221q72 -59 195 -148t139 -108q37 17 68 65t30 93q0 141 -143 241q-57 42 -131 90t-122 80t-83 76q-74 -47 -74 -168zM649 1481q97 0 157 -38t60 -82t-23 -64q-25 -19 -59 -19t-56 17t-56 69t-102 52q-66 1 -122 -53t-57 -123t15 -107q17 -43 61 -90
q43 -47 86 -72t91 -55t69 -42q238 -152 233 -339q2 -197 -174 -283q64 -76 64 -206t-97 -230q-94 -92 -258 -92q-102 0 -174 32t-71 84q0 35 22 59q23 24 55 23q61 0 105 -62t112 -62q66 0 121 39t55 131t-35 153q-36 61 -77 94t-125 91t-127 93q-180 143 -180 325t153 280
q-35 66 -35 173t68 183q67 76 136 98q69 23 165 23z" />
    <glyph glyph-name="dieresis" unicode="&#xa8;" horiz-adv-x="665" 
d="M505 1305q46 0 73 -28q26 -28 26 -70q0 -41 -26 -67t-64 -26q-37 0 -72 24q-34 24 -34 64t25 71q26 32 72 32zM158 1305q44 0 72 -28t28 -70q0 -41 -28 -67t-64 -26t-71 24q-34 24 -34 64t26 71q26 32 71 32z" />
    <glyph glyph-name="copyright" unicode="&#xa9;" horiz-adv-x="1689" 
d="M846 43q166 0 295 63q223 109 310 388q36 114 36 242t-42 244q-74 205 -248 316q-173 111 -351 111q-270 0 -456 -193t-185 -489q0 -143 41 -261q42 -118 108 -195q133 -154 323 -203q85 -23 169 -23zM854 1481q320 0 530 -211t211 -540q-1 -329 -207 -545t-543 -216
t-543 216t-206 539t218 540q220 217 540 217zM873 274q-220 0 -338 113q-137 137 -137 335t130 335q123 123 322 123q106 0 237 -66q20 -12 27 0l8 33q2 8 24 8t24 -3q4 -2 4 -40t32 -213q0 -12 -6 -12l-24 -6q-10 -4 -17 4q-47 94 -94 139q-94 94 -229 94t-213 -110
t-78 -246q6 -184 110 -294t240 -110q195 0 315 162q4 4 33 -18q8 -8 -2 -21q-148 -207 -368 -207z" />
    <glyph glyph-name="ordfeminine" unicode="&#xaa;" horiz-adv-x="675" 
d="M203 691q0 -34 18 -54q35 -39 118 1q46 21 60 44v176q-196 -67 -196 -167zM530 971v-211q0 -150 43 -150q29 0 48 35q2 10 14 8l27 -10q8 -1 2 -21t-42 -51t-94 -30q-90 0 -122 84h-3q-90 -74 -151 -80q-25 -4 -71 -4t-85 41t-39 86q0 106 162 176q84 37 180 69v76
q0 43 -28 84q-27 27 -82 27t-92 -33q-18 -18 -13 -38q4 -21 4 -28q0 -57 -86 -57q-27 0 -42 16t-15 41q0 61 107 119q100 45 193 45q93 -1 139 -39t46 -155z" />
    <glyph glyph-name="guillemotleft" unicode="&#xab;" horiz-adv-x="843" 
d="M718 774q3 0 9 -6l29 -29q6 -6 6 -11t-8 -13l-187 -281l189 -282q6 -10 6 -14t-6 -11l-31 -29l-6 -4q-2 0 -14 8l-320 320q-8 8 -8 12t10 15l320 317q8 8 11 8zM393 774q4 0 10 -6l29 -29q6 -6 6 -11t-8 -13l-186 -281l188 -282q6 -10 6 -14t-6 -11l-31 -29q-4 -4 -7 -4
t-15 8l-318 320q-8 8 -8 12t10 15l318 317q8 8 12 8z" />
    <glyph glyph-name="logicalnot" unicode="&#xac;" 
d="M115 596v115h794v-461h-123v346h-671z" />
    <glyph glyph-name="uni00AD" unicode="&#xad;" horiz-adv-x="827" 
d="M106 498v90q0 14 19 14h573q23 0 23 -22v-78q0 -14 -25 -15h-571q-19 -1 -19 11z" />
    <glyph glyph-name="registered" unicode="&#xae;" horiz-adv-x="1159" 
d="M580 606q201 0 300 123t99 281q0 106 -39 188t-101 127q-127 92 -259 90q-170 1 -285 -111t-115 -294q0 -297 266 -382q66 -22 134 -22zM584 1481q213 0 348 -131t135 -337t-133 -339t-355 -134t-355 133q-132 134 -132 336t139 337q140 135 353 135zM556 1020
q48 0 90 33t42 88t-52 89t-136 21v-229q8 -2 56 -2zM561 745h-213q-10 0 -10 9v18q0 8 6 8h18q24 0 34 8t10 35v396q-4 37 -46 36h-12q-6 0 -6 7v24q0 6 6 6l101 -4l139 4q109 0 160 -47q40 -33 40 -95t-43 -98q-43 -38 -98 -48v-5q39 -9 107 -131q48 -86 110 -88
q24 0 23 -6v-22q0 -6 -8 -7h-25q-25 2 -39 3l-84 -3q-16 12 -35 43q-38 54 -60 96t-50 70q-23 31 -54 31h-32v-39q0 -123 2 -135q4 -31 26 -31h33q6 0 6 -6v-22q0 -6 -6 -7z" />
    <glyph glyph-name="macron" unicode="&#xaf;" horiz-adv-x="608" 
d="M61 1063v65q0 14 17 15h450q18 0 19 -15v-65q0 -14 -23 -14h-446q-17 0 -17 14z" />
    <glyph glyph-name="degree" unicode="&#xb0;" horiz-adv-x="614" 
d="M308 1415q-54 0 -96 -40t-42 -101q0 -60 42 -104t95 -44t96 43t43 105t-42 101q-42 40 -96 40zM80 1270q0 90 64 150t168 61t164 -57t60 -148t-62 -152q-64 -62 -168 -61q-104 0 -166 58q-60 59 -60 149z" />
    <glyph glyph-name="plusminus" unicode="&#xb1;" 
d="M115 133h794v-115h-794v115zM575 301h-122v291h-338v115h338v280h122v-280h334v-115h-334v-291z" />
    <glyph glyph-name="twosuperior" unicode="&#xb2;" horiz-adv-x="686" 
d="M301 1559q-106 0 -182 -99q-10 -16 -23 -10l-26 14q-6 2 -4 15q25 61 94 123q70 61 175 61t173 -55t67 -160q0 -143 -161 -313q-121 -129 -217 -201v-4h227q55 0 87 20t58 60q10 14 35 6t17 -27l-84 -182q-3 -12 -25 -12t-32 14t-64 14h-289l-117 -4q-8 -1 -11 13t5 20
q172 141 281 260q150 162 149 295q0 76 -42 114t-91 38z" />
    <glyph glyph-name="threesuperior" unicode="&#xb3;" horiz-adv-x="686" 
d="M47 908q0 28 15 48t44 21t50 -45l8 -23q32 -41 110 -41t129 52t51 120t-48 124q-49 56 -123 69q-29 6 -29 29q4 20 22 22q57 4 105 50q47 46 47 104t-35 95q-35 38 -86 38q-119 0 -162 -119q-6 -18 -20 -14l-27 6q-12 2 -8 20q16 80 76 140t172 59q112 0 162 -52t51 -110
q0 -131 -145 -215q72 -14 131 -74t59 -137q0 -121 -95 -195t-239 -75q-80 0 -131 17t-68 38q-16 20 -16 48z" />
    <glyph glyph-name="acute" unicode="&#xb4;" horiz-adv-x="675" 
d="M551 1323q45 0 60 -46t-40 -89l-268 -193q-6 -6 -12 0l-25 21q-6 6 0 12l197 244q43 51 88 51z" />
    <glyph glyph-name="mu" unicode="&#xb5;" horiz-adv-x="1064" 
d="M313 463q0 -229 27 -289q49 -104 162 -104q53 0 108 32t88 78q21 24 21 53v441l-8 143q0 37 22 37h103q39 0 38 -27l-8 -260v-151q0 -199 2 -242q2 -94 56 -94q41 0 62 19t30 1l12 -22q6 -12 -10 -25q-78 -78 -172 -78t-125 154h-4q-43 -66 -122 -110t-162 -44t-138 84
h-4q0 -198 11 -380q11 -183 11 -193t-20 -16l-109 -27q-18 0 -18 12l-2 1118q0 70 -4 156l-2 86q0 39 26 39h105q29 0 28 -39l-4 -225v-127z" />
    <glyph glyph-name="paragraph" unicode="&#xb6;" horiz-adv-x="1177" 
d="M733 -248q0 -29 -14 -28h-51q-14 0 -15 32v727q-551 35 -551 475q0 290 215 398q109 54 245 74t331 20h194q23 0 23 -14v-35q0 -16 -25 -17h-120v-1644q0 -16 -15 -16h-51q-14 0 -14 30v1626q-74 0 -152 -10v-1618z" />
    <glyph glyph-name="periodcentered" unicode="&#xb7;" horiz-adv-x="520" 
d="M268 608q-47 0 -88 29t-41 80t30 89t87 38t91 -34t34 -86t-33 -84t-80 -32z" />
    <glyph glyph-name="cedilla" unicode="&#xb8;" horiz-adv-x="667" 
d="M416 -279q0 -90 -102 -147t-212 -57q-41 0 -41 41q-1 28 61 28t117 31q54 31 54 84q0 80 -135 104l159 195h91l-119 -139q51 -15 89 -55t38 -85z" />
    <glyph glyph-name="onesuperior" unicode="&#xb9;" horiz-adv-x="686" 
d="M428 961q0 -47 15 -59t79 -13h47q12 0 13 -12v-50q0 -10 -15 -10l-213 6l-215 -6q-14 0 -14 10v54q0 8 18 8h60q63 0 78 11q14 11 16 56l2 250v62q0 78 -4 172q-4 49 -31 49q-18 0 -53 -12l-80 -33q-16 -8 -20 -2l-23 41q-4 6 8 12l283 154q27 14 37 14q16 0 16 -18
l-4 -361v-323z" />
    <glyph glyph-name="ordmasculine" unicode="&#xba;" horiz-adv-x="757" 
d="M190 899q0 -147 52 -222t137 -75q86 0 134 64t48 178t-54 187t-123 73t-116 -37q-78 -61 -78 -168zM715 860q0 -141 -98 -230q-97 -89 -247 -89t-251 100q-76 80 -76 218t101 222q102 84 244 84t233 -78q94 -86 94 -227z" />
    <glyph glyph-name="guillemotright" unicode="&#xbb;" horiz-adv-x="843" 
d="M451 94q-4 0 -11 6l-28 27q-6 6 -6 11t8 14l186 282l-188 281q-6 8 -6 13t6 11l30 31q4 4 8 4t15 -10l317 -318q8 -8 8 -12t-10 -14l-317 -318q-8 -8 -12 -8zM125 94q-4 0 -10 6l-27 27q-6 6 -6 11t8 14l186 282l-188 281q-6 8 -6 13t6 11l29 31q4 4 8 4t14 -10l320 -318
q8 -8 8 -12t-10 -14l-320 -318q-8 -8 -12 -8z" />
    <glyph glyph-name="onequarter" unicode="&#xbc;" horiz-adv-x="1519" 
d="M389 696q0 -47 15 -59t79 -12h47q12 0 13 -13v-49q0 -10 -15 -10l-213 6l-215 -6q-14 0 -14 10v53q0 8 18 9h60q63 0 78 11q14 11 16 56l2 250v62q0 78 -4 172q-4 49 -31 49q-20 0 -53 -13l-80 -32q-16 -8 -20 -2l-23 41q-4 6 8 12l283 153q27 14 37 15q16 0 16 -19
l-4 -360v-324zM382 -31q-7 1 -36 17t-29 24t11 25l831 1347q8 16 17 17q8 -1 38 -17t29 -22q0 -6 -8 -21l-832 -1343q-14 -27 -21 -27zM1186 311v291q0 16 -9 20t-20 -8l-231 -270q-27 -33 8 -33h252zM1290 0h-88q-16 0 -16 20v195h-395q-19 -1 -19 19t14 34l457 547
q25 25 37 25q31 0 31 -47v-482h133q14 0 14 -18v-62q0 -16 -20 -16h-127v-192q-1 -23 -21 -23z" />
    <glyph glyph-name="onehalf" unicode="&#xbd;" horiz-adv-x="1519" 
d="M375 696q0 -47 15 -59t79 -12h47q12 0 12 -13v-49q0 -10 -14 -10l-213 6l-215 -6q-14 0 -14 10v53q0 8 18 9h60q63 0 77 11t17 56l2 250v62q0 78 -4 172q-4 49 -31 49q-18 0 -53 -13l-80 -32q-16 -8 -21 -2l-22 41q-4 6 8 12l283 153q27 14 36 15q16 0 17 -19l-4 -360
v-324zM813 7q0 11 8 18q213 190 281 264q150 162 149 295q0 76 -42 114t-91 37q-106 0 -182 -98q-10 -16 -23 -10l-26 14q-6 2 -4 14q25 61 94 123q70 62 175 62t173 -56t68 -159q0 -143 -162 -314q-121 -129 -217 -200v-5h227q55 0 87 20t58 60q10 14 35 6t17 -26l-84 -182
q-4 -12 -26 -12t-30 14q-10 14 -65 14h-289l-117 -4q-14 0 -14 11zM337 -31q-7 1 -36 17t-29 24t11 25l831 1347q8 16 16 17q8 -1 38 -17t30 -22t-8 -21l-832 -1343q-14 -27 -21 -27z" />
    <glyph glyph-name="threequarters" unicode="&#xbe;" horiz-adv-x="1519" 
d="M1165 311v291q0 16 -9 20t-19 -8l-232 -270q-27 -33 8 -33h252zM1270 0h-88q-16 0 -17 20v195h-395q-18 -1 -18 19t14 34l457 547q25 25 37 25q31 0 30 -47v-482h133q14 0 15 -18v-62q0 -16 -21 -16h-127v-192q0 -23 -20 -23zM53 644q-1 28 15 48t45 21t47 -45l10 -23
q33 -41 111 -41t129 51t51 120t-49 125t-123 69q-29 6 -29 28q4 20 23 23q57 4 104 50t47 104t-35 95q-35 38 -86 38q-119 0 -161 -119q-6 -18 -21 -14l-27 6q-12 2 -8 20q16 80 76 139t172 59t162 -51q50 -52 51 -110q0 -131 -145 -215q72 -14 131 -74t59 -137
q0 -121 -95 -196t-239 -74q-80 0 -131 17t-67 38q-16 20 -17 48zM378 -31q-7 1 -36 17t-29 24t11 25l831 1347q8 16 16 17q8 -1 38 -17t30 -22t-8 -21l-832 -1343q-14 -27 -21 -27z" />
    <glyph glyph-name="questiondown" unicode="&#xbf;" horiz-adv-x="757" 
d="M480 659q-48 0 -81 31t-33 78t31 79t79 32t83 -34t35 -77t-33 -76t-81 -33zM541 -557q-135 0 -309 178t-173 356q0 114 55 162q55 47 87 59q33 11 50 16q58 17 183 17q16 0 17 17v219q0 14 14 14h39q14 0 14 -14v-387q0 -25 -28 -19q-28 7 -99 7q-72 0 -117 -12t-87 -52
q-42 -39 -42 -98q0 -98 111 -185q74 -61 122 -79t112 -18t107 -31q42 -30 42 -67q-1 -37 -31 -60t-67 -23z" />
    <glyph glyph-name="Agrave" unicode="&#xc0;" horiz-adv-x="1521" 
d="M838 1604l-25 -29q-6 -6 -16 0l-342 168q-59 31 -60 82q0 29 22 51q50 49 136 -21l285 -233q8 -8 0 -18zM717 1276q-9 0 -25 -40t-112 -300t-105 -293h453q-61 205 -195 604q-12 29 -16 29zM950 59q0 14 19 15h51q43 0 57 17t4 61q-31 134 -129 417h-503
q-17 -47 -77 -212t-67 -193q-6 -43 -6 -45q0 -45 70 -45h96q20 0 20 -15v-47q0 -18 -16 -18l-233 6q-138 0 -177 -3t-47 -3q-14 0 -14 16v49q0 14 16 15h72q45 0 71 22t45 64q19 43 103 260q83 218 105 280t114 308t104 286t0 58q-13 20 -14 28q0 12 19 19q41 8 96 43t74 59
q18 18 26 19q13 0 27 -48t114 -344t127 -388q27 -93 103 -311t98 -263q47 -92 140 -92h67q16 0 17 -15v-51q0 -14 -21 -14l-246 6l-288 -6q-16 0 -17 18v47z" />
    <glyph glyph-name="Aacute" unicode="&#xc1;" horiz-adv-x="1521" 
d="M1021 1896q31 0 53 -22t22 -49q0 -51 -60 -82l-344 -168q-8 -6 -14 0l-25 33q-8 8 4 16l281 231q51 41 83 41zM717 1276q-9 0 -25 -40t-112 -300t-105 -293h453q-61 205 -195 604q-12 29 -16 29zM950 59q0 14 19 15h51q43 0 57 17t4 61q-31 134 -129 417h-503
q-17 -47 -77 -212t-67 -193q-6 -43 -6 -45q0 -45 70 -45h96q20 0 20 -15v-47q0 -18 -16 -18l-233 6q-138 0 -177 -3t-47 -3q-14 0 -14 16v49q0 14 16 15h72q45 0 71 22t45 64q19 43 103 260q83 218 105 280t114 308t104 286t0 58q-13 20 -14 28q0 12 19 19q41 8 96 43t74 59
q18 18 26 19q13 0 27 -48t114 -344t127 -388q27 -93 103 -311t98 -263q47 -92 140 -92h67q16 0 17 -15v-51q0 -14 -21 -14l-246 6l-288 -6q-16 0 -17 18v47z" />
    <glyph glyph-name="Acircumflex" unicode="&#xc2;" horiz-adv-x="1521" 
d="M1036 1577l-262 117l-244 -117q-14 -6 -20 0l-16 20q-4 8 6 19l252 227q24 19 28 19t27 -19l260 -229q8 -8 2 -17l-14 -18q-7 -8 -19 -2zM717 1276q-9 0 -25 -40t-112 -300t-105 -293h453q-61 205 -195 604q-12 29 -16 29zM950 59q0 14 19 15h51q43 0 57 17t4 61
q-31 134 -129 417h-503q-17 -47 -77 -212t-67 -193q-6 -43 -6 -45q0 -45 70 -45h96q20 0 20 -15v-47q0 -18 -16 -18l-233 6q-138 0 -177 -3t-47 -3q-14 0 -14 16v49q0 14 16 15h72q45 0 71 22t45 64q19 43 103 260q83 218 105 280t114 308t104 286t0 58q-13 20 -14 28
q0 12 19 19q41 8 96 43t74 59q18 18 26 19q13 0 27 -48t114 -344t127 -388q27 -93 103 -311t98 -263q47 -92 140 -92h67q16 0 17 -15v-51q0 -14 -21 -14l-246 6l-288 -6q-16 0 -17 18v47z" />
    <glyph glyph-name="Atilde" unicode="&#xc3;" horiz-adv-x="1521" 
d="M528 1602h-36q-14 0 -7 34q13 80 59 127t107 47q29 0 164 -32q94 -27 141 -27t66 70q2 12 14 12h35q14 -1 3 -53t-51 -98t-94 -46t-109 16q-56 16 -97 29q-41 12 -100 13q-25 0 -49 -23t-31 -59q-3 -10 -15 -10zM717 1276q-9 0 -25 -40t-112 -300t-105 -293h453
q-61 205 -195 604q-12 29 -16 29zM950 59q0 14 19 15h51q43 0 57 17t4 61q-31 134 -129 417h-503q-17 -47 -77 -212t-67 -193q-6 -43 -6 -45q0 -45 70 -45h96q20 0 20 -15v-47q0 -18 -16 -18l-233 6q-138 0 -177 -3t-47 -3q-14 0 -14 16v49q0 14 16 15h72q45 0 71 22t45 64
q19 43 103 260q83 218 105 280t114 308t104 286t0 58q-13 20 -14 28q0 12 19 19q41 8 96 43t74 59q18 18 26 19q13 0 27 -48t114 -344t127 -388q27 -93 103 -311t98 -263q47 -92 140 -92h67q16 0 17 -15v-51q0 -14 -21 -14l-246 6l-288 -6q-16 0 -17 18v47z" />
    <glyph glyph-name="Adieresis" unicode="&#xc4;" horiz-adv-x="1521" 
d="M974 1802q46 0 74 -26t28 -70q0 -43 -28 -69q-26 -25 -64 -25t-73 24t-35 64q0 41 26 72q26 30 72 30zM469 1700q-1 42 25 72t71 30t73 -26t28 -70q0 -43 -27 -69q-27 -25 -64 -25t-71 24t-35 64zM717 1276q-9 0 -25 -40t-112 -300t-105 -293h453q-61 205 -195 604
q-12 29 -16 29zM950 59q0 14 19 15h51q43 0 57 17t4 61q-31 134 -129 417h-503q-17 -47 -77 -212t-67 -193q-6 -43 -6 -45q0 -45 70 -45h96q20 0 20 -15v-47q0 -18 -16 -18l-233 6q-138 0 -177 -3t-47 -3q-14 0 -14 16v49q0 14 16 15h72q45 0 71 22t45 64q19 43 103 260
q83 218 105 280t114 308t104 286t0 58q-13 20 -14 28q0 12 19 19q41 8 96 43t74 59q18 18 26 19q13 0 27 -48t114 -344t127 -388q27 -93 103 -311t98 -263q47 -92 140 -92h67q16 0 17 -15v-51q0 -14 -21 -14l-246 6l-288 -6q-16 0 -17 18v47z" />
    <glyph glyph-name="Aring" unicode="&#xc5;" horiz-adv-x="1521" 
d="M765 1597q46 0 72 28q25 28 25 75t-27 75q-28 29 -70 27t-69 -33q-26 -31 -26 -73t24 -70q24 -29 71 -29zM756 1546q-80 0 -136 40t-56 108t62 114t152 45q90 0 141 -39q50 -40 50 -115q-1 -75 -67 -114t-146 -39zM716 1276q-8 0 -24 -40t-112 -300t-105 -293h453
q-61 205 -195 604q-8 29 -17 29zM950 59q0 14 19 15h51q43 0 57 17t4 61q-31 134 -129 417h-503q-17 -47 -77 -212t-67 -193q-6 -43 -6 -45q0 -45 70 -45h96q20 0 20 -15v-47q0 -18 -16 -18l-233 6q-138 0 -177 -3t-47 -3q-14 0 -14 16v49q0 14 16 15h72q45 0 71 22t45 64
q19 43 103 260q83 218 105 280t114 308t104 286t0 58q-26 40 5 45q136 21 172 37q35 16 47 16t20 -26t102 -304q93 -276 122 -374q28 -98 104 -317q76 -218 98 -263q47 -92 140 -92h67q16 0 17 -15v-51q0 -14 -21 -14l-246 6l-288 -6q-16 0 -17 18v47z" />
    <glyph glyph-name="AE" unicode="&#xc6;" horiz-adv-x="1892" 
d="M825 725v557q0 33 -18 33t-33 -25l-313 -565h364zM1004 725q199 0 258 9q59 8 77 26t27 65l18 101q0 16 19 14l45 -4q8 0 13 -3t1 -23t-4 -166q0 -144 12 -267q2 -16 -16 -16l-41 -6q-14 -2 -16 12l-27 100q-16 72 -84 78q-98 6 -282 6v-59l4 -350q0 -84 24 -117t77 -45
q55 -12 155 -12t172 6q115 4 166 71l159 215q12 20 31 9l25 -15q16 -10 12 -20l-113 -309q-8 -31 -33 -31l-161 4l-619 2l-166 -2q-78 -4 -86 -4q-20 0 -20 18v43q0 18 18 19h117q37 0 48 17t11 73v487h-407q-172 -329 -209 -411t-37 -112q0 -54 57 -54h99q20 0 20 -17v-37
q0 -27 -18 -26l-230 6q-78 0 -149 -4l-74 -2q-14 0 -14 26v35q0 18 14 19h70q41 0 110 94q27 34 188 332t293 524t146 258q43 96 -29 96h-37q-18 0 -18 19v43q0 18 23 18l266 -8h139l510 2q18 0 51 2l33 4q12 0 16 -10q4 -14 28 -91t48 -156t29 -89q4 -10 -8 -14l-25 -15
q-10 -6 -20 4l-195 232q-47 59 -137 59l-354 6v-659z" />
    <glyph glyph-name="Ccedilla" unicode="&#xc7;" horiz-adv-x="1527" 
d="M1339 1404q0 -24 22 -184t28 -194t-7 -37l-30 -8q-12 -4 -21 18q-53 143 -160 252q-154 158 -356 158q-131 0 -233 -54q-182 -97 -250 -346q-29 -108 -29 -225t45 -263q44 -145 146 -257t190 -145t230 -33t274 75q133 75 211 185q8 14 16 6l27 -20q10 -8 4 -19
q-238 -344 -608 -344l-86 -108q57 -15 97 -55t40 -85q1 -90 -105 -147t-219 -57q-41 0 -41 41q0 28 62 28t113 31q52 31 53 84q0 73 -131 104l131 168q-254 20 -435 185q-106 100 -162 258t-57 315q0 322 209 543q84 90 219 148t293 59q221 0 414 -113q35 -20 41 0l16 59
q4 13 22 13t23 -6q4 -6 4 -30z" />
    <glyph glyph-name="Egrave" unicode="&#xc8;" horiz-adv-x="1413" 
d="M844 1604l-25 -29q-6 -6 -16 0l-342 168q-59 31 -60 82q0 29 22 51q50 49 136 -21l285 -233q8 -8 0 -18zM487 784q186 0 246 10t77 28q18 18 32 64t16 101q0 14 14 14l52 -2q16 1 11 -25t-5 -167t12 -270q0 -12 -12 -17l-45 -6q-8 -2 -12 3q-3 5 -6 25t-22 90
q-19 69 -87 77q-96 10 -271 10v-127q0 -290 5 -350q2 -137 116 -160q72 -14 170 -14t185 9q86 9 155 68q18 13 82 97t80 110q18 26 31 21l32 -19q12 -8 5 -28l-109 -301q-10 -31 -45 -31l-178 4l-641 2l-174 -2q-86 -4 -88 -4q-18 0 -19 14v55q0 10 21 11h82q70 0 86 15
t16 75v686q0 385 -6 440q-7 54 -27 70t-78 16h-73q-16 0 -17 15v55q0 10 15 10l252 -6h90l608 2l82 4q12 0 16 -10q4 -16 53 -170q48 -154 52 -164t-6 -14l-31 -17q-10 -6 -17 6q-6 13 -90 113t-114 121q-78 53 -156 55l-365 8v-600z" />
    <glyph glyph-name="Eacute" unicode="&#xc9;" horiz-adv-x="1413" 
d="M957 1896q32 0 54 -22t21 -49q0 -51 -59 -82l-344 -168q-9 -6 -15 0l-24 33q-8 8 4 16l280 231q51 41 83 41zM487 784q186 0 246 10t77 28q18 18 32 64t16 101q0 14 14 14l52 -2q16 1 11 -25t-5 -167t12 -270q0 -12 -12 -17l-45 -6q-8 -2 -12 3q-3 5 -6 25t-22 90
q-19 69 -87 77q-96 10 -271 10v-127q0 -290 5 -350q2 -137 116 -160q72 -14 170 -14t185 9q86 9 155 68q18 13 82 97t80 110q18 26 31 21l32 -19q12 -8 5 -28l-109 -301q-10 -31 -45 -31l-178 4l-641 2l-174 -2q-86 -4 -88 -4q-18 0 -19 14v55q0 10 21 11h82q70 0 86 15
t16 75v686q0 385 -6 440q-7 54 -27 70t-78 16h-73q-16 0 -17 15v55q0 10 15 10l252 -6h90l608 2l82 4q12 0 16 -10q4 -16 53 -170q48 -154 52 -164t-6 -14l-31 -17q-10 -6 -17 6q-6 13 -90 113t-114 121q-78 53 -156 55l-365 8v-600z" />
    <glyph glyph-name="Ecircumflex" unicode="&#xca;" horiz-adv-x="1413" 
d="M993 1577l-262 117l-244 -117q-14 -6 -20 0l-16 20q-4 8 6 19l252 227q23 19 27 19t28 -19l260 -229q8 -8 2 -17l-14 -18q-7 -8 -19 -2zM487 784q186 0 246 10t77 28q18 18 32 64t16 101q0 14 14 14l52 -2q16 1 11 -25t-5 -167t12 -270q0 -12 -12 -17l-45 -6q-8 -2 -12 3
q-3 5 -6 25t-22 90q-19 69 -87 77q-96 10 -271 10v-127q0 -290 5 -350q2 -137 116 -160q72 -14 170 -14t185 9q86 9 155 68q18 13 82 97t80 110q18 26 31 21l32 -19q12 -8 5 -28l-109 -301q-10 -31 -45 -31l-178 4l-641 2l-174 -2q-86 -4 -88 -4q-18 0 -19 14v55q0 10 21 11
h82q70 0 86 15t16 75v686q0 385 -6 440q-7 54 -27 70t-78 16h-73q-16 0 -17 15v55q0 10 15 10l252 -6h90l608 2l82 4q12 0 16 -10q4 -16 53 -170q48 -154 52 -164t-6 -14l-31 -17q-10 -6 -17 6q-6 13 -90 113t-114 121q-78 53 -156 55l-365 8v-600z" />
    <glyph glyph-name="Edieresis" unicode="&#xcb;" horiz-adv-x="1413" 
d="M929 1802q45 0 73 -26t28 -70q0 -43 -26 -69q-26 -25 -65 -25q-38 0 -73 24t-35 64q0 42 26 72t72 30zM424 1700q0 42 26 72t70 30q45 0 73 -26t28 -70q0 -43 -27 -69q-27 -25 -64 -25q-38 0 -72 24t-34 64zM487 784q186 0 246 10t77 28q18 18 32 64t16 101q0 14 14 14
l52 -2q16 1 11 -25t-5 -167t12 -270q0 -12 -12 -17l-45 -6q-8 -2 -12 3q-3 5 -6 25t-22 90q-19 69 -87 77q-96 10 -271 10v-127q0 -290 5 -350q2 -137 116 -160q72 -14 170 -14t185 9q86 9 155 68q18 13 82 97t80 110q18 26 31 21l32 -19q12 -8 5 -28l-109 -301
q-10 -31 -45 -31l-178 4l-641 2l-174 -2q-86 -4 -88 -4q-18 0 -19 14v55q0 10 21 11h82q70 0 86 15t16 75v686q0 385 -6 440q-7 54 -27 70t-78 16h-73q-16 0 -17 15v55q0 10 15 10l252 -6h90l608 2l82 4q12 0 16 -10q4 -16 53 -170q48 -154 52 -164t-6 -14l-31 -17
q-10 -6 -17 6q-6 13 -90 113t-114 121q-78 53 -156 55l-365 8v-600z" />
    <glyph glyph-name="Igrave" unicode="&#xcc;" horiz-adv-x="759" 
d="M35 1825q-1 29 21 51q49 49 137 -21l284 -233q8 -8 0 -18l-24 -29q-6 -6 -17 0l-342 168q-59 31 -59 82zM70 -6q-16 0 -17 12v55q0 12 17 13h114q84 0 92 59q11 78 11 582v143q0 326 -8 449q-5 39 -25 54t-78 15h-119q-16 0 -16 13v55q0 12 14 12l320 -6l276 6
q14 0 15 -14v-51q0 -14 -17 -15h-96q-72 0 -72 -57l-6 -498v-157l6 -517q0 -45 22 -59t75 -14h84q16 0 16 -15v-53q0 -12 -19 -12l-284 6q-193 0 -247 -3t-58 -3z" />
    <glyph glyph-name="Iacute" unicode="&#xcd;" horiz-adv-x="759" 
d="M650 1896q32 0 54 -22t21 -49q0 -51 -59 -82l-344 -168q-9 -6 -15 0l-24 33q-8 8 4 16l280 231q51 41 83 41zM70 -6q-16 0 -17 12v55q0 12 17 13h114q84 0 92 59q11 78 11 582v143q0 326 -8 449q-5 39 -25 54t-78 15h-119q-16 0 -16 13v55q0 12 14 12l320 -6l276 6
q14 0 15 -14v-51q0 -14 -17 -15h-96q-72 0 -72 -57l-6 -498v-157l6 -517q0 -45 22 -59t75 -14h84q16 0 16 -15v-53q0 -12 -19 -12l-284 6q-193 0 -247 -3t-58 -3z" />
    <glyph glyph-name="Icircumflex" unicode="&#xce;" horiz-adv-x="759" 
d="M635 1577l-262 117l-244 -117q-14 -6 -20 0l-17 20q-4 8 6 19l252 227q23 19 28 19t28 -19l260 -229q8 -8 2 -17l-15 -18q-6 -8 -18 -2zM70 -6q-16 0 -17 12v55q0 12 17 13h114q84 0 92 59q11 78 11 582v143q0 326 -8 449q-5 39 -25 54t-78 15h-119q-16 0 -16 13v55
q0 12 14 12l320 -6l276 6q14 0 15 -14v-51q0 -14 -17 -15h-96q-72 0 -72 -57l-6 -498v-157l6 -517q0 -45 22 -59t75 -14h84q16 0 16 -15v-53q0 -12 -19 -12l-284 6q-193 0 -247 -3t-58 -3z" />
    <glyph glyph-name="Idieresis" unicode="&#xcf;" horiz-adv-x="759" 
d="M485 1700q0 42 26 72t72 30q45 0 73 -26t28 -70q0 -43 -27 -69q-27 -25 -65 -25t-72 24q-35 24 -35 64zM175 1802q46 0 73 -26q26 -26 26 -70q0 -43 -26 -69q-26 -25 -64 -25t-72 24t-34 64q0 41 25 72q26 30 72 30zM70 -6q-16 0 -17 12v55q0 12 17 13h114q84 0 92 59
q11 78 11 582v143q0 326 -8 449q-5 39 -25 54t-78 15h-119q-16 0 -16 13v55q0 12 14 12l320 -6l276 6q14 0 15 -14v-51q0 -14 -17 -15h-96q-72 0 -72 -57l-6 -498v-157l6 -517q0 -45 22 -59t75 -14h84q16 0 16 -15v-53q0 -12 -19 -12l-284 6q-193 0 -247 -3t-58 -3z" />
    <glyph glyph-name="Eth" unicode="&#xd0;" horiz-adv-x="1665" 
d="M72 -6q-13 0 -13 16v49q0 14 15 15h139q57 0 68 61q12 74 12 502v55h-199q-18 0 -18 19v41q0 18 18 18h199v170q0 293 -10 379q-6 57 -88 57h-117q-12 0 -12 19v45q0 16 16 16l299 -6l305 6q221 0 381 -39t285 -145q227 -197 227 -522q1 -318 -185 -520
q-88 -96 -174 -143q-166 -93 -481 -93l-377 6q-172 0 -228 -3t-62 -3zM481 887v-117h348q18 0 19 -18v-41q0 -18 -19 -19h-348q0 -223 4 -452q0 -61 35 -115q49 -66 210 -66q161 -1 285 59t204 163q150 184 149 460q0 119 -47 245q-151 405 -635 405q-129 -1 -164 -21
t-38 -101t-3 -382z" />
    <glyph glyph-name="Ntilde" unicode="&#xd1;" horiz-adv-x="1628" 
d="M602 1602h-37q-14 0 -6 34q14 80 59 127t107 47q29 0 164 -32q94 -27 141 -27t66 70q2 12 14 12h35q14 -1 3 -53t-51 -98t-94 -46t-109 16q-56 16 -98 29q-42 12 -100 13q-24 0 -48 -23t-32 -59q-2 -10 -14 -10zM94 8v53q0 12 12 13h70q45 0 65 25q19 26 27 102t8 635
v348q0 88 -38 138q-39 50 -97 52l-84 2q-12 0 -12 15v53q0 12 12 12l58 -2q61 -4 145 -4l137 4q35 0 49 -16t117 -149q103 -132 209 -269q106 -138 114 -148t156 -194q149 -184 263 -326h8v244q0 617 -31 700q-25 80 -113 80h-65q-12 0 -12 15v53q0 12 12 12l225 -6l199 6
q16 0 16 -14v-51q0 -14 -12 -15h-55q-41 0 -59 -26q-17 -27 -23 -125t-6 -434v-766q0 -49 -11 -50q-25 0 -49 33q-2 2 -250 316q-303 377 -316 388t-401 500h-12v-454q0 -582 42 -658q15 -27 54 -26h62q16 0 16 -19v-45q0 -16 -16 -16l-199 6l-205 -6q-10 0 -10 14z" />
    <glyph glyph-name="Ograve" unicode="&#xd2;" horiz-adv-x="1681" 
d="M516 1825q0 29 22 51q50 49 136 -21l284 -233q8 -8 0 -18l-24 -29q-6 -6 -16 0l-343 168q-59 31 -59 82zM1382 691q0 159 -53 298t-135 227t-176 138q-94 49 -182 49q-2 0 -20 1q-173 10 -304 -122q-98 -94 -152 -233t-53 -283q0 -144 41 -272q72 -223 240 -344
q142 -103 269 -103q126 0 225 50t155 123q55 73 100 193q45 119 45 278zM840 -31q-225 0 -441 133q-121 74 -211 237t-90 372q0 281 191 510q213 260 555 260q264 0 459 -162q281 -242 280 -612q0 -242 -153 -449q-217 -289 -590 -289z" />
    <glyph glyph-name="Oacute" unicode="&#xd3;" horiz-adv-x="1681" 
d="M1070 1896q32 0 54 -22t21 -49q0 -51 -60 -82l-344 -168q-8 -6 -14 0l-25 33q-8 8 5 16l280 231q51 41 83 41zM1382 691q0 159 -53 298t-135 227t-176 138q-94 49 -182 49q-2 0 -20 1q-173 10 -304 -122q-98 -94 -152 -233t-53 -283q0 -144 41 -272q72 -223 240 -344
q142 -103 269 -103q126 0 225 50t155 123q55 73 100 193q45 119 45 278zM840 -31q-225 0 -441 133q-121 74 -211 237t-90 372q0 281 191 510q213 260 555 260q264 0 459 -162q281 -242 280 -612q0 -242 -153 -449q-217 -289 -590 -289z" />
    <glyph glyph-name="Ocircumflex" unicode="&#xd4;" horiz-adv-x="1681" 
d="M1096 1577l-262 117l-244 -117q-14 -6 -21 0l-16 20q-4 8 6 19l252 227q23 19 28 19t27 -19l260 -229q8 -8 2 -17l-14 -18q-6 -8 -18 -2zM1382 691q0 159 -53 298t-135 227t-176 138q-94 49 -182 49q-2 0 -20 1q-173 10 -304 -122q-98 -94 -152 -233t-53 -283
q0 -144 41 -272q72 -223 240 -344q142 -103 269 -103q126 0 225 50t155 123q55 73 100 193q45 119 45 278zM840 -31q-225 0 -441 133q-121 74 -211 237t-90 372q0 281 191 510q213 260 555 260q264 0 459 -162q281 -242 280 -612q0 -242 -153 -449q-217 -289 -590 -289z" />
    <glyph glyph-name="Otilde" unicode="&#xd5;" horiz-adv-x="1681" 
d="M588 1602h-37q-14 0 -6 34q14 80 59 127t107 47q29 0 163 -32q94 -27 142 -27t65 70q4 12 15 12h34q14 -1 4 -53t-52 -98q-40 -46 -93 -46t-109 16q-57 16 -98 29q-41 12 -100 13q-24 0 -48 -23t-32 -59q-2 -10 -14 -10zM1382 691q0 159 -53 298t-135 227t-176 138
q-94 49 -182 49q-2 0 -20 1q-173 10 -304 -122q-98 -94 -152 -233t-53 -283q0 -144 41 -272q72 -223 240 -344q142 -103 269 -103q126 0 225 50t155 123q55 73 100 193q45 119 45 278zM840 -31q-225 0 -441 133q-121 74 -211 237t-90 372q0 281 191 510q213 260 555 260
q264 0 459 -162q281 -242 280 -612q0 -242 -153 -449q-217 -289 -590 -289z" />
    <glyph glyph-name="Odieresis" unicode="&#xd6;" horiz-adv-x="1681" 
d="M946 1700q0 42 26 72t72 30t74 -26t27 -70q0 -43 -27 -69q-26 -25 -64 -25t-73 24t-35 64zM635 1802q45 0 73 -26t28 -70q0 -43 -28 -69q-26 -25 -63 -25t-72 24t-35 64q0 41 26 72q26 30 71 30zM1382 691q0 159 -53 298t-135 227t-176 138q-94 49 -182 49q-2 0 -20 1
q-173 10 -304 -122q-98 -94 -152 -233t-53 -283q0 -144 41 -272q72 -223 240 -344q142 -103 269 -103q126 0 225 50t155 123q55 73 100 193q45 119 45 278zM840 -31q-225 0 -441 133q-121 74 -211 237t-90 372q0 281 191 510q213 260 555 260q264 0 459 -162
q281 -242 280 -612q0 -242 -153 -449q-217 -289 -590 -289z" />
    <glyph glyph-name="multiply" unicode="&#xd7;" 
d="M887 207l-84 -86l-297 299l-297 -299l-72 86l293 289l-291 286l82 84l293 -295l293 295l78 -75l-295 -291z" />
    <glyph glyph-name="Oslash" unicode="&#xd8;" horiz-adv-x="1681" 
d="M836 1403q-2 0 -16 1t-26 0l-33 -3q-98 -9 -191 -74q-30 -20 -56 -47q-100 -92 -154 -231t-53 -273q1 -242 101 -420l815 826q-83 106 -187 164t-200 57zM876 47q106 0 206 50q99 50 155 123q55 73 100 193t45 277q0 226 -102 406l-817 -828q87 -109 197 -165t216 -56z
M1583 707q0 -242 -153 -449q-217 -289 -590 -289q-225 0 -441 133q-25 14 -57 43l-162 -163q-12 -12 -18 -12t-15 10l-41 38q-8 12 -8 14t8 19l164 166q-172 205 -172 490t191 514q213 260 555 260q264 0 459 -162q10 -8 28 -27l178 181q7 8 11 8t12 -8l51 -41
q10 -10 10 -13l-6 -10l-186 -190q182 -215 182 -512z" />
    <glyph glyph-name="Ugrave" unicode="&#xd9;" horiz-adv-x="1527" 
d="M459 1825q-1 29 21 51q49 49 136 -21l285 -233q8 -8 0 -18l-24 -29q-6 -6 -17 0l-342 168q-59 31 -59 82zM1513 1442v-45q0 -20 -12 -21h-84q-48 0 -64 -24t-18 -33q-2 -8 -4 -15q-2 -6 -4 -18t-2 -339t-10 -460q-18 -264 -172 -395q-133 -123 -385 -123q-176 0 -277 43
q-193 78 -243 275q-33 123 -33 497v488q-1 57 -17 81t-61 23h-96q-14 0 -15 19v45q0 16 19 16l280 -6l281 6q18 0 18 -12v-53q0 -14 -16 -15h-102q-43 0 -69 -24t-30 -61q-4 -36 -4 -265v-135q0 -106 10 -434q10 -406 392 -408q413 0 413 473v439q0 240 -7 303
q-13 114 -95 112h-90q-14 0 -15 17v49q0 14 15 14l252 -6l225 6q20 0 20 -14z" />
    <glyph glyph-name="Uacute" unicode="&#xda;" horiz-adv-x="1527" 
d="M1097 1896q31 0 53 -22t21 -49q0 -51 -59 -82l-344 -168q-8 -6 -14 0l-25 33q-8 8 4 16l281 231q51 41 83 41zM1513 1442v-45q0 -20 -12 -21h-84q-48 0 -64 -24t-18 -33q-2 -8 -4 -15q-2 -6 -4 -18t-2 -339t-10 -460q-18 -264 -172 -395q-133 -123 -385 -123
q-176 0 -277 43q-193 78 -243 275q-33 123 -33 497v488q-1 57 -17 81t-61 23h-96q-14 0 -15 19v45q0 16 19 16l280 -6l281 6q18 0 18 -12v-53q0 -14 -16 -15h-102q-43 0 -69 -24t-30 -61q-4 -36 -4 -265v-135q0 -106 10 -434q10 -406 392 -408q413 0 413 473v439
q0 240 -7 303q-13 114 -95 112h-90q-14 0 -15 17v49q0 14 15 14l252 -6l225 6q20 0 20 -14z" />
    <glyph glyph-name="Ucircumflex" unicode="&#xdb;" horiz-adv-x="1527" 
d="M1061 1577l-262 117l-244 -117q-14 -6 -20 0l-17 20q-4 8 6 19l252 227q23 19 28 19t27 -19l261 -229q8 -8 2 -17l-15 -18q-6 -8 -18 -2zM1513 1442v-45q0 -20 -12 -21h-84q-48 0 -64 -24t-18 -33q-2 -8 -4 -15q-2 -6 -4 -18t-2 -339t-10 -460q-18 -264 -172 -395
q-133 -123 -385 -123q-176 0 -277 43q-193 78 -243 275q-33 123 -33 497v488q-1 57 -17 81t-61 23h-96q-14 0 -15 19v45q0 16 19 16l280 -6l281 6q18 0 18 -12v-53q0 -14 -16 -15h-102q-43 0 -69 -24t-30 -61q-4 -36 -4 -265v-135q0 -106 10 -434q10 -406 392 -408
q413 0 413 473v439q0 240 -7 303q-13 114 -95 112h-90q-14 0 -15 17v49q0 14 15 14l252 -6l225 6q20 0 20 -14z" />
    <glyph glyph-name="Udieresis" unicode="&#xdc;" horiz-adv-x="1527" 
d="M986 1802q46 0 74 -26t28 -70q0 -43 -28 -69q-26 -25 -64 -25t-72 24t-35 64q0 41 25 72q26 30 72 30zM481 1700q0 42 26 72t71 30q44 0 72 -26t28 -70q0 -43 -27 -69q-27 -25 -63 -25t-72 24q-35 24 -35 64zM1513 1442v-45q0 -20 -12 -21h-84q-48 0 -64 -24t-18 -33
q-2 -8 -4 -15q-2 -6 -4 -18t-2 -339t-10 -460q-18 -264 -172 -395q-133 -123 -385 -123q-176 0 -277 43q-193 78 -243 275q-33 123 -33 497v488q-1 57 -17 81t-61 23h-96q-14 0 -15 19v45q0 16 19 16l280 -6l281 6q18 0 18 -12v-53q0 -14 -16 -15h-102q-43 0 -69 -24
t-30 -61q-4 -36 -4 -265v-135q0 -106 10 -434q10 -406 392 -408q413 0 413 473v439q0 240 -7 303q-13 114 -95 112h-90q-14 0 -15 17v49q0 14 15 14l252 -6l225 6q20 0 20 -14z" />
    <glyph glyph-name="Yacute" unicode="&#xdd;" horiz-adv-x="1361" 
d="M1064 1896q32 0 54 -22t21 -49q0 -51 -60 -82l-344 -168q-8 -6 -14 0l-25 33q-8 8 4 16l281 231q51 41 83 41zM1208 1450l185 6q16 0 16 -12v-49q0 -18 -16 -19h-52q-53 0 -97 -42t-488 -685v-268q0 -145 6 -213t26 -81t66 -13h80q14 0 14 -15v-47q0 -18 -14 -18l-277 6
q-173 0 -219 -3t-55 -3q-8 0 -8 16v49q0 14 14 15h100q68 0 72 51q6 86 6 381v119q-27 53 -207 354t-221 349t-104 48h-51q-14 0 -15 15v53q0 12 15 12l239 -6l305 6q14 0 15 -10v-51q0 -18 -15 -19h-67q-45 0 -57 -14t-7 -44q4 -30 322 -603q20 31 192 291t179 290
q14 27 2 54t-70 26h-55q-14 0 -15 19v49q0 12 15 12z" />
    <glyph glyph-name="Thorn" unicode="&#xde;" horiz-adv-x="1243" 
d="M971 762q0 92 -40 162q-39 70 -99 104q-112 65 -217 66t-154 -11v-630q59 -21 192 -21t226 93q92 93 92 237zM680 1440v-41q0 -23 -21 -23h-122q-68 0 -70 -30q-6 -55 -6 -189q105 4 203 4q234 0 376 -102q142 -101 144 -287q0 -186 -135 -296t-365 -109q-141 0 -223 10
v-68q0 -113 5 -175t71 -60h127q16 0 16 -15v-49q0 -16 -18 -16l-285 6q-187 0 -233 -3t-50 -3q-16 0 -16 14v51q0 14 12 15h94q47 0 64 12q16 12 22 74t6 557v235q0 338 -4 379q-2 45 -88 45h-106q-14 0 -15 17v49q0 14 13 14l299 -6l289 6q16 0 16 -16z" />
    <glyph glyph-name="germandbls" unicode="&#xdf;" horiz-adv-x="1132" 
d="M51 53q0 14 21 15h96q29 0 39 16t12 57v586l-121 6q-12 2 -12 17v38q0 12 16 15l117 10v76q0 272 141 428q151 164 321 164q81 -1 156 -63t74 -165q-1 -155 -115 -285t-114 -225q0 -58 35 -85q35 -28 49 -36t61 -34q47 -25 62 -33q100 -57 148 -122t46 -181t-87 -196
q-85 -81 -222 -81q-41 1 -92 21q-52 20 -68 32t-20 35l-16 130q-2 20 8 22l37 8q8 2 16 -14l25 -57q57 -111 151 -111q55 0 104 38q48 38 48 107q0 158 -150 232q-116 61 -166 100q-49 39 -67 80q-43 98 7 204q26 54 74 116t52 71q57 90 57 219q0 68 -50 119t-131 51
t-149 -69q-33 -33 -58 -118q-5 -17 -9 -49t-6 -47q-4 -30 -4 -102v-420q0 -431 2 -457t11 -37t34 -11h65q23 0 23 -17v-33q0 -25 -15 -24l-186 6q-45 0 -139 -4l-94 -2q-16 0 -17 14v45z" />
    <glyph glyph-name="agrave" unicode="&#xe0;" horiz-adv-x="874" 
d="M273 1323q46 0 87 -51l197 -244q4 -8 -2 -10l-25 -23q-6 -6 -12 0l-270 193q-53 41 -37 88t62 47zM539 199v252q-13 -11 -97 -51t-131 -90t-47 -116t30 -94q70 -68 184 16q61 44 61 83zM688 678v-434q0 -154 62 -154q49 0 71 31q12 14 21 8l20 -16q12 -12 -2 -37
q-53 -100 -160 -101q-55 0 -93 37t-52 101h-4q-68 -80 -203 -125q-39 -12 -121 -13q-45 0 -84 41t-39 129q0 158 200 246t237 121v131q-10 94 -29 115q-39 45 -124 45t-132 -43q-21 -21 -16 -53q6 -32 6 -41q0 -117 -109 -117q-49 0 -49 57q0 56 39 110t102 91
q121 72 237 72t177 -56q45 -45 45 -145z" />
    <glyph glyph-name="aacute" unicode="&#xe1;" horiz-adv-x="874" 
d="M610 1323q44 0 60 -46t-39 -89l-269 -193q-6 -6 -12 0l-24 21q-6 6 0 12l196 244q43 51 88 51zM539 199v252q-13 -11 -97 -51t-131 -90t-47 -116t30 -94q70 -68 184 16q61 44 61 83zM688 678v-434q0 -154 62 -154q49 0 71 31q12 14 21 8l20 -16q12 -12 -2 -37
q-53 -100 -160 -101q-55 0 -93 37t-52 101h-4q-68 -80 -203 -125q-39 -12 -121 -13q-45 0 -84 41t-39 129q0 158 200 246t237 121v131q-10 94 -29 115q-39 45 -124 45t-132 -43q-21 -21 -16 -53q6 -32 6 -41q0 -117 -109 -117q-49 0 -49 57q0 56 39 110t102 91
q121 72 237 72t177 -56q45 -45 45 -145z" />
    <glyph glyph-name="acircumflex" unicode="&#xe2;" horiz-adv-x="874" 
d="M426 1325q8 0 25 -20l225 -269q10 -10 4 -16l-16 -19q-7 -10 -19 -2l-223 158l-207 -156q-12 -8 -18 -2l-19 19q-6 6 6 20l215 269q19 18 27 18zM539 199v252q-13 -11 -97 -51t-131 -90t-47 -116t30 -94q70 -68 184 16q61 44 61 83zM688 678v-434q0 -154 62 -154
q49 0 71 31q12 14 21 8l20 -16q12 -12 -2 -37q-53 -100 -160 -101q-55 0 -93 37t-52 101h-4q-68 -80 -203 -125q-39 -12 -121 -13q-45 0 -84 41t-39 129q0 158 200 246t237 121v131q-10 94 -29 115q-39 45 -124 45t-132 -43q-21 -21 -16 -53q6 -32 6 -41q0 -117 -109 -117
q-49 0 -49 57q0 56 39 110t102 91q121 72 237 72t177 -56q45 -45 45 -145z" />
    <glyph glyph-name="atilde" unicode="&#xe3;" horiz-adv-x="874" 
d="M672 1243h35q14 1 3 -51q-12 -52 -52 -96t-94 -45q-54 1 -139 29t-129 28q-82 0 -97 -86q-2 -10 -15 -10h-37q-14 0 -6 35q13 81 57 125t99 44t149 -29q94 -30 145 -30q50 0 66 74q3 12 15 12zM539 199v252q-13 -11 -97 -51t-131 -90t-47 -116t30 -94q70 -68 184 16
q61 44 61 83zM688 678v-434q0 -154 62 -154q49 0 71 31q12 14 21 8l20 -16q12 -12 -2 -37q-53 -100 -160 -101q-55 0 -93 37t-52 101h-4q-68 -80 -203 -125q-39 -12 -121 -13q-45 0 -84 41t-39 129q0 158 200 246t237 121v131q-10 94 -29 115q-39 45 -124 45t-132 -43
q-21 -21 -16 -53q6 -32 6 -41q0 -117 -109 -117q-49 0 -49 57q0 56 39 110t102 91q121 72 237 72t177 -56q45 -45 45 -145z" />
    <glyph glyph-name="adieresis" unicode="&#xe4;" horiz-adv-x="874" 
d="M618 1114q-38 0 -72 24t-34 64t26 71q26 32 71 32q46 0 73 -28t27 -70q0 -41 -27 -67t-64 -26zM262 1305q45 0 73 -28q27 -28 27 -70q0 -41 -28 -67t-64 -26t-70 24t-34 64t25 71q26 32 71 32zM539 199v252q-13 -11 -97 -51t-131 -90t-47 -116t30 -94q70 -68 184 16
q61 44 61 83zM688 678v-434q0 -154 62 -154q49 0 71 31q12 14 21 8l20 -16q12 -12 -2 -37q-53 -100 -160 -101q-55 0 -93 37t-52 101h-4q-68 -80 -203 -125q-39 -12 -121 -13q-45 0 -84 41t-39 129q0 158 200 246t237 121v131q-10 94 -29 115q-39 45 -124 45t-132 -43
q-21 -21 -16 -53q6 -32 6 -41q0 -117 -109 -117q-49 0 -49 57q0 56 39 110t102 91q121 72 237 72t177 -56q45 -45 45 -145z" />
    <glyph glyph-name="aring" unicode="&#xe5;" horiz-adv-x="874" 
d="M420 1063q92 0 92 98q0 39 -25 65t-63 26t-67 -28q-27 -28 -27 -69t24 -67t66 -25zM612 1161q0 -63 -54 -105t-142 -42t-137 39t-49 101t54 106q56 43 143 43t136 -39t49 -103zM539 199v252q-13 -11 -97 -51t-131 -90t-47 -116t30 -94q70 -68 184 16q61 44 61 83z
M688 678v-434q0 -154 62 -154q49 0 71 31q12 14 21 8l20 -16q12 -12 -2 -37q-53 -100 -160 -101q-55 0 -93 37t-52 101h-4q-68 -80 -203 -125q-39 -12 -121 -13q-45 0 -84 41t-39 129q0 158 200 246t237 121v131q-10 94 -29 115q-39 45 -124 45t-132 -43q-21 -21 -16 -53
q6 -32 6 -41q0 -117 -109 -117q-49 0 -49 57q0 56 39 110t102 91q121 72 237 72t177 -56q45 -45 45 -145z" />
    <glyph glyph-name="ae" unicode="&#xe6;" horiz-adv-x="1300" 
d="M1059 651q0 57 -40 111t-116 55q-154 0 -205 -262l291 35q70 10 70 61zM264 193q0 -121 103 -121q47 0 106 38t98 101q-31 88 -30 227q-11 -6 -59 -26q-157 -66 -198 -143q-20 -35 -20 -76zM465 879q171 0 197 -127q66 74 129 100t144 27q81 0 143 -34q97 -53 139 -179
q14 -45 14 -82q0 -43 -51 -45l-490 -43q-4 -23 -4 -70q0 -125 70 -227t194 -103q158 0 238 123q20 29 31 23l22 -13q10 -6 0 -30q-41 -95 -130 -159t-191 -65q-184 0 -320 166h-8q-98 -121 -219 -153q-49 -12 -135 -13q-54 -1 -94 49t-40 132q0 143 209 241q219 100 230 107
v133q0 82 -34 124t-118 42t-135 -41q-25 -22 -18 -59q8 -38 8 -48q0 -106 -101 -106q-57 0 -57 55q0 115 143 205q109 70 234 70z" />
    <glyph glyph-name="ccedilla" unicode="&#xe7;" horiz-adv-x="854" 
d="M72 414q0 172 122 318t317 146t263 -121q14 -26 14 -44q-4 -72 -74 -72t-114 82q-31 57 -61 74q-31 16 -76 16q-96 0 -169 -84q-73 -85 -73 -243t105 -302q80 -104 223 -104q76 0 124 19t101 69q8 8 17 0l20 -21q12 -12 0 -26q-96 -109 -252 -137l-98 -123q51 -15 89 -55
t38 -85q0 -90 -102 -147t-212 -57q-41 0 -41 41q-1 28 61 28t117 31q54 31 54 84q0 79 -135 104l133 172q-186 0 -299 142q-92 123 -92 295z" />
    <glyph glyph-name="egrave" unicode="&#xe8;" horiz-adv-x="872" 
d="M312 1323q46 0 87 -51l197 -244q4 -8 -2 -10l-25 -23q-6 -6 -12 0l-270 193q-53 41 -37 88t62 47zM561 606q55 0 55 31q0 86 -58 142q-38 38 -104 38t-124 -51q-57 -51 -86 -160h317zM741 545h-505q-6 -29 -7 -99q0 -150 84 -250t207 -102q88 0 154 41t94 98q6 14 18 11
l27 -15q12 -4 0 -30q-37 -82 -121 -153t-205 -71q-221 0 -321 146q-54 79 -72 147t-18 176q0 197 129 326q106 109 293 109q214 0 285 -221q15 -46 16 -80q-1 -33 -58 -33z" />
    <glyph glyph-name="eacute" unicode="&#xe9;" horiz-adv-x="872" 
d="M649 1323q45 0 61 -46t-40 -89l-269 -193q-6 -6 -12 0l-24 21q-6 6 0 12l196 244q43 51 88 51zM561 606q55 0 55 31q0 86 -58 142q-38 38 -104 38t-124 -51q-57 -51 -86 -160h317zM741 545h-505q-6 -29 -7 -99q0 -150 84 -250t207 -102q88 0 154 41t94 98q6 14 18 11
l27 -15q12 -4 0 -30q-37 -82 -121 -153t-205 -71q-221 0 -321 146q-54 79 -72 147t-18 176q0 197 129 326q106 109 293 109q214 0 285 -221q15 -46 16 -80q-1 -33 -58 -33z" />
    <glyph glyph-name="ecircumflex" unicode="&#xea;" horiz-adv-x="872" 
d="M475 1325q8 0 25 -20l225 -269q10 -10 4 -16l-16 -19q-7 -10 -19 -2l-223 158l-207 -156q-12 -8 -18 -2l-19 19q-6 6 6 20l216 269q18 18 26 18zM561 606q55 0 55 31q0 86 -58 142q-38 38 -104 38t-124 -51q-57 -51 -86 -160h317zM741 545h-505q-6 -29 -7 -99
q0 -150 84 -250t207 -102q88 0 154 41t94 98q6 14 18 11l27 -15q12 -4 0 -30q-37 -82 -121 -153t-205 -71q-221 0 -321 146q-54 79 -72 147t-18 176q0 197 129 326q106 109 293 109q214 0 285 -221q15 -46 16 -80q-1 -33 -58 -33z" />
    <glyph glyph-name="edieresis" unicode="&#xeb;" horiz-adv-x="872" 
d="M659 1114q-37 0 -71 24t-35 64t25 71q26 32 72 32t73 -28t27 -70q0 -41 -27 -67t-64 -26zM303 1305q45 0 73 -28t28 -70q0 -41 -28 -67t-65 -26t-71 24t-33 64q0 40 25 71q26 32 71 32zM561 606q55 0 55 31q0 86 -58 142q-38 38 -104 38t-124 -51q-57 -51 -86 -160h317z
M741 545h-505q-6 -29 -7 -99q0 -150 84 -250t207 -102q88 0 154 41t94 98q6 14 18 11l27 -15q12 -4 0 -30q-37 -82 -121 -153t-205 -71q-221 0 -321 146q-54 79 -72 147t-18 176q0 197 129 326q106 109 293 109q214 0 285 -221q15 -46 16 -80q-1 -33 -58 -33z" />
    <glyph glyph-name="igrave" unicode="&#xec;" horiz-adv-x="546" 
d="M120 1323q46 0 87 -51l196 -244q4 -8 -2 -10l-24 -23q-6 -6 -12 0l-271 193q-53 41 -37 88q17 47 63 47zM53 51q0 16 21 17h100q31 0 33 51t2 176v301q0 57 -22 84t-93 39q-18 2 -18 14v19q0 8 14 14q122 48 184 80t76 32t10 -29q-4 -30 -4 -329v-223q0 -154 2 -176
q6 -53 33 -53h94q20 0 21 -19v-35q0 -20 -19 -20l-196 6l-221 -6q-16 0 -17 16v41z" />
    <glyph glyph-name="iacute" unicode="&#xed;" horiz-adv-x="546" 
d="M467 1323q45 0 60 -46t-40 -89l-268 -193q-6 -6 -12 0l-25 21q-6 6 0 12l197 244q43 51 88 51zM53 51q0 16 21 17h100q31 0 33 51t2 176v301q0 57 -22 84t-93 39q-18 2 -18 14v19q0 8 14 14q122 48 184 80t76 32t10 -29q-4 -30 -4 -329v-223q0 -154 2 -176q6 -53 33 -53
h94q20 0 21 -19v-35q0 -20 -19 -20l-196 6l-221 -6q-16 0 -17 16v41z" />
    <glyph glyph-name="icircumflex" unicode="&#xee;" horiz-adv-x="546" 
d="M280 1325q8 0 25 -20l225 -269q10 -10 5 -16l-17 -19q-6 -10 -18 -2l-224 158l-206 -156q-12 -8 -19 -2l-18 19q-8 6 6 20l215 269q18 18 26 18zM53 51q0 16 21 17h100q31 0 33 51t2 176v301q0 57 -22 84t-93 39q-18 2 -18 14v19q0 8 14 14q122 48 184 80t76 32t10 -29
q-4 -30 -4 -329v-223q0 -154 2 -176q6 -53 33 -53h94q20 0 21 -19v-35q0 -20 -19 -20l-196 6l-221 -6q-16 0 -17 16v41z" />
    <glyph glyph-name="idieresis" unicode="&#xef;" horiz-adv-x="546" 
d="M446 1305q46 0 72 -28t27 -70q0 -41 -27 -67q-28 -26 -64 -26t-71 24t-35 64t26 71q26 32 72 32zM106 1114q-36 0 -70 24t-34 64t26 71q26 32 70 32q45 0 73 -28t28 -70q0 -41 -28 -67t-65 -26zM53 51q0 16 21 17h100q31 0 33 51t2 176v301q0 57 -22 84t-93 39
q-18 2 -18 14v19q0 8 14 14q122 48 184 80t76 32t10 -29q-4 -30 -4 -329v-223q0 -154 2 -176q6 -53 33 -53h94q20 0 21 -19v-35q0 -20 -19 -20l-196 6l-221 -6q-16 0 -17 16v41z" />
    <glyph glyph-name="eth" unicode="&#xf0;" horiz-adv-x="999" 
d="M234 1481q9 0 16 -2q127 -47 287 -158l219 125q18 8 24 -2l27 -47q8 -16 -6 -25l-199 -108q51 -43 121 -138q162 -211 174 -559q8 -229 -93 -403q-109 -188 -360 -188q-130 0 -217 67q-152 115 -151 363q0 94 44 197t132 173q129 102 274 103q98 0 181 -64l4 4
q-51 184 -146 301q-23 37 -67 84l-242 -141q-12 -6 -23 6l-28 47q-6 13 6 21l223 123q-100 94 -203 135q-33 12 -32 22q0 8 6 19l18 37q2 8 11 8zM475 37q98 0 160 72q61 71 83 167t21 218q0 190 -60 257q-61 67 -161 67t-184 -77q-105 -97 -105 -343q0 -122 70 -246
q33 -53 82 -84t94 -31z" />
    <glyph glyph-name="ntilde" unicode="&#xf1;" horiz-adv-x="1089" 
d="M791 1243h34q14 1 3 -51t-51 -96t-94 -45q-53 1 -139 29t-130 28q-80 0 -97 -86q-2 -10 -14 -10h-37q-14 0 -6 35q14 81 57 125t99 44t149 -29q95 -30 145 -30t66 74q3 12 15 12zM80 12v37q0 18 20 19h60q24 0 32 8t9 33v479q0 80 -84 121l-17 8q-16 6 -16 18v10
q0 12 18 21l177 98q29 14 36 15q12 0 17 -25l14 -125h4q47 59 127 105t170 45q160 0 236 -137q35 -62 35 -103v-528q0 -43 45 -43h65q23 0 23 -19v-33q0 -23 -17 -22l-194 6l-185 -6q-16 0 -16 22v33q0 18 27 19h59q39 0 41 47q4 106 4 172v270q0 94 -15 129q-39 92 -194 92
q-90 0 -166 -80q-47 -51 -47 -139v-424q0 -43 9 -55t40 -12h52q20 0 20 -21v-35q0 -18 -14 -18l-179 6l-182 -6q-14 0 -14 18z" />
    <glyph glyph-name="ograve" unicode="&#xf2;" horiz-adv-x="1019" 
d="M345 1323q46 0 87 -51l197 -244q4 -8 -2 -10l-25 -23q-6 -6 -12 0l-271 193q-53 41 -37 88t63 47zM512 37q121 0 193 120q71 119 71 283t-90 270t-183 107q-93 0 -153 -63q-60 -64 -86 -136q-24 -72 -24 -176t15 -168t62 -131q74 -106 195 -106zM948 436
q0 -182 -134 -322t-322 -139q-188 0 -308 142q-68 81 -90 151t-22 168q1 207 176 344q127 98 274 99q80 0 159 -35t128 -84q139 -142 139 -324z" />
    <glyph glyph-name="oacute" unicode="&#xf3;" horiz-adv-x="1019" 
d="M723 1323q45 0 60 -46t-40 -89l-268 -193q-6 -6 -12 0l-25 21q-6 6 0 12l197 244q43 51 88 51zM512 37q121 0 193 120q71 119 71 283t-90 270t-183 107q-93 0 -153 -63q-60 -64 -86 -136q-24 -72 -24 -176t15 -168t62 -131q74 -106 195 -106zM948 436q0 -182 -134 -322
t-322 -139q-188 0 -308 142q-68 81 -90 151t-22 168q1 207 176 344q127 98 274 99q80 0 159 -35t128 -84q139 -142 139 -324z" />
    <glyph glyph-name="ocircumflex" unicode="&#xf4;" horiz-adv-x="1019" 
d="M508 1325q8 0 24 -20l226 -269q10 -10 4 -16l-17 -19q-6 -10 -18 -2l-223 158l-207 -156q-12 -8 -18 -2l-19 19q-6 6 6 20l215 269q19 18 27 18zM512 37q121 0 193 120q71 119 71 283t-90 270t-183 107q-93 0 -153 -63q-60 -64 -86 -136q-24 -72 -24 -176t15 -168
t62 -131q74 -106 195 -106zM948 436q0 -182 -134 -322t-322 -139q-188 0 -308 142q-68 81 -90 151t-22 168q1 207 176 344q127 98 274 99q80 0 159 -35t128 -84q139 -142 139 -324z" />
    <glyph glyph-name="otilde" unicode="&#xf5;" horiz-adv-x="1019" 
d="M756 1243h35q14 1 3 -51q-12 -52 -52 -96t-94 -45q-54 1 -140 29t-129 28q-81 0 -96 -86q-2 -10 -15 -10h-37q-14 0 -6 35q13 81 57 125t100 44t150 -29q94 -30 143 -30q50 0 66 74q5 12 15 12zM512 37q121 0 193 120q71 119 71 283t-90 270t-183 107q-93 0 -153 -63
q-60 -64 -86 -136q-24 -72 -24 -176t15 -168t62 -131q74 -106 195 -106zM948 436q0 -182 -134 -322t-322 -139q-188 0 -308 142q-68 81 -90 151t-22 168q1 207 176 344q127 98 274 99q80 0 159 -35t128 -84q139 -142 139 -324z" />
    <glyph glyph-name="odieresis" unicode="&#xf6;" horiz-adv-x="1019" 
d="M683 1305q46 0 73 -28q26 -28 26 -70q0 -41 -26 -67t-64 -26t-72 24t-34 64t25 71q26 32 72 32zM336 1305q45 0 73 -28q27 -28 27 -70q0 -41 -28 -67t-64 -26q-37 0 -71 24q-33 24 -33 64t25 71q26 32 71 32zM512 37q121 0 193 120q71 119 71 283t-90 270t-183 107
q-93 0 -153 -63q-60 -64 -86 -136q-24 -72 -24 -176t15 -168t62 -131q74 -106 195 -106zM948 436q0 -182 -134 -322t-322 -139q-188 0 -308 142q-68 81 -90 151t-22 168q1 207 176 344q127 98 274 99q80 0 159 -35t128 -84q139 -142 139 -324z" />
    <glyph glyph-name="divide" unicode="&#xf7;" 
d="M627 174q0 -46 -33 -76t-81 -30t-81 30t-33 76q0 45 33 75t81 30t81 -30t33 -75zM627 811q0 -45 -33 -75t-81 -31q-48 1 -81 31t-33 75t33 75t81 30t81 -30t33 -75zM115 549h794v-115h-794v115z" />
    <glyph glyph-name="oslash" unicode="&#xf8;" horiz-adv-x="1019" 
d="M506 817q-92 0 -154 -63q-62 -64 -88 -136q-25 -72 -25 -190t29 -195l430 459q-41 57 -94 91t-98 34zM513 37q124 0 194 120t69 289q0 95 -37 175l-436 -461l10 -19q76 -104 200 -104zM508 -25q-172 0 -287 101l-84 -90q-16 -16 -26 -4l-27 28q-10 10 -10 16t18 25l78 82
q-59 78 -79 145q-19 67 -19 162t45 184t133 152q129 102 272 103q72 0 142 -29t110 -70l96 90q13 13 21 4l39 -34q6 -6 6 -10t-4 -9l-98 -98q114 -123 114 -296t-134 -313t-306 -139z" />
    <glyph glyph-name="ugrave" unicode="&#xf9;" horiz-adv-x="1036" 
d="M294 1323q46 0 87 -51l197 -244q3 -8 -3 -10l-24 -23q-6 -6 -12 0l-271 193q-53 41 -37 88q17 47 63 47zM854 567v-151q0 -199 4 -242q6 -72 51 -72t67 6t28 -8l6 -26q2 -14 -11 -19l-215 -71q-25 -8 -41 -9q-16 0 -18 25l-16 119h-4q-43 -61 -123 -103t-156 -41
q-122 -1 -186 85t-75 152t-11 259v238q-2 41 -20 57t-61 19q-42 3 -42 16v37q0 16 22 16h183q12 0 28 4l23 2q27 0 22 -24q-8 -74 -8 -236v-145q0 -9 -2 -67t0 -86q17 -234 211 -232q39 0 92 32q103 61 105 125v488q-2 39 -24 53t-66 16t-44 17v35q1 12 5 15t20 3h190
q14 0 35 4l25 2q23 0 18 -20q-12 -111 -12 -273z" />
    <glyph glyph-name="uacute" unicode="&#xfa;" horiz-adv-x="1036" 
d="M690 1323q44 0 60 -46t-39 -89l-269 -193q-6 -6 -12 0l-24 21q-6 6 0 12l196 244q43 51 88 51zM854 567v-151q0 -199 4 -242q6 -72 51 -72t67 6t28 -8l6 -26q2 -14 -11 -19l-215 -71q-25 -8 -41 -9q-16 0 -18 25l-16 119h-4q-43 -61 -123 -103t-156 -41q-122 -1 -186 85
t-75 152t-11 259v238q-2 41 -20 57t-61 19q-42 3 -42 16v37q0 16 22 16h183q12 0 28 4l23 2q27 0 22 -24q-8 -74 -8 -236v-145q0 -9 -2 -67t0 -86q17 -234 211 -232q39 0 92 32q103 61 105 125v488q-2 39 -24 53t-66 16t-44 17v35q1 12 5 15t20 3h190q14 0 35 4l25 2
q23 0 18 -20q-12 -111 -12 -273z" />
    <glyph glyph-name="ucircumflex" unicode="&#xfb;" horiz-adv-x="1036" 
d="M516 1325q8 0 25 -20l225 -269q10 -10 4 -16l-16 -19q-7 -10 -19 -2l-223 158l-207 -156q-12 -8 -18 -2l-19 19q-6 6 6 20l215 269q19 18 27 18zM854 567v-151q0 -199 4 -242q6 -72 51 -72t67 6t28 -8l6 -26q2 -14 -11 -19l-215 -71q-25 -8 -41 -9q-16 0 -18 25l-16 119
h-4q-43 -61 -123 -103t-156 -41q-122 -1 -186 85t-75 152t-11 259v238q-2 41 -20 57t-61 19q-42 3 -42 16v37q0 16 22 16h183q12 0 28 4l23 2q27 0 22 -24q-8 -74 -8 -236v-145q0 -9 -2 -67t0 -86q17 -234 211 -232q39 0 92 32q103 61 105 125v488q-2 39 -24 53t-66 16
t-44 17v35q1 12 5 15t20 3h190q14 0 35 4l25 2q23 0 18 -20q-12 -111 -12 -273z" />
    <glyph glyph-name="udieresis" unicode="&#xfc;" horiz-adv-x="1036" 
d="M700 1114q-38 0 -72 24t-34 64t26 71q26 32 71 32q46 0 73 -28t27 -70q0 -41 -27 -67t-64 -26zM344 1305q45 0 73 -28q27 -28 27 -70q0 -41 -28 -67t-64 -26t-70 24t-34 64t25 71q26 32 71 32zM854 567v-151q0 -199 4 -242q6 -72 51 -72t67 6t28 -8l6 -26q2 -14 -11 -19
l-215 -71q-25 -8 -41 -9q-16 0 -18 25l-16 119h-4q-43 -61 -123 -103t-156 -41q-122 -1 -186 85t-75 152t-11 259v238q0 72 -78 77q-45 6 -45 15v37q0 16 22 16h183q12 0 28 4l23 2q27 0 22 -24q-8 -74 -8 -236v-145q0 -9 -2 -67t0 -86q17 -234 211 -232q39 0 92 32
q103 61 105 125v488q0 39 -23 54t-67 17t-44 15v35q1 12 5 15t20 3h190q14 0 35 4l25 2q23 0 18 -20q-12 -111 -12 -273z" />
    <glyph glyph-name="yacute" unicode="&#xfd;" horiz-adv-x="892" 
d="M741 1323q45 0 61 -46t-40 -89l-268 -193q-7 -6 -13 0l-24 21q-6 6 0 12l196 244q43 51 88 51zM942 844v-39q0 -18 -10 -19h-33q-43 0 -78 -44t-277 -592t-257 -578q-26 -47 -61 -88t-101 -41q-67 0 -97 29q-30 28 -30 68t29 64t64 23t62 -10q27 -10 43 -13t33 13
q20 27 80 155q59 128 84 195q-6 33 -115 360q-110 327 -126 365t-26 54q-28 40 -73 40h-53q-16 0 -16 19v41q0 14 16 14q4 0 38 -3t150 -3l191 6q18 0 18 -14v-43q0 -16 -12 -17h-39q-33 0 -28 -40t79 -276t90 -269h9q16 27 109 249t102 259q18 78 -35 77h-33q-14 0 -14 17
v41q0 16 12 16l168 -6l125 6q12 0 12 -16z" />
    <glyph glyph-name="thorn" unicode="&#xfe;" horiz-adv-x="1050" 
d="M330 209q0 -88 43 -113q93 -55 197 -55t176 84t71 260q0 176 -67 288q-68 111 -204 111t-216 -135v-440zM254 -557l-207 -6q-18 0 -18 18v37q0 16 24 16h70q29 0 41 12t15 49q3 38 3 349v389l-4 699q2 199 -84 223l-35 10q-12 4 -12 16v15q0 8 14 14l205 98q39 16 47 17
q18 0 19 -41l-2 -621h4q45 59 122 101t161 41q84 0 141 -22t112 -85l18 -18q13 -14 17 -20q3 -6 15 -20t16 -24t12 -28t11 -36t9 -49q6 -30 7 -114q0 -215 -124 -351t-310 -137q-131 0 -211 39v-446q0 -59 51 -60h84q18 0 18 -20v-33q0 -18 -18 -18z" />
    <glyph glyph-name="ydieresis" unicode="&#xff;" horiz-adv-x="892" 
d="M661 1305q47 0 73 -28t26 -70q0 -41 -27 -67t-63 -26t-72 24q-35 24 -35 64t26 71q26 32 72 32zM314 1305q44 0 72 -28t28 -70q0 -41 -28 -67t-64 -26t-71 24q-34 24 -34 64t26 71q26 32 71 32zM942 844v-39q0 -18 -10 -19h-33q-43 0 -78 -44t-277 -592t-257 -578
q-26 -47 -61 -88t-101 -41q-67 0 -97 29q-30 28 -30 68t29 64t64 23t62 -10q27 -10 43 -13t33 13q20 27 80 155q59 128 84 195q-6 35 -117 366q-110 331 -128 371t-38 62q-20 20 -57 20h-53q-16 0 -16 19v41q0 14 16 14q4 0 38 -3t150 -3l191 6q18 0 18 -14v-43
q0 -16 -12 -17h-39q-33 0 -28 -40t79 -276t90 -269h9q16 27 109 249t102 259q18 78 -35 77h-33q-14 0 -14 17v41q0 16 12 16l168 -6l125 6q12 0 12 -16z" />
    <glyph glyph-name="Amacron" unicode="&#x100;" horiz-adv-x="1521" 
d="M1026 1708v-68q0 -14 -22 -14h-490q-16 0 -16 14v68q0 14 16 14h494q18 0 18 -14zM717 1276q-9 0 -25 -40t-112 -300t-105 -293h453q-61 205 -195 604q-12 29 -16 29zM950 59q0 14 19 15h51q43 0 57 17t4 61q-31 134 -129 417h-503q-17 -47 -77 -212t-67 -193
q-6 -43 -6 -45q0 -45 70 -45h96q20 0 20 -15v-47q0 -18 -16 -18l-233 6q-138 0 -177 -3t-47 -3q-14 0 -14 16v49q0 14 16 15h72q45 0 71 22t45 64q19 43 103 260q83 218 105 280t114 308t104 286t0 58q-13 20 -14 28q0 12 19 19q41 8 96 43t74 59q18 18 26 19q13 0 27 -48
t114 -344t127 -388q27 -93 103 -311t98 -263q47 -92 140 -92h67q16 0 17 -15v-51q0 -14 -21 -14l-246 6l-288 -6q-16 0 -17 18v47z" />
    <glyph glyph-name="amacron" unicode="&#x101;" horiz-adv-x="874" 
d="M195 1063v65q0 14 16 15h451q18 0 18 -15v-65q0 -14 -23 -14h-446q-16 0 -16 14zM539 199v252q-13 -11 -97 -51t-131 -90t-47 -116t30 -94q70 -68 184 16q61 44 61 83zM688 678v-434q0 -154 62 -154q49 0 71 31q12 14 21 8l20 -16q12 -12 -2 -37q-53 -100 -160 -101
q-55 0 -93 37t-52 101h-4q-68 -80 -203 -125q-39 -12 -121 -13q-45 0 -84 41t-39 129q0 158 200 246t237 121v131q-10 94 -29 115q-39 45 -124 45t-132 -43q-21 -21 -16 -53q6 -32 6 -41q0 -117 -109 -117q-49 0 -49 57q0 56 39 110t102 91q121 72 237 72t177 -56
q45 -45 45 -145z" />
    <glyph glyph-name="Abreve" unicode="&#x102;" horiz-adv-x="1521" 
d="M756 1571q-90 0 -166 73t-101 171q-6 23 5 26l22 10q6 4 16 -12q38 -65 100 -103t130 -38t136 46t91 95q8 14 17 10l24 -10q8 -6 4 -20q-20 -82 -104 -165t-174 -83zM717 1276q-9 0 -25 -40t-112 -300t-105 -293h453q-61 205 -195 604q-12 29 -16 29zM950 59q0 14 19 15
h51q43 0 57 17t4 61q-31 134 -129 417h-503q-17 -47 -77 -212t-67 -193q-6 -43 -6 -45q0 -45 70 -45h96q20 0 20 -15v-47q0 -18 -16 -18l-233 6q-138 0 -177 -3t-47 -3q-14 0 -14 16v49q0 14 16 15h72q45 0 71 22t45 64q19 43 103 260q83 218 105 280t114 308t104 286t0 58
q-13 20 -14 28q0 12 19 19q41 8 96 43t74 59q18 18 26 19q13 0 27 -48t114 -344t127 -388q27 -93 103 -311t98 -263q47 -92 140 -92h67q16 0 17 -15v-51q0 -14 -21 -14l-246 6l-288 -6q-16 0 -17 18v47z" />
    <glyph glyph-name="abreve" unicode="&#x103;" horiz-adv-x="874" 
d="M431 993q-93 0 -173 73t-92 171q-2 25 6 27l23 10q8 4 16 -12q33 -66 96 -105t131 -39t136 46t92 98q8 14 16 10l25 -12q8 -2 4 -19q-15 -84 -101 -166t-179 -82zM539 199v252q-13 -11 -97 -51t-131 -90t-47 -116t30 -94q70 -68 184 16q61 44 61 83zM688 678v-434
q0 -154 62 -154q49 0 71 31q12 14 21 8l20 -16q12 -12 -2 -37q-53 -100 -160 -101q-55 0 -93 37t-52 101h-4q-68 -80 -203 -125q-39 -12 -121 -13q-45 0 -84 41t-39 129q0 158 200 246t237 121v131q-10 94 -29 115q-39 45 -124 45t-132 -43q-21 -21 -16 -53q6 -32 6 -41
q0 -117 -109 -117q-49 0 -49 57q0 56 39 110t102 91q121 72 237 72t177 -56q45 -45 45 -145z" />
    <glyph glyph-name="Aogonek" unicode="&#x104;" horiz-adv-x="1521" 
d="M717 1276q-9 0 -25 -40t-112 -300t-105 -293h453q-61 205 -195 604q-12 29 -16 29zM12 -6q-14 0 -14 16v49q0 14 16 15h72q45 0 71 22t45 64q19 43 103 260q83 218 105 280t114 308t104 286t0 58q-13 20 -14 28q0 12 19 19q41 8 96 43t74 59q18 18 26 19q13 0 27 -48
t114 -344t127 -388q27 -93 103 -311t98 -263q47 -92 140 -92h67q17 -1 17 -15v-51q0 -14 -21 -14q-69 6 -94 6h-143q-86 0 -180 -97t-95 -216q0 -145 121 -146q39 -1 77 15t40 16q18 0 18 -25t-56 -57q-55 -32 -107 -31q-186 0 -232 94q-23 43 -23 109t41 130t91 106
q133 109 133 165q0 103 -140 506h-503q-17 -47 -77 -212t-67 -193q-6 -43 -6 -45q0 -45 70 -45h96q20 0 20 -15v-47q0 -18 -16 -18l-233 6q-138 0 -177 -3t-47 -3z" />
    <glyph glyph-name="aogonek" unicode="&#x105;" horiz-adv-x="874" 
d="M539 199v252q-13 -11 -97 -51t-131 -90t-47 -116t30 -94q70 -68 184 16q61 44 61 83zM639 -260q0 -61 31 -101t76 -40q46 0 74 14t32 14q18 -1 18 -27t-39 -55t-88 -28q-256 0 -256 178q0 150 189 285q-94 16 -121 133h-4q-68 -80 -203 -125q-39 -12 -121 -13
q-45 0 -84 41t-39 129q0 158 200 246t237 121v131q-10 94 -29 115q-39 45 -124 45t-132 -43q-21 -21 -16 -53q6 -32 6 -41q0 -117 -109 -117q-49 0 -49 57q0 56 39 110t102 91q121 72 237 72t177 -56q45 -45 45 -145v-434q0 -154 62 -154q49 0 71 31q13 14 21 8l20 -16
q12 -12 -10 -49t-76 -80q-137 -106 -137 -244z" />
    <glyph glyph-name="Cacute" unicode="&#x106;" horiz-adv-x="1527" 
d="M1015 1896q31 0 53 -22t22 -49q0 -51 -60 -82l-344 -168q-8 -6 -14 0l-25 33q-8 8 4 16l281 231q51 41 83 41zM836 -31q-313 0 -519 189q-106 100 -162 258t-57 315q0 322 209 543q84 90 219 148t293 59q221 0 414 -113q35 -20 41 0l16 59q4 13 22 13t23 -6q4 -6 4 -30
t22 -184t28 -194t-7 -37l-30 -8q-14 -2 -21 16q-68 160 -160 254q-154 158 -356 158q-131 0 -233 -54q-182 -97 -250 -346q-29 -108 -29 -225t45 -263q44 -145 146 -257t190 -145t230 -33t274 75q133 75 211 185q8 14 16 6l27 -20q10 -8 4 -19q-237 -344 -610 -344z" />
    <glyph glyph-name="cacute" unicode="&#x107;" horiz-adv-x="841" 
d="M639 1323q45 0 60 -46t-40 -89l-268 -193q-6 -6 -12 0l-25 21q-6 6 0 12l197 244q43 51 88 51zM467 813q-96 0 -169 -84q-73 -85 -73 -243t105 -302q80 -104 223 -104q76 0 124 19t101 69q8 8 17 0l20 -21q12 -12 0 -26q-49 -57 -141 -101t-189 -45q-203 0 -317 144
q-92 123 -92 295t122 318t317 146t263 -121q14 -26 15 -44q-4 -72 -74 -72t-115 82q-31 57 -61 74q-31 16 -76 16z" />
    <glyph glyph-name="Ccaron" unicode="&#x10c;" horiz-adv-x="1527" 
d="M844 1577q-4 0 -27 18l-258 230q-8 8 -2 16l14 19q7 8 19 2l268 -115l240 113q16 10 20 2l17 -21q8 -6 -5 -18l-258 -228q-24 -18 -28 -18zM836 -31q-313 0 -519 189q-106 100 -162 258t-57 315q0 322 209 543q84 90 219 148t293 59q221 0 414 -113q35 -20 41 0l16 59
q4 13 22 13t23 -6q4 -6 4 -30t22 -184t28 -194t-7 -37l-30 -8q-14 -2 -21 16q-68 160 -160 254q-154 158 -356 158q-131 0 -233 -54q-182 -97 -250 -346q-29 -108 -29 -225t45 -263q44 -145 146 -257t190 -145t230 -33t274 75q133 75 211 185q8 14 16 6l27 -20q10 -8 4 -19
q-237 -344 -610 -344z" />
    <glyph glyph-name="ccaron" unicode="&#x10d;" horiz-adv-x="841" 
d="M266 1323l226 -156l204 154q12 8 19 2l18 -18q8 -6 -6 -21l-215 -268q-18 -18 -26 -18t-25 20l-225 268q-10 10 -5 17l17 18q6 10 18 2zM467 813q-96 0 -169 -84q-73 -85 -73 -243t105 -302q80 -104 223 -104q76 0 124 19t101 69q8 8 17 0l20 -21q12 -12 0 -26
q-49 -57 -141 -101t-189 -45q-203 0 -317 144q-92 123 -92 295t122 318t317 146t263 -121q14 -26 15 -44q-4 -72 -74 -72t-115 82q-31 57 -61 74q-31 16 -76 16z" />
    <glyph glyph-name="Dcaron" unicode="&#x10e;" horiz-adv-x="1665" 
d="M830 1577q-5 0 -27 18l-258 230q-8 8 -2 16l14 19q6 8 18 2l269 -115l239 113q16 10 21 2l16 -21q6 -6 -4 -18l-258 -228q-23 -18 -28 -18zM481 887v-146q0 -248 4 -501q0 -61 35 -115q49 -66 209 -66q160 -1 285 59t205 163q150 184 149 460q0 119 -47 245
q-151 405 -635 405q-129 0 -164 -22q-35 -21 -38 -101t-3 -381zM74 -6q-14 0 -15 14v53q0 12 17 13h137q59 0 66 49q14 100 14 663v154q0 294 -7 354q-6 60 -26 71t-65 11h-113q-16 0 -16 15v55q0 10 14 10l301 -6l305 6q221 0 381 -39t285 -145q227 -197 227 -522
q1 -318 -185 -520q-88 -96 -174 -143q-166 -93 -481 -93l-377 6q-174 0 -227 -3t-61 -3z" />
    <glyph glyph-name="dcaron" unicode="&#x10f;" horiz-adv-x="1189" 
d="M1016 1417q0 31 24 51t66 21q43 0 85 -40t42 -123q1 -83 -63 -161t-115 -106q-15 -15 -31 -15t-16 12t14 25q109 102 108 191q0 37 -36 51q-29 7 -42 21l-24 28t-12 45zM743 246v352q0 68 -18 100q-57 111 -215 111q-115 0 -186 -74q-94 -102 -94 -269t90 -285
q92 -118 181 -118t151 35t79 78q12 37 12 70zM891 784v-452q0 -160 20 -187q27 -31 77 -33t54 -16l5 -16q2 -16 -15 -23l-231 -77q-20 -6 -27 16l-26 90q-50 -49 -136 -80t-150 -31t-90 2q-24 2 -73 25q-49 22 -109 82t-88 134q-27 74 -26 183q0 205 143 349
q121 129 305 129q117 0 219 -31v399q0 61 -22 84q-23 23 -107 37q-14 2 -14 14v35q0 11 30 17t112 21q83 15 100 20l47 6q14 0 10 -37q-8 -137 -8 -660z" />
    <glyph glyph-name="Dcroat" unicode="&#x110;" horiz-adv-x="1665" 
d="M72 -6q-13 0 -13 16v49q0 14 15 15h139q57 0 68 61q12 74 12 502v55h-199q-18 0 -18 19v41q0 18 18 18h199v170q0 293 -10 379q-6 57 -88 57h-117q-12 0 -12 19v45q0 16 16 16l299 -6l305 6q221 0 381 -39t285 -145q227 -197 227 -522q1 -318 -185 -520
q-88 -96 -174 -143q-166 -93 -481 -93l-377 6q-172 0 -228 -3t-62 -3zM481 887v-117h348q18 0 19 -18v-41q0 -18 -19 -19h-348q0 -223 4 -452q0 -61 35 -115q49 -66 210 -66q161 -1 285 59t204 163q150 184 149 460q0 119 -47 245q-151 405 -635 405q-129 -1 -164 -21
t-38 -101t-3 -382z" />
    <glyph glyph-name="dcroat" unicode="&#x111;" horiz-adv-x="1067" 
d="M743 246v352q0 68 -18 100q-57 111 -215 111q-115 0 -186 -74q-94 -102 -94 -269t90 -285q92 -118 181 -118t151 35t79 78q12 37 12 70zM893 1192h137q18 0 19 -12v-47q0 -14 -21 -15h-137v-786q0 -160 20 -187q27 -31 77 -33t54 -16l5 -16q2 -16 -15 -23l-231 -77
q-20 -6 -27 16l-26 90q-50 -49 -136 -80t-150 -31t-90 2q-24 2 -73 25q-49 24 -109 84t-88 134q-27 74 -26 181q0 199 143 349q125 129 305 129q117 0 219 -31v270h-297q-18 0 -18 15v47q0 12 14 12h301v55q0 61 -22 84q-23 23 -107 37q-14 2 -14 14v35q0 12 16 15
q158 33 226 43l47 6q14 1 9 -55t-5 -234z" />
    <glyph glyph-name="Emacron" unicode="&#x112;" horiz-adv-x="1413" 
d="M971 1708v-68q0 -14 -23 -14h-489q-16 0 -17 14v68q0 14 17 14h493q19 0 19 -14zM487 784q186 0 246 10t77 28q18 18 32 64t16 101q0 14 14 14l52 -2q16 1 11 -25t-5 -167t12 -270q0 -12 -12 -17l-45 -6q-8 -2 -12 3q-3 5 -6 25t-22 90q-19 69 -87 77q-96 10 -271 10
v-127q0 -290 5 -350q2 -137 116 -160q72 -14 170 -14t185 9q86 9 155 68q18 13 82 97t80 110q18 26 31 21l32 -19q12 -8 5 -28l-109 -301q-10 -31 -45 -31l-178 4l-641 2l-174 -2q-86 -4 -88 -4q-18 0 -19 14v55q0 10 21 11h82q70 0 86 15t16 75v686q0 385 -6 440
q-7 54 -27 70t-78 16h-73q-16 0 -17 15v55q0 10 15 10l252 -6h90l608 2l82 4q12 0 16 -10q4 -16 53 -170q48 -154 52 -164t-6 -14l-31 -17q-10 -6 -17 6q-6 13 -90 113t-114 121q-78 53 -156 55l-365 8v-600z" />
    <glyph glyph-name="emacron" unicode="&#x113;" horiz-adv-x="872" 
d="M236 1063v65q0 14 16 15h450q18 0 19 -15v-65q0 -14 -23 -14h-446q-16 0 -16 14zM561 606q55 0 55 31q0 86 -58 142q-38 38 -104 38t-124 -51q-57 -51 -86 -160h317zM741 545h-505q-6 -29 -7 -99q0 -150 84 -250t207 -102q88 0 154 41t94 98q6 14 18 11l27 -15
q12 -4 0 -30q-37 -82 -121 -153t-205 -71q-221 0 -321 146q-54 79 -72 147t-18 176q0 197 129 326q106 109 293 109q214 0 285 -221q15 -46 16 -80q-1 -33 -58 -33z" />
    <glyph glyph-name="Edotaccent" unicode="&#x116;" horiz-adv-x="1413" 
d="M705 1823q51 0 81 -30t31 -77q0 -47 -30 -76q-29 -28 -71 -28t-80 26t-38 71q0 46 28 80t79 34zM487 784q186 0 246 10t77 28q18 18 32 64t16 101q0 14 14 14l52 -2q16 1 11 -25t-5 -167t12 -270q0 -12 -12 -17l-45 -6q-8 -2 -12 3q-3 5 -6 25t-22 90q-19 69 -87 77
q-96 10 -271 10v-127q0 -290 5 -350q2 -137 116 -160q72 -14 170 -14t185 9q86 9 155 68q18 13 82 97t80 110q18 26 31 21l32 -19q12 -8 5 -28l-109 -301q-10 -31 -45 -31l-178 4l-641 2l-174 -2q-86 -4 -88 -4q-18 0 -19 14v55q0 10 21 11h82q70 0 86 15t16 75v686
q0 385 -6 440q-7 54 -27 70t-78 16h-73q-16 0 -17 15v55q0 10 15 10l252 -6h90l608 2l82 4q12 0 16 -10q4 -16 53 -170q48 -154 52 -164t-6 -14l-31 -17q-10 -6 -17 6q-6 13 -90 113t-114 121q-78 53 -156 55l-365 8v-600z" />
    <glyph glyph-name="edotaccent" unicode="&#x117;" horiz-adv-x="872" 
d="M482 1114q-48 0 -85 31t-37 74t34 75t87 33q53 0 82 -31q29 -30 29 -72t-31 -76t-79 -34zM561 606q55 0 55 31q0 86 -58 142q-38 38 -104 38t-124 -51q-57 -51 -86 -160h317zM741 545h-505q-6 -29 -7 -99q0 -150 84 -250t207 -102q88 0 154 41t94 98q6 14 18 11l27 -15
q12 -4 0 -30q-37 -82 -121 -153t-205 -71q-221 0 -321 146q-54 79 -72 147t-18 176q0 197 129 326q106 109 293 109q214 0 285 -221q15 -46 16 -80q-1 -33 -58 -33z" />
    <glyph glyph-name="Eogonek" unicode="&#x118;" horiz-adv-x="1413" 
d="M487 784q186 0 246 10t77 28q18 18 32 64t16 101q0 14 14 14l52 -2q16 1 11 -25t-5 -167t12 -270q0 -12 -12 -17l-45 -6q-8 -2 -12 3q-3 5 -6 25t-22 90q-19 69 -87 77q-96 10 -271 10v-127q0 -290 5 -350q2 -137 116 -160q72 -14 170 -14t185 9q86 9 155 68q18 13 82 97
t80 110q18 26 31 21l32 -19q13 -8 5 -28l-109 -301q-4 -12 -45 -31q-70 -31 -140 -131t-69 -176q0 -145 121 -146q39 -1 77 15t40 16q18 0 18 -25t-56 -57q-55 -32 -107 -31q-186 0 -232 94q-23 44 -23 102q0 113 73 186t133 111t65 42q-8 2 -31 2h-47l-641 4l-174 -2
q-86 -4 -88 -4q-18 0 -19 14v55q0 10 21 11h82q70 0 86 15t16 75v686q0 385 -6 440q-7 54 -27 70t-78 16h-73q-16 0 -17 15v55q0 10 15 10l252 -6h90l608 2l82 4q12 0 16 -10q4 -16 53 -170q48 -154 52 -164t-6 -14l-31 -17q-10 -6 -17 6q-6 15 -90 113t-114 119
q-88 55 -156 57l-365 8v-600z" />
    <glyph glyph-name="eogonek" unicode="&#x119;" horiz-adv-x="872" 
d="M561 608q55 0 55 31q0 86 -58 142q-38 38 -104 38t-124 -51q-57 -51 -86 -160h317zM483 -255q0 -66 31 -106t76 -40t74 14t32 14q18 -1 18 -27t-38 -55q-39 -29 -88 -28q-256 0 -256 178q0 88 33 129t43 54t53 51t51 46h-25q-221 0 -321 146q-54 79 -72 147t-18 176
q0 197 129 326q106 109 293 109q214 0 285 -221q15 -46 16 -80q0 -33 -58 -33h-505q-6 -29 -7 -99q0 -150 84 -250t207 -102q88 0 154 41t94 98q6 14 18 11l27 -15q11 -4 0 -28q-47 -111 -188 -205q-61 -43 -101 -114t-41 -137z" />
    <glyph glyph-name="Ecaron" unicode="&#x11a;" horiz-adv-x="1413" 
d="M726 1577q-5 0 -28 18l-258 230q-8 8 -2 16l15 19q6 8 18 2l268 -115l240 113q16 10 20 2l17 -21q8 -6 -4 -18l-258 -228q-23 -18 -28 -18zM487 784q186 0 246 10t77 28q18 18 32 64t16 101q0 14 14 14l52 -2q16 1 11 -25t-5 -167t12 -270q0 -12 -12 -17l-45 -6
q-8 -2 -12 3q-3 5 -6 25t-22 90q-19 69 -87 77q-96 10 -271 10v-127q0 -290 5 -350q2 -137 116 -160q72 -14 170 -14t185 9q86 9 155 68q18 13 82 97t80 110q18 26 31 21l32 -19q12 -8 5 -28l-109 -301q-10 -31 -45 -31l-178 4l-641 2l-174 -2q-86 -4 -88 -4q-18 0 -19 14
v55q0 10 21 11h82q70 0 86 15t16 75v686q0 385 -6 440q-7 54 -27 70t-78 16h-73q-16 0 -17 15v55q0 10 15 10l252 -6h90l608 2l82 4q12 0 16 -10q4 -16 53 -170q48 -154 52 -164t-6 -14l-31 -17q-10 -6 -17 6q-6 13 -90 113t-114 121q-78 53 -156 55l-365 8v-600z" />
    <glyph glyph-name="ecaron" unicode="&#x11b;" horiz-adv-x="872" 
d="M262 1323l225 -156l205 154q12 8 19 2l18 -18q8 -6 -6 -21l-215 -268q-18 -18 -26 -18t-25 20l-226 268q-10 10 -4 17l17 18q6 10 18 2zM561 606q55 0 55 31q0 86 -58 142q-38 38 -104 38t-124 -51q-57 -51 -86 -160h317zM741 545h-505q-6 -29 -7 -99q0 -150 84 -250
t207 -102q88 0 154 41t94 98q6 14 18 11l27 -15q12 -4 0 -30q-37 -82 -121 -153t-205 -71q-221 0 -321 146q-54 79 -72 147t-18 176q0 197 129 326q106 109 293 109q214 0 285 -221q15 -46 16 -80q-1 -33 -58 -33z" />
    <glyph glyph-name="Gbreve" unicode="&#x11e;" horiz-adv-x="1675" 
d="M875 1571q-90 0 -166 73t-101 171q-6 23 4 26l23 10q6 4 16 -12q39 -65 101 -103t129 -38t135 46t92 95q8 14 16 10l25 -10q8 -6 4 -20q-20 -82 -104 -165t-174 -83zM860 -31q-154 1 -314 59t-259 175q-188 213 -189 563q0 142 60 282t172 238q227 195 575 195
q121 0 233 -37t171 -82q29 -23 47 2l30 37q18 18 29 18q18 0 19 -24l6 -391q0 -18 -10 -19l-37 -4q-12 0 -17 16q-71 254 -274 360q-96 50 -221 50q-236 0 -392 -166q-180 -190 -180 -471q0 -389 195 -573q152 -145 362 -145t334 69q35 20 45 58t10 122v152q0 55 -18 74
t-66 20h-86q-14 0 -14 12v51q0 16 12 17l88 -4q88 -2 172 -2l242 6q16 0 17 -15v-49q0 -16 -15 -16h-80q-63 0 -63 -78v-270l8 -66q0 -20 -33 -33q-258 -131 -559 -131z" />
    <glyph glyph-name="gbreve" unicode="&#x11f;" horiz-adv-x="993" 
d="M460 993q-93 0 -173 73t-92 171q-2 25 6 27l22 10q8 4 17 -12q33 -66 96 -105t131 -39q67 0 135 46t92 98q8 14 17 10l24 -12q8 -2 4 -19q-16 -84 -101 -166t-178 -82zM504 -492q102 0 206 54t99 157q0 97 -75 153t-222 46l-197 -14q-57 -14 -110 -68t-53 -129
q0 -37 23 -78q53 -87 167 -109q60 -12 162 -12zM434 293q94 0 139 91t45 211t-55 181q-45 45 -98 45q-88 0 -146 -57q-74 -78 -73 -242q0 -109 65 -178q53 -51 123 -51zM457 -557q-208 0 -324 65q-104 63 -104 166q0 78 64 143q65 65 151 103v8q-62 14 -100 56t-38 98
t58 108t127 76v4q-76 33 -133 111q-58 78 -58 196q0 117 94 209t256 92q161 0 259 -118q113 80 192 80q47 0 74 -27t22 -59q-1 -31 -23 -54q-22 -22 -58 -22t-70 31q-30 18 -56 18t-53 -12q31 -76 31 -156q0 -131 -76 -221q-40 -43 -112 -73q-117 -48 -230 -19
q-41 -16 -75 -46q-53 -47 -26 -104q20 -39 110 -39q34 0 56 1l66 3q243 11 345 -67t108 -203q0 -150 -134 -249t-343 -99z" />
    <glyph glyph-name="Gcommaaccent" unicode="&#x122;" horiz-adv-x="1675" 
d="M725 -195q-1 31 23 51t67 21q43 0 85 -40q42 -41 42 -123t-63 -160t-115 -107q-14 -14 -30 -14t-17 12q0 12 14 25q109 102 109 190q0 31 -27 47q-41 8 -77 53q-12 14 -11 45zM860 -31q-154 1 -314 59t-259 175q-188 213 -189 563q0 142 60 282t172 238q227 195 575 195
q121 0 233 -37t171 -82q29 -23 47 2l30 37q18 18 29 18q18 0 19 -24l6 -391q0 -18 -10 -19l-37 -4q-12 0 -17 16q-71 254 -274 360q-96 50 -221 50q-236 0 -392 -166q-180 -190 -180 -471q0 -389 195 -573q152 -145 362 -145t334 69q35 20 45 58t10 122v152q0 55 -18 74
t-66 20h-86q-14 0 -14 12v51q0 16 12 17l88 -4q88 -2 172 -2l242 6q16 0 17 -15v-49q0 -16 -15 -16h-80q-63 0 -63 -78v-270l8 -66q0 -20 -33 -33q-258 -131 -559 -131z" />
    <glyph glyph-name="gcommaaccent" unicode="&#x123;" horiz-adv-x="993" 
d="M445 1034q-43 0 -87 40q-43 40 -43 106q-2 100 63 178t116 106q14 14 30 15q21 0 17 -15q0 -10 -13 -22q-109 -102 -110 -191q0 -31 26 -47l25 -9q62 -31 66 -91q1 -30 -23 -50t-67 -20zM504 -492q102 0 206 54t99 157q0 97 -75 153t-222 46l-197 -14q-57 -14 -110 -68
t-53 -129q0 -37 23 -78q53 -87 167 -109q60 -12 162 -12zM434 293q94 0 139 91t45 211t-55 181q-45 45 -98 45q-88 0 -146 -57q-74 -78 -73 -242q0 -109 65 -178q53 -51 123 -51zM457 -557q-208 0 -324 65q-104 63 -104 166q0 78 64 143q65 65 151 103v8q-62 14 -100 56
t-38 98t58 108t127 76v4q-76 33 -133 111q-58 78 -58 196q0 117 94 209t256 92q161 0 259 -118q113 80 192 80q47 0 74 -27t22 -59q-1 -31 -23 -54q-22 -22 -58 -22t-70 31q-30 18 -56 18t-53 -12q31 -76 31 -156q0 -131 -76 -221q-40 -43 -112 -73q-117 -48 -230 -19
q-41 -16 -75 -46q-53 -47 -26 -104q20 -39 110 -39q34 0 56 1l66 3q243 11 345 -67t108 -203q0 -150 -134 -249t-343 -99z" />
    <glyph glyph-name="Imacron" unicode="&#x12a;" horiz-adv-x="759" 
d="M625 1708v-68q0 -14 -23 -14h-489q-16 0 -17 14v68q0 14 17 14h493q19 0 19 -14zM70 -6q-16 0 -17 12v55q0 12 17 13h114q84 0 92 59q11 78 11 582v143q0 326 -8 449q-5 39 -25 54t-78 15h-119q-16 0 -16 13v55q0 12 14 12l320 -6l276 6q14 0 15 -14v-51q0 -14 -17 -15
h-96q-72 0 -72 -57l-6 -498v-157l6 -517q0 -45 22 -59t75 -14h84q16 0 16 -15v-53q0 -12 -19 -12l-284 6q-193 0 -247 -3t-58 -3z" />
    <glyph glyph-name="imacron" unicode="&#x12b;" horiz-adv-x="546" 
d="M31 1063v65q0 14 16 15h451q18 0 18 -15v-65q0 -14 -22 -14h-447q-16 0 -16 14zM53 51q0 16 21 17h100q31 0 33 51t2 176v301q0 57 -22 84t-93 39q-18 2 -18 14v19q0 8 14 14q122 48 184 80t76 32t10 -29q-4 -30 -4 -329v-223q0 -154 2 -176q6 -53 33 -53h94q20 0 21 -19
v-35q0 -20 -19 -20l-196 6l-221 -6q-16 0 -17 16v41z" />
    <glyph glyph-name="Iogonek" unicode="&#x12e;" horiz-adv-x="759" 
d="M578 74h84q16 0 16 -15v-53q0 -12 -19 -12q-2 0 -45 4t-106 -2q-96 -8 -178 -110t-82 -199q0 -145 121 -146q39 -1 77 15t39 16q19 0 19 -25t-56 -57t-108 -31q-185 0 -231 94q-23 45 -23 111t38 127t73 91t99 72t69 46q-185 0 -238 -3t-57 -3q-16 0 -17 12v55
q0 12 17 13h114q84 0 92 59q10 78 11 582v143q0 326 -8 449q-5 39 -25 54t-78 15h-119q-16 0 -16 13v55q0 12 14 12l320 -6l276 6q14 0 15 -14v-51q0 -14 -17 -15h-96q-72 0 -72 -57l-6 -498v-157l6 -517q0 -45 22 -59t75 -14z" />
    <glyph glyph-name="iogonek" unicode="&#x12f;" horiz-adv-x="546" 
d="M53 51q0 16 21 17h100q31 0 33 51t2 176v301q0 57 -22 84t-93 39q-18 2 -18 14v19q0 8 14 14q122 48 184 80t76 32t10 -29q-4 -30 -4 -329v-223q0 -154 2 -176q6 -53 33 -53h94q20 0 21 -19v-35q0 -20 -19 -20q-2 0 -35 5t-75 -1q-43 -6 -62 -18q-129 -94 -129 -240
q0 -61 31 -101t76 -40t74 14t32 14q19 -1 19 -27t-39 -55t-88 -28q-256 0 -256 178q0 90 63 173t152 132q-90 0 -121 -2l-59 -4q-16 0 -17 16v41zM238 1196q-48 0 -84 31t-37 74q0 43 34 75t87 33q54 -1 82 -31t28 -72t-31 -76t-79 -34z" />
    <glyph glyph-name="Idotaccent" unicode="&#x130;" horiz-adv-x="759" 
d="M377 1823q51 0 82 -30t31 -77t-30 -76q-30 -28 -72 -28t-80 26t-38 71q0 46 28 80t79 34zM70 -6q-16 0 -17 12v55q0 12 17 13h114q84 0 92 59q11 78 11 582v143q0 326 -8 449q-5 39 -25 54t-78 15h-119q-16 0 -16 13v55q0 12 14 12l320 -6l276 6q14 0 15 -14v-51
q0 -14 -17 -15h-96q-72 0 -72 -57l-6 -498v-157l6 -517q0 -45 22 -59t75 -14h84q16 0 16 -15v-53q0 -12 -19 -12l-284 6q-193 0 -247 -3t-58 -3z" />
    <glyph glyph-name="dotlessi" unicode="&#x131;" horiz-adv-x="546" 
d="M53 51q0 16 21 17h100q31 0 33 51t2 176v301q0 57 -22 84t-93 39q-18 2 -18 14v19q0 8 14 14q122 48 184 80t76 32t10 -29q-4 -30 -4 -329v-223q0 -154 2 -176q6 -53 33 -53h94q20 0 21 -19v-35q0 -20 -19 -20l-196 6l-221 -6q-16 0 -17 16v41z" />
    <glyph glyph-name="Kcommaaccent" unicode="&#x136;" horiz-adv-x="1458" 
d="M706 -123q44 0 86 -40q42 -41 42 -123t-64 -160t-115 -107q-14 -14 -30 -14t-17 14q0 10 15 23q109 102 108 190q0 31 -26 47q-43 10 -73 48q-7 9 -11 23q-15 49 13 74q29 25 72 25zM129 -6q-14 0 -14 14v53q0 12 14 13h84q47 0 55 37q6 55 6 645v118l-6 453q0 49 -61 49
h-72q-16 0 -16 15v53q0 12 16 12l240 -6l231 6q16 0 17 -12v-53q0 -14 -15 -15h-86q-31 0 -44 -13t-13 -50l-6 -451v-102h37q43 0 78 24q34 24 228 266t214 272t14 44t-26 14h-29q-10 0 -10 15v47q0 14 12 14l203 -6l155 6q14 0 15 -10v-55q0 -14 -17 -15h-43
q-59 0 -111 -39q-53 -39 -227 -235t-252 -297q10 -12 274 -341t275 -339q41 -51 144 -51h71q14 0 15 -15v-51q0 -14 -17 -14l-252 6l-278 -6q-12 0 -12 12v53q0 12 12 13h31q27 0 35 19t-5 43q-12 24 -198 270t-215 271q-29 24 -82 23h-39v-147q0 -346 6 -432q4 -45 47 -45
h90q16 0 16 -13v-53q0 -14 -12 -14l-231 6q-155 0 -199 -3t-47 -3z" />
    <glyph glyph-name="kcommaaccent" unicode="&#x137;" horiz-adv-x="1015" 
d="M500 -144q24 20 67 21q43 0 85 -40q42 -41 42 -123t-63 -160t-115 -107q-14 -14 -30 -14t-17 12q0 12 14 25q109 102 109 190q0 31 -27 47q-43 11 -72 48q-16 21 -16 51q-1 30 23 50zM57 49q0 18 21 19h76q37 0 36 49q5 180 5 381v678q-1 70 -19 98t-68 42q-50 13 -49 19
v19q0 10 27 20l209 90q37 16 48 16t5 -66t-6 -613v-324q70 0 98 23q27 18 115 111t104 122t-1 41t-54 12q-16 0 -16 19v39q0 16 14 16l191 -6q101 0 131 3t34 3q12 0 13 -20v-37q0 -16 -17 -17h-14q-70 0 -141 -47q-51 -29 -271 -241q385 -385 420 -402q57 -29 107 -28
q16 0 16 -19v-37q0 -18 -18 -18l-170 6l-224 -6q-14 0 -14 20v33q0 16 21 16h14q12 -1 19 9t3 22t-123 140q-120 128 -149 157q-27 23 -88 23v-90q0 -141 2 -213q4 -43 41 -43h59q18 0 19 -17v-35q0 -23 -17 -22l-182 6l-196 -6q-10 0 -11 20v35z" />
    <glyph glyph-name="Lacute" unicode="&#x139;" horiz-adv-x="1355" 
d="M652 1896q32 0 54 -22t21 -49q0 -51 -59 -82l-344 -168q-9 -6 -15 0l-24 33q-8 8 4 16l280 231q51 41 83 41zM1221 -6q-80 6 -863 6l-182 -2l-80 -4q-16 0 -16 14v51q0 14 14 15h99q88 0 88 55l6 674v115q0 274 -6 385q-5 43 -19 58t-57 15h-96q-14 0 -15 21v45
q0 14 15 14l266 -6l303 6q18 0 18 -16v-47q0 -16 -20 -17h-123q-45 0 -58 -16t-14 -64l-6 -479v-176q0 -477 6 -561q41 -4 251 -5t264 6t117 80q102 120 155 263q6 12 16 8l33 -12q6 -4 4 -19q-20 -47 -100 -407z" />
    <glyph glyph-name="lacute" unicode="&#x13a;" horiz-adv-x="524" 
d="M532 1896q32 0 53 -22q22 -22 21 -49q0 -51 -59 -82l-344 -168q-9 -6 -15 0l-24 33q-8 8 4 16l281 231q51 41 83 41zM25 14v35q0 18 26 19h99q43 0 45 57t2 528v129q-1 304 -5 370t-28 94q-25 28 -76 44l-41 15q-12 4 -12 10v16q0 8 18 15q189 88 227 111t56 24
q18 0 16 -37q-8 -450 -8 -651v-183q0 -416 3 -479t52 -63h93q23 0 22 -19v-35q0 -20 -12 -20l-232 6l-231 -6q-14 0 -14 20z" />
    <glyph glyph-name="Lcommaaccent" unicode="&#x13b;" horiz-adv-x="1355" 
d="M565 -186q-1 22 23 42t67 21q43 0 85 -40q42 -41 42 -123t-63 -160t-115 -107q-14 -14 -30 -14t-17 12q0 12 14 25q109 102 109 190q0 31 -27 47l-10 2q-61 31 -73 69q-4 14 -5 36zM1221 -6q-80 6 -863 6l-182 -2l-80 -4q-16 0 -16 14v51q0 14 14 15h99q88 0 88 55l6 674
v115q0 274 -6 385q-5 43 -19 58t-57 15h-96q-14 0 -15 21v45q0 14 15 14l266 -6l303 6q18 0 18 -16v-47q0 -16 -20 -17h-123q-45 0 -58 -16t-14 -64l-6 -479v-176q0 -477 6 -561q41 -4 251 -5t264 6t117 80q102 120 155 263q6 12 16 8l33 -12q6 -4 4 -19q-20 -47 -100 -407z
" />
    <glyph glyph-name="lcommaaccent" unicode="&#x13c;" horiz-adv-x="524" 
d="M240 -123q43 0 85 -40q42 -41 42 -123q1 -82 -63 -160t-116 -107q-14 -14 -30 -14t-17 14q0 10 15 23q109 102 108 190q0 31 -26 47q-43 10 -66 38q-22 29 -22 60t23 52q24 20 67 20zM25 14v35q0 18 26 19h99q43 0 45 57t2 528v129q-1 304 -5 370t-28 94q-25 28 -76 44
l-41 15q-12 4 -12 10v16q0 8 18 15q189 88 227 111t56 24q18 0 16 -37q-8 -450 -8 -651v-183q0 -416 3 -479t52 -63h93q23 0 22 -19v-35q0 -20 -12 -20l-232 6l-231 -6q-14 0 -14 20z" />
    <glyph glyph-name="Lcaron" unicode="&#x13d;" horiz-adv-x="1355" 
d="M1065 1464q43 0 85 -40t42 -122t-64 -161q-64 -78 -114 -107q-14 -14 -30 -14t-17 12q0 12 14 25q109 102 109 190q0 36 -37 51q-31 8 -54 35q-24 27 -24 59t23 52q24 20 67 20zM1221 -6q-80 6 -863 6l-182 -2l-80 -4q-16 0 -16 14v51q0 14 14 15h99q88 0 88 55l6 674
v115q0 274 -6 385q-5 43 -19 58t-57 15h-96q-14 0 -15 21v45q0 14 15 14l266 -6l303 6q18 0 18 -16v-47q0 -16 -20 -17h-123q-45 0 -58 -16t-14 -64l-6 -479v-176q0 -477 6 -561q41 -4 251 -5t264 6t117 80q102 120 155 263q6 12 16 8l33 -12q6 -4 4 -19q-20 -47 -100 -407z
" />
    <glyph glyph-name="lcaron" unicode="&#x13e;" horiz-adv-x="688" 
d="M577 1489q43 0 85 -40t43 -123t-63 -161t-116 -106q-14 -15 -30 -15t-17 15q0 10 15 22q109 102 108 191q0 36 -37 51q-34 9 -62 44q-7 9 -11 23q-15 49 13 74q29 25 72 25zM25 14v35q0 18 26 19h99q43 0 45 57t2 528v129q-1 304 -5 370t-28 94q-25 28 -76 44l-41 15
q-12 4 -12 10v16q0 8 18 15q189 88 227 111t56 24q18 0 16 -37q-8 -450 -8 -651v-183q0 -416 3 -479t52 -63h93q23 0 22 -19v-35q0 -20 -12 -20l-232 6l-231 -6q-14 0 -14 20z" />
    <glyph glyph-name="Lslash" unicode="&#x141;" horiz-adv-x="1355" 
d="M80 8v51q0 14 14 15h119q68 0 68 55q0 248 6 508l-191 -74q-12 -6 -18 8l-21 54q-6 14 13 22l217 82v189q0 274 -6 385q-5 43 -19 58t-57 15h-96q-14 0 -15 21v45q0 14 15 14l266 -6l303 6q18 0 18 -16v-47q0 -16 -20 -17h-119q-49 0 -62 -16t-14 -64l-6 -479v-24
l440 163q18 6 25 -8l18 -51q8 -18 -8 -23l-475 -174v-59q0 -477 6 -561q41 -4 251 -5t264 6t117 80q102 120 155 263q6 12 16 8l33 -12q6 -4 4 -19q-20 -47 -100 -407l-373 4l-490 2l-184 -2l-78 -4q-16 0 -16 14z" />
    <glyph glyph-name="lslash" unicode="&#x142;" horiz-adv-x="595" 
d="M49 14v35q0 18 27 19h94q47 0 49 57t2 508v35l-143 -60q-10 -6 -19 13l-20 49q-6 16 12 22l170 70v41q0 285 -4 350t-29 92t-75 45l-41 15q-12 4 -13 10v16q0 8 19 15q190 88 227 111t55 24q16 0 17 -37q-8 -225 -8 -570v-49l139 64q16 8 22 -8l23 -50q2 -8 -4 -20
l-180 -80v-121q0 -416 2 -465t12 -63t31 -14h100q25 0 25 -19v-35q0 -20 -15 -20l-229 6l-232 -6q-14 0 -14 20z" />
    <glyph glyph-name="Nacute" unicode="&#x143;" horiz-adv-x="1628" 
d="M1084 1896q32 0 54 -22t21 -49q0 -51 -59 -82l-344 -168q-9 -6 -15 0l-24 33q-8 8 4 16l280 231q51 41 83 41zM94 8v53q0 12 12 13h70q45 0 65 25q19 26 27 102t8 635v348q0 88 -38 138q-39 50 -97 52l-84 2q-12 0 -12 15v53q0 12 12 12l58 -2q61 -4 145 -4l137 4
q35 0 49 -16t117 -149q103 -132 209 -269q106 -138 114 -148t156 -194q149 -184 263 -326h8v244q0 617 -31 700q-25 80 -113 80h-65q-12 0 -12 15v53q0 12 12 12l225 -6l199 6q16 0 16 -14v-51q0 -14 -12 -15h-55q-41 0 -59 -26q-17 -27 -23 -125t-6 -434v-766
q0 -49 -11 -50q-25 0 -49 33q-2 2 -250 316q-303 377 -316 388t-401 500h-12v-454q0 -582 42 -658q15 -27 54 -26h62q16 0 16 -19v-45q0 -16 -16 -16l-199 6l-205 -6q-10 0 -10 14z" />
    <glyph glyph-name="nacute" unicode="&#x144;" horiz-adv-x="1089" 
d="M758 1323q45 0 60 -46t-40 -89l-268 -193q-6 -6 -12 0l-25 21q-6 6 0 12l197 244q43 51 88 51zM80 12v37q0 18 20 19h60q24 0 32 8t9 33v479q0 80 -84 121l-17 8q-16 6 -16 18v10q0 12 18 21l177 98q29 14 36 15q12 0 17 -25l14 -125h4q47 59 127 105t170 45
q160 0 236 -137q35 -62 35 -103v-528q0 -43 45 -43h65q23 0 23 -19v-33q0 -23 -17 -22l-194 6l-185 -6q-16 0 -16 22v33q0 18 27 19h59q39 0 41 47q4 106 4 172v270q0 94 -15 129q-39 92 -194 92q-90 0 -166 -80q-47 -51 -47 -139v-424q0 -43 9 -55t40 -12h52q20 0 20 -21
v-35q0 -18 -14 -18l-179 6l-182 -6q-14 0 -14 18z" />
    <glyph glyph-name="Ncommaaccent" unicode="&#x145;" horiz-adv-x="1628" 
d="M792 -41q44 0 86 -40q42 -41 42 -123t-64 -160t-115 -107q-14 -14 -30 -14t-17 14q0 10 15 22q109 102 108 191q0 31 -26 47q-43 10 -73 48q-7 9 -11 23q-15 49 13 74q29 25 72 25zM94 8v53q0 12 12 13h70q45 0 65 25q19 26 27 102t8 635v348q0 88 -38 138q-39 50 -97 52
l-84 2q-12 0 -12 15v53q0 12 12 12l58 -2q61 -4 145 -4l137 4q35 0 49 -16t117 -149q103 -132 209 -269q106 -138 114 -148t156 -194q149 -184 263 -326h8v244q0 617 -31 700q-25 80 -113 80h-65q-12 0 -12 15v53q0 12 12 12l225 -6l199 6q16 0 16 -14v-51q0 -14 -12 -15
h-55q-41 0 -59 -26q-17 -27 -23 -125t-6 -434v-766q0 -49 -11 -50q-25 0 -49 33q-2 2 -250 316q-303 377 -316 388t-401 500h-12v-454q0 -582 42 -658q15 -27 54 -26h62q16 0 16 -19v-45q0 -16 -16 -16l-199 6l-205 -6q-10 0 -10 14z" />
    <glyph glyph-name="ncommaaccent" unicode="&#x146;" horiz-adv-x="1089" 
d="M432 -195q0 31 24 51t66 21q43 0 85 -40q42 -41 42 -123t-63 -160t-115 -107q-15 -14 -31 -14t-16 12t14 25q109 102 109 190q0 31 -27 47q-42 10 -76 53q-12 14 -12 45zM80 12v37q0 18 20 19h60q24 0 32 8t9 33v479q0 80 -84 121l-17 8q-16 6 -16 18v10q0 12 18 21
l177 98q29 14 36 15q12 0 17 -25l14 -125h4q47 59 127 105t170 45q160 0 236 -137q35 -62 35 -103v-528q0 -43 45 -43h65q23 0 23 -19v-33q0 -23 -17 -22l-194 6l-185 -6q-16 0 -16 22v33q0 18 27 19h59q39 0 41 47q4 106 4 172v270q0 94 -15 129q-39 92 -194 92
q-90 0 -166 -80q-47 -51 -47 -139v-424q0 -43 9 -55t40 -12h52q20 0 20 -21v-35q0 -18 -14 -18l-179 6l-182 -6q-14 0 -14 18z" />
    <glyph glyph-name="Ncaron" unicode="&#x147;" horiz-adv-x="1628" 
d="M812 1577q-5 0 -28 18l-258 230q-8 8 -2 16l15 19q6 8 18 2l268 -115l240 113q16 10 20 2l17 -21q8 -6 -4 -18l-258 -228q-23 -18 -28 -18zM94 8v53q0 12 12 13h70q45 0 65 25q19 26 27 102t8 635v348q0 88 -38 138q-39 50 -97 52l-84 2q-12 0 -12 15v53q0 12 12 12
l58 -2q61 -4 145 -4l137 4q35 0 49 -16t117 -149q103 -132 209 -269q106 -138 114 -148t156 -194q149 -184 263 -326h8v244q0 617 -31 700q-25 80 -113 80h-65q-12 0 -12 15v53q0 12 12 12l225 -6l199 6q16 0 16 -14v-51q0 -14 -12 -15h-55q-41 0 -59 -26q-17 -27 -23 -125
t-6 -434v-766q0 -49 -11 -50q-25 0 -49 33q-2 2 -250 316q-303 377 -316 388t-401 500h-12v-454q0 -582 42 -658q15 -27 54 -26h62q16 0 16 -19v-45q0 -16 -16 -16l-199 6l-205 -6q-10 0 -10 14z" />
    <glyph glyph-name="ncaron" unicode="&#x148;" horiz-adv-x="1089" 
d="M350 1323l225 -156l205 154q12 8 19 2l18 -18q6 -6 -6 -21l-215 -268q-18 -18 -26 -18t-25 20l-226 268q-10 10 -4 17l17 18q6 10 18 2zM80 12v37q0 18 20 19h60q24 0 32 8t9 33v479q0 80 -84 121l-17 8q-16 6 -16 18v10q0 12 18 21l177 98q29 14 36 15q12 0 17 -25
l14 -125h4q47 59 127 105t170 45q160 0 236 -137q35 -62 35 -103v-528q0 -43 45 -43h65q23 0 23 -19v-33q0 -23 -17 -22l-194 6l-185 -6q-16 0 -16 22v33q0 18 27 19h59q39 0 41 47q4 106 4 172v270q0 94 -15 129q-39 92 -194 92q-90 0 -166 -80q-47 -51 -47 -139v-424
q0 -43 9 -55t40 -12h52q20 0 20 -21v-35q0 -18 -14 -18l-179 6l-182 -6q-14 0 -14 18z" />
    <glyph glyph-name="Omacron" unicode="&#x14c;" horiz-adv-x="1681" 
d="M1106 1708v-68q0 -14 -23 -14h-489q-16 0 -16 14v68q0 14 16 14h493q19 0 19 -14zM1382 691q0 159 -53 298t-135 227t-176 138q-94 49 -182 49q-2 0 -20 1q-173 10 -304 -122q-98 -94 -152 -233t-53 -283q0 -144 41 -272q72 -223 240 -344q142 -103 269 -103
q126 0 225 50t155 123q55 73 100 193q45 119 45 278zM840 -31q-225 0 -441 133q-121 74 -211 237t-90 372q0 281 191 510q213 260 555 260q264 0 459 -162q281 -242 280 -612q0 -242 -153 -449q-217 -289 -590 -289z" />
    <glyph glyph-name="omacron" unicode="&#x14d;" horiz-adv-x="1019" 
d="M268 1063v65q0 14 17 15h450q18 0 19 -15v-65q0 -14 -23 -14h-446q-17 0 -17 14zM512 37q121 0 193 120q71 119 71 283t-90 270t-183 107q-93 0 -153 -63q-60 -64 -86 -136q-24 -72 -24 -176t15 -168t62 -131q74 -106 195 -106zM948 436q0 -182 -134 -322t-322 -139
q-188 0 -308 142q-68 81 -90 151t-22 168q1 207 176 344q127 98 274 99q80 0 159 -35t128 -84q139 -142 139 -324z" />
    <glyph glyph-name="Ohungarumlaut" unicode="&#x150;" horiz-adv-x="1681" 
d="M1237 1896q31 0 51 -22t20 -58q0 -38 -59 -69l-344 -172q-8 -6 -14 0l-25 33q-8 8 4 16l281 227q55 45 86 45zM909 1896q31 0 52 -21q20 -22 20 -50q0 -47 -59 -78l-344 -172q-9 -6 -15 0l-24 33q-8 8 4 16l280 227q55 45 86 45zM1382 691q0 159 -53 298t-135 227
t-176 138q-94 49 -182 49q-2 0 -20 1q-173 10 -304 -122q-98 -94 -152 -233t-53 -283q0 -144 41 -272q72 -223 240 -344q142 -103 269 -103q126 0 225 50t155 123q55 73 100 193q45 119 45 278zM840 -31q-225 0 -441 133q-121 74 -211 237t-90 372q0 281 191 510
q213 260 555 260q264 0 459 -162q281 -242 280 -612q0 -242 -153 -449q-217 -289 -590 -289z" />
    <glyph glyph-name="ohungarumlaut" unicode="&#x151;" horiz-adv-x="1019" 
d="M846 1323q43 0 56 -45t-42 -90l-264 -193q-6 -6 -12 0l-25 21q-6 6 0 12l201 244q43 51 86 51zM569 1323q43 0 57 -45t-42 -90l-265 -193q-6 -6 -12 0l-24 21q-6 6 0 12l200 244q43 51 86 51zM512 37q121 0 193 120q71 119 71 283t-90 270t-183 107q-93 0 -153 -63
q-60 -64 -86 -136q-24 -72 -24 -176t15 -168t62 -131q74 -106 195 -106zM948 436q0 -182 -134 -322t-322 -139q-188 0 -308 142q-68 81 -90 151t-22 168q1 207 176 344q127 98 274 99q80 0 159 -35t128 -84q139 -142 139 -324z" />
    <glyph glyph-name="OE" unicode="&#x152;" horiz-adv-x="2291" 
d="M868 1401q-244 0 -362 -105q-199 -180 -199 -520q0 -158 39 -287q69 -227 238 -345q143 -99 293 -99q244 0 307 158v1024q-50 88 -142 131t-174 43zM1362 784q199 0 258 10t77 28q39 39 46 165q0 16 18 14l45 -4q8 0 14 -3q6 -2 1 -24q-4 -22 -4 -163t12 -270
q2 -16 -17 -17l-40 -6q-14 -2 -17 12q-8 39 -24 103q-16 72 -86 80q-98 10 -283 10v-127l4 -350q0 -84 24 -117t78 -45t176 -12q121 0 201 5t150 70q19 21 83 103t80 108t33 15l25 -15q16 -10 12 -20l-112 -309q-10 -31 -35 -31l-178 4l-641 2q-45 0 -193 -14
q-127 -16 -209 -17q-283 0 -463 133q-299 238 -299 641q0 258 162 461q98 127 259 202t325 75q90 1 236 -15t177 -16h664q35 0 68 4l32 4q12 0 17 -10q58 -204 104 -336q4 -10 -8 -14l-25 -15q-16 -6 -21 4q-5 11 -88 113t-112 125q-68 51 -131 51l-395 6v-598z" />
    <glyph glyph-name="oe" unicode="&#x153;" horiz-adv-x="1556" 
d="M1251 606q51 0 51 28q1 49 -19 96q-39 87 -140 87q-68 -1 -125 -53t-86 -158h319zM510 37q110 0 186 95t76 296t-76 295t-169 94t-175 -69q-114 -94 -112 -290t71 -300q89 -121 199 -121zM487 -25q-186 -1 -301 137q-114 138 -114 330t155 320q139 117 305 117
q201 0 328 -164q117 164 320 164q74 0 131 -27t101 -76t65 -146q6 -32 6 -55q0 -31 -41 -30h-522q-6 -49 -7 -92q0 -152 83 -256t208 -105q164 0 248 137q10 18 25 13l20 -13q8 -4 0 -28q-35 -84 -119 -155t-200 -71q-211 0 -322 162q-148 -162 -369 -162z" />
    <glyph glyph-name="Racute" unicode="&#x154;" horiz-adv-x="1427" 
d="M984 1896q32 0 54 -22t21 -49q0 -51 -60 -82l-344 -168q-8 -6 -14 0l-25 33q-8 8 5 16l280 231q51 41 83 41zM469 1309v-580q41 -8 92 -8q131 0 225 40t139 100q79 107 80 190q2 160 -102 245q-119 94 -340 95q-45 1 -69 -17t-25 -65zM123 -6q-16 0 -17 16v47q0 16 11 17
h84q80 0 80 69q4 203 4 590v199q0 283 -2 342q-4 102 -78 102h-82q-12 0 -12 15v51q0 14 12 14q4 0 33 -1l87 -3q58 -2 134 -2l342 6q252 0 383 -125q106 -102 106 -233q0 -186 -88 -276t-291 -134v-4q51 -18 95 -78q16 -18 94 -128t90 -134t84 -120q72 -97 98 -115
q49 -35 148 -35q16 0 16 -17v-45q0 -18 -16 -18l-160 6q-74 0 -166 -6q-53 45 -226 357q-5 9 -73 109t-101 129q-76 66 -175 66q-39 0 -68 -6v-114q0 -319 6 -390t49 -71h129q16 0 17 -17v-45q0 -12 -4 -15t-19 -3l-268 6q-171 0 -211 -3t-45 -3z" />
    <glyph glyph-name="racute" unicode="&#x155;" horiz-adv-x="698" 
d="M625 1323q45 0 60 -46t-40 -89l-268 -193q-6 -6 -12 0l-25 21q-6 6 0 12l197 244q43 51 88 51zM49 14v35q0 18 23 19h80q45 0 45 38q2 68 2 246v193q-1 75 -15 103t-59 52l-39 21q-16 6 -16 14v13q0 10 16 18l203 104q16 8 28 9q14 0 15 -25l10 -141h8q49 76 116 127
t123 51t84 -27q27 -28 27 -66t-28 -68t-56 -30t-58 16t-71 17q-76 0 -120 -86q-20 -37 -21 -65v-430q0 -48 12 -66t45 -18h97q14 0 14 -19v-37q0 -18 -10 -18l-217 6l-226 -6q-12 0 -12 20z" />
    <glyph glyph-name="Rcommaaccent" unicode="&#x156;" horiz-adv-x="1427" 
d="M643 -146q-1 22 23 44q24 20 67 20t85 -40t42 -122t-63 -162q-63 -78 -115 -106q-14 -14 -30 -14t-17 12q0 12 14 25q109 102 109 190q0 31 -27 47l-10 2l-25 12q-53 26 -53 92zM469 1309v-580q41 -8 92 -8q131 0 225 40t139 100q79 107 80 190q2 160 -102 245
q-119 94 -340 95q-45 1 -69 -17t-25 -65zM123 -6q-16 0 -17 16v47q0 16 11 17h84q80 0 80 69q4 203 4 590v199q0 283 -2 342q-4 102 -78 102h-82q-12 0 -12 15v51q0 14 12 14q4 0 33 -1l87 -3q58 -2 134 -2l342 6q252 0 383 -125q106 -102 106 -233q0 -186 -88 -276
t-291 -134v-4q51 -18 95 -78q16 -18 94 -128t90 -134t84 -120q72 -97 98 -115q49 -35 148 -35q16 0 16 -17v-45q0 -18 -16 -18l-160 6q-74 0 -166 -6q-53 45 -226 357q-5 9 -73 109t-101 129q-76 66 -175 66q-39 0 -68 -6v-114q0 -319 6 -390t49 -71h129q16 0 17 -17v-45
q0 -12 -4 -15t-19 -3l-268 6q-171 0 -211 -3t-45 -3z" />
    <glyph glyph-name="rcommaaccent" unicode="&#x157;" horiz-adv-x="698" 
d="M287 -123q43 0 85 -40q42 -41 42 -123t-64 -160t-114 -107q-14 -14 -30 -14t-18 14q0 10 15 23q109 102 108 190q0 31 -26 47l-11 2q-77 39 -77 98q0 29 23 50q24 20 67 20zM49 14v35q0 18 23 19h80q45 0 45 38q2 68 2 246v193q-1 75 -15 103t-59 52l-39 21q-16 6 -16 14
v13q0 10 16 18l203 104q16 8 28 9q14 0 15 -25l10 -141h8q49 76 116 127t123 51t84 -27q27 -28 27 -66t-28 -68t-56 -30t-58 16t-71 17q-76 0 -120 -86q-20 -37 -21 -65v-430q0 -48 12 -66t45 -18h97q14 0 14 -19v-37q0 -18 -10 -18l-217 6l-226 -6q-12 0 -12 20z" />
    <glyph glyph-name="Rcaron" unicode="&#x158;" horiz-adv-x="1427" 
d="M712 1577q-4 0 -28 18l-258 230q-8 8 -2 16l14 19q7 8 19 2l268 -115l240 113q16 10 20 2l16 -21q6 -6 -4 -18l-258 -228q-23 -18 -27 -18zM469 1309v-580q41 -8 92 -8q131 0 225 40t139 100q79 107 80 190q2 160 -102 245q-119 94 -340 95q-45 1 -69 -17t-25 -65z
M123 -6q-16 0 -17 16v47q0 16 11 17h84q80 0 80 69q4 203 4 590v199q0 283 -2 342q-4 102 -78 102h-82q-12 0 -12 15v51q0 14 12 14q4 0 33 -1l87 -3q58 -2 134 -2l342 6q252 0 383 -125q106 -102 106 -233q0 -186 -88 -276t-291 -134v-4q51 -18 95 -78q16 -18 94 -128
t90 -134t84 -120q72 -97 98 -115q49 -35 148 -35q16 0 16 -17v-45q0 -18 -16 -18l-160 6q-74 0 -166 -6q-53 45 -226 357q-5 9 -73 109t-101 129q-76 66 -175 66q-39 0 -68 -6v-114q0 -319 6 -390t49 -71h129q16 0 17 -17v-45q0 -12 -4 -15t-19 -3l-268 6q-171 0 -211 -3
t-45 -3z" />
    <glyph glyph-name="rcaron" unicode="&#x159;" horiz-adv-x="698" 
d="M174 1323l225 -156l205 154q12 8 19 2l18 -18q6 -6 -6 -21l-215 -268q-18 -18 -26 -18t-25 20l-226 268q-10 10 -4 17l17 18q6 10 18 2zM49 14v35q0 18 23 19h80q45 0 45 38q2 68 2 246v193q-1 75 -15 103t-59 52l-39 21q-16 6 -16 14v13q0 10 16 18l203 104q16 8 28 9
q14 0 15 -25l10 -141h8q49 76 116 127t123 51t84 -27q27 -28 27 -66t-28 -68t-56 -30t-58 16t-71 17q-76 0 -120 -86q-20 -37 -21 -65v-430q0 -48 12 -66t45 -18h97q14 0 14 -19v-37q0 -18 -10 -18l-217 6l-226 -6q-12 0 -12 20z" />
    <glyph glyph-name="Sacute" unicode="&#x15a;" horiz-adv-x="1122" 
d="M812 1896q32 0 54 -22t21 -49q0 -51 -60 -82l-344 -168q-8 -6 -14 0l-25 33q-8 8 5 16l280 231q51 41 83 41zM915 1430l29 -323q0 -13 -10 -15l-25 -7q-8 -4 -12 7q-37 133 -123 224t-219 91t-195 -74q-62 -75 -61 -177t69 -172t228 -118q94 -31 137 -46t101 -48
q182 -105 182 -363q0 -181 -112 -311t-302 -129q-192 0 -330 107q-33 24 -46 24t-30 -30t-41 -29q-24 0 -19 32q4 31 20 197t17 176t13 11l31 -2q12 0 12 -17q4 -129 74 -237q45 -72 123 -112t174 -40t182 67q86 68 86 202t-83 209t-264 139t-267 155q-102 102 -102 299
q0 143 127 262q104 98 286 99q133 0 242 -51q25 -12 39 2l26 24q16 12 27 12q16 0 16 -38z" />
    <glyph glyph-name="sacute" unicode="&#x15b;" horiz-adv-x="729" 
d="M577 1323q45 0 61 -46t-40 -89l-268 -193q-7 -6 -13 0l-24 21q-6 6 0 12l196 244q43 51 88 51zM343 -25q-130 0 -210 60q-8 4 -12 28l-35 195q-2 12 12 16l27 7q12 2 18 -13l52 -100q25 -47 41 -69q42 -58 120 -58t128 36q50 35 50 105t-42 113q-43 43 -156 74
q-242 70 -242 260q0 104 85 177t195 73t195 -43q33 -16 37 -37l31 -144q0 -12 -14 -18l-25 -8q-10 -2 -18 10l-70 94q-51 80 -143 80q-63 0 -111 -36t-47 -85q0 -79 35 -115t160 -70t185 -92t60 -175t-88 -191t-218 -74z" />
    <glyph glyph-name="Scedilla" unicode="&#x15e;" horiz-adv-x="1122" 
d="M915 1430l29 -323q0 -13 -10 -15l-25 -7q-8 -4 -12 7q-37 133 -123 224t-219 91t-195 -74q-62 -75 -61 -177t69 -172t228 -118q94 -31 137 -46t101 -48q182 -105 182 -354q0 -180 -100 -306t-275 -141l-94 -110q57 -15 97 -55t40 -85q0 -90 -105 -147t-219 -57
q-41 0 -41 41q-1 28 61 28t115 31q52 31 52 84q0 74 -131 104l137 166q-156 10 -281 105q-33 24 -46 24t-30 -30t-41 -29q-24 0 -19 32q4 31 20 197t17 176t13 11l31 -2q12 0 12 -17q4 -129 74 -237q45 -72 123 -112t174 -40t182 67q86 68 86 202t-84 209t-256 130t-274 164
q-102 102 -102 299q0 143 127 262q104 98 286 99q133 0 242 -51q25 -12 39 2l26 24q16 12 27 12q16 0 16 -38z" />
    <glyph glyph-name="scedilla" unicode="&#x15f;" horiz-adv-x="729" 
d="M469 -279q0 -90 -101 -147t-212 -57q-41 0 -41 41q0 28 61 28t116 31q54 31 54 84q0 80 -135 104l139 170h-10q-127 0 -207 60q-8 4 -12 28l-35 195q-2 12 12 16l27 7q12 2 18 -13l52 -100q23 -45 39 -68q42 -59 139 -59q61 0 111 36q50 35 50 105t-42 113
q-43 43 -156 74q-242 70 -242 260q0 104 85 177t195 73t195 -43q33 -16 37 -37l31 -144q0 -12 -14 -18l-25 -8q-10 -2 -18 10l-70 94q-58 80 -132 80t-122 -36t-47 -85q0 -79 35 -115t160 -70t186 -92q61 -57 61 -159t-54 -170t-142 -94l-113 -131q51 -15 89 -55t38 -85z
" />
    <glyph glyph-name="Scaron" unicode="&#x160;" horiz-adv-x="1122" 
d="M601 1577q-5 0 -28 18l-258 230q-8 8 -2 16l15 19q6 8 18 2l268 -115l240 113q16 10 20 2l17 -21q6 -6 -4 -18l-258 -228q-23 -18 -28 -18zM915 1430l29 -323q0 -13 -10 -15l-25 -7q-8 -4 -12 7q-37 133 -123 224t-219 91t-195 -74q-62 -75 -61 -177t69 -172t228 -118
q94 -31 137 -46t101 -48q182 -105 182 -363q0 -181 -112 -311t-302 -129q-192 0 -330 107q-33 24 -46 24t-30 -30t-41 -29q-24 0 -19 32q4 31 20 197t17 176t13 11l31 -2q12 0 12 -17q4 -129 74 -237q45 -72 123 -112t174 -40t182 67q86 68 86 202t-83 209t-264 139
t-267 155q-102 102 -102 299q0 143 127 262q104 98 286 99q133 0 242 -51q25 -12 39 2l26 24q16 12 27 12q16 0 16 -38z" />
    <glyph glyph-name="scaron" unicode="&#x161;" horiz-adv-x="729" 
d="M174 1323l225 -156l205 154q12 8 19 2l18 -18q6 -6 -6 -21l-215 -268q-18 -18 -26 -18t-25 20l-226 268q-10 10 -4 17l17 18q6 10 18 2zM343 -25q-130 0 -210 60q-8 4 -12 28l-35 195q-2 12 12 16l27 7q12 2 18 -13l52 -100q25 -47 41 -69q42 -58 120 -58t128 36
q50 35 50 105t-42 113q-43 43 -156 74q-242 70 -242 260q0 104 85 177t195 73t195 -43q33 -16 37 -37l31 -144q0 -12 -14 -18l-25 -8q-10 -2 -18 10l-70 94q-51 80 -143 80q-63 0 -111 -36t-47 -85q0 -79 35 -115t160 -70t185 -92t60 -175t-88 -191t-218 -74z" />
    <glyph glyph-name="Tcommaaccent" unicode="&#x162;" horiz-adv-x="1437" 
d="M606 -186q0 22 24 42t66 21q43 0 85 -40q42 -41 42 -123t-63 -160t-115 -107q-15 -14 -31 -14t-16 12t14 25q109 102 109 190q0 31 -27 47l-10 2q-62 31 -74 69q-4 14 -4 36zM399 -6q-18 0 -18 20v39q0 20 14 21h140q29 0 47 14t22 54t4 708v526h-51q-244 0 -329 -26
t-177 -236q-6 -12 -20 -10l-37 10q-12 4 -8 16q88 318 94 356t21 38t26 -8l27 -19q45 -33 116 -35q326 -12 387 -12h99q111 0 411 12q63 2 107 29l39 25q14 8 26 8q13 0 15 -18q33 -245 61 -384q2 -14 -12 -16l-33 -8q-10 -2 -16 14q-84 200 -150 232t-350 32h-57v-583
q0 -602 2 -637q6 -82 69 -82h129q20 0 21 -21v-43q0 -16 -21 -16l-286 6q-190 0 -247 -3t-65 -3z" />
    <glyph glyph-name="tcommaaccent" unicode="&#x163;" horiz-adv-x="653" 
d="M215 -195q-1 31 23 51t67 21q43 0 85 -40q42 -41 42 -123t-63 -160t-115 -107q-14 -14 -30 -14t-17 12q0 12 14 25q109 102 109 190q0 31 -27 47q-43 10 -77 53q-12 14 -11 45zM199 487q0 88 4 261h-125q-31 0 -31 24q0 14 39 38t126 116t105 141q9 20 29 20t21 -30
l-11 -203h285q23 0 14 -18l-20 -72q-4 -16 -19 -16h-264q-6 -142 -6 -287v-205q0 -102 34 -141t73 -39q94 0 135 26q14 8 24 -4l11 -18q8 -10 -12 -30t-80 -48t-137 -27q-77 -1 -139 57t-62 118l6 292v45z" />
    <glyph glyph-name="Tcaron" unicode="&#x164;" horiz-adv-x="1437" 
d="M718 1577q-4 0 -28 18l-258 230q-8 8 -2 16l14 19q7 8 19 2l268 -115l240 113q16 10 20 2l17 -21q8 -6 -4 -18l-259 -228q-23 -18 -27 -18zM399 -6q-18 0 -18 20v39q0 20 14 21h140q29 0 47 14t22 54t4 708v526h-51q-244 0 -329 -26t-177 -236q-6 -12 -20 -10l-37 10
q-12 4 -8 16q88 318 94 356t21 38t26 -8l27 -19q45 -33 116 -35q326 -12 387 -12h99q111 0 411 12q63 2 107 29l39 25q14 8 26 8q13 0 15 -18q33 -245 61 -384q2 -14 -12 -16l-33 -8q-10 -2 -16 14q-84 200 -150 232t-350 32h-57v-583q0 -602 2 -637q6 -82 69 -82h129
q20 0 21 -21v-43q0 -16 -21 -16l-286 6q-190 0 -247 -3t-65 -3z" />
    <glyph glyph-name="tcaron" unicode="&#x165;" horiz-adv-x="776" 
d="M522 1360q0 23 24 43t66 20q43 0 85 -40q42 -41 42 -123t-63 -160t-115 -107q-15 -14 -31 -14t-16 12t14 25q109 102 109 190q0 34 -35 51q-10 2 -16 6q-64 32 -64 97zM199 487q0 88 4 261h-125q-31 0 -31 24q0 14 39 38t126 116t105 141q9 20 29 20t21 -30l-11 -203h285
q23 0 14 -18l-20 -72q-4 -16 -19 -16h-264q-6 -142 -6 -287v-205q0 -102 34 -141t73 -39q94 0 135 26q14 8 24 -4l11 -18q8 -10 -12 -30t-80 -48t-137 -27q-77 -1 -139 57t-62 118l6 292v45z" />
    <glyph glyph-name="Umacron" unicode="&#x16a;" horiz-adv-x="1527" 
d="M1069 1708v-68q0 -14 -22 -14h-490q-16 0 -16 14v68q0 14 16 14h494q18 0 18 -14zM1513 1442v-45q0 -20 -12 -21h-84q-48 0 -64 -24t-18 -33q-2 -8 -4 -15q-2 -6 -4 -18t-2 -339t-10 -460q-18 -264 -172 -395q-133 -123 -385 -123q-176 0 -277 43q-193 78 -243 275
q-33 123 -33 497v488q-1 57 -17 81t-61 23h-96q-14 0 -15 19v45q0 16 19 16l280 -6l281 6q18 0 18 -12v-53q0 -14 -16 -15h-102q-43 0 -69 -24t-30 -61q-4 -36 -4 -265v-135q0 -106 10 -434q10 -406 392 -408q413 0 413 473v439q0 240 -7 303q-13 114 -95 112h-90
q-14 0 -15 17v49q0 14 15 14l252 -6l225 6q20 0 20 -14z" />
    <glyph glyph-name="umacron" unicode="&#x16b;" horiz-adv-x="1036" 
d="M276 1063v65q0 14 17 15h450q18 0 19 -15v-65q0 -14 -23 -14h-446q-17 0 -17 14zM854 567v-151q0 -199 4 -242q6 -72 51 -72t67 6t28 -8l6 -26q2 -14 -11 -19l-215 -71q-25 -8 -41 -9q-16 0 -18 25l-16 119h-4q-43 -61 -123 -103t-156 -41q-122 -1 -186 85t-75 152
t-11 259v238q-2 41 -20 57t-61 19q-42 3 -42 16v37q0 16 22 16h183q12 0 28 4l23 2q27 0 22 -24q-8 -74 -8 -236v-145q0 -9 -2 -67t0 -86q17 -234 211 -232q39 0 92 32q103 61 105 125v488q-2 39 -24 53t-66 16t-44 17v35q1 12 5 15t20 3h190q14 0 35 4l25 2q23 0 18 -20
q-12 -111 -12 -273z" />
    <glyph glyph-name="Uring" unicode="&#x16e;" horiz-adv-x="1527" 
d="M814 1657q46 -1 72 27t26 75t-28 75t-70 27t-69 -32t-27 -73t26 -70q24 -28 70 -29zM805 1606q-80 0 -136 40q-57 40 -57 108t62 113q62 46 153 46t141 -40q50 -41 50 -115t-66 -113t-147 -39zM1513 1442v-45q0 -20 -12 -21h-84q-48 0 -64 -24t-18 -33q-2 -8 -4 -15
q-2 -6 -4 -18t-2 -339t-10 -460q-18 -264 -172 -395q-133 -123 -385 -123q-176 0 -277 43q-193 78 -243 275q-33 123 -33 497v488q-1 57 -17 81t-61 23h-96q-14 0 -15 19v45q0 16 19 16l280 -6l281 6q18 0 18 -12v-53q0 -14 -16 -15h-102q-43 0 -69 -24t-30 -61
q-4 -36 -4 -265v-135q0 -106 10 -434q10 -406 392 -408q413 0 413 473v439q0 240 -7 303q-13 114 -95 112h-90q-14 0 -15 17v49q0 14 15 14l252 -6l225 6q20 0 20 -14z" />
    <glyph glyph-name="uring" unicode="&#x16f;" horiz-adv-x="1036" 
d="M518 1063q92 0 92 98q0 39 -24 65q-25 26 -64 26q-38 0 -66 -28t-28 -69t24 -67t66 -25zM525 1303q87 0 137 -39t49 -103q-1 -63 -55 -105t-142 -42t-137 39t-49 101t55 106q55 43 142 43zM854 567v-151q0 -199 4 -242q6 -72 51 -72t67 6t28 -8l6 -26q2 -14 -11 -19
l-215 -71q-25 -8 -41 -9q-16 0 -18 25l-16 119h-4q-43 -61 -123 -103t-156 -41q-122 -1 -186 85t-75 152t-11 259v238q-2 41 -20 57t-61 19q-42 3 -42 16v37q0 16 22 16h183q12 0 28 4l23 2q27 0 22 -24q-8 -74 -8 -236v-145q0 -9 -2 -67t0 -86q17 -234 211 -232q39 0 92 32
q103 61 105 125v488q-2 39 -24 53t-66 16t-44 17v35q1 12 5 15t20 3h190q14 0 35 4l25 2q23 0 18 -20q-12 -111 -12 -273z" />
    <glyph glyph-name="Uhungarumlaut" unicode="&#x170;" horiz-adv-x="1527" 
d="M1151 1896q31 0 51 -22t20 -58q0 -38 -59 -69l-344 -172q-8 -6 -14 0l-25 33q-8 8 4 16l281 227q55 45 86 45zM823 1896q31 0 51 -22t20 -58q0 -38 -58 -69l-344 -172q-9 -6 -15 0l-24 33q-8 8 4 16l280 227q55 45 86 45zM1513 1442v-45q0 -20 -12 -21h-84q-48 0 -64 -24
t-18 -33q-2 -8 -4 -15q-2 -6 -4 -18t-2 -339t-10 -460q-18 -264 -172 -395q-133 -123 -385 -123q-176 0 -277 43q-193 78 -243 275q-33 123 -33 497v488q-1 57 -17 81t-61 23h-96q-14 0 -15 19v45q0 16 19 16l280 -6l281 6q18 0 18 -12v-53q0 -14 -16 -15h-102
q-43 0 -69 -24t-30 -61q-4 -36 -4 -265v-135q0 -106 10 -434q10 -406 392 -408q413 0 413 473v439q0 240 -7 303q-13 114 -95 112h-90q-14 0 -15 17v49q0 14 15 14l252 -6l225 6q20 0 20 -14z" />
    <glyph glyph-name="uhungarumlaut" unicode="&#x171;" horiz-adv-x="1036" 
d="M854 1323q43 0 56 -45t-42 -90l-264 -193q-6 -6 -12 0l-25 21q-6 6 0 12l201 244q43 51 86 51zM578 1323q42 0 56 -45t-42 -90l-264 -193q-7 -6 -13 0l-24 21q-6 6 0 12l201 244q44 51 86 51zM854 567v-151q0 -199 4 -242q6 -72 51 -72t67 6t28 -8l6 -26q2 -14 -11 -19
l-215 -71q-25 -8 -41 -9q-16 0 -18 25l-16 119h-4q-43 -61 -123 -103t-156 -41q-122 -1 -186 85t-75 152t-11 259v238q-2 41 -20 57t-61 19q-42 3 -42 16v37q0 16 22 16h183q12 0 28 4l23 2q27 0 22 -24q-8 -74 -8 -236v-145q0 -9 -2 -67t0 -86q17 -234 211 -232q39 0 92 32
q103 61 105 125v488q-2 39 -24 53t-66 16t-44 17v35q1 12 5 15t20 3h190q14 0 35 4l25 2q23 0 18 -20q-12 -111 -12 -273z" />
    <glyph glyph-name="Uogonek" unicode="&#x172;" horiz-adv-x="1527" 
d="M1513 1442v-45q0 -20 -12 -21h-84q-48 0 -64 -24t-18 -33q-2 -8 -4 -15q-2 -6 -4 -18t-2 -339t-10 -460q-18 -258 -172 -395q-27 -24 -93 -56t-89 -48q-67 -43 -131 -135t-64 -166q0 -145 121 -146q39 -1 77 15t40 16q18 0 18 -25t-56 -57t-108 -31q-186 0 -231 94
q-23 44 -23 105q0 119 79 192t161 123q-53 -4 -86 -4q-442 0 -520 318q-33 123 -33 497v488q-1 57 -17 81t-61 23h-96q-14 0 -15 19v45q0 16 19 16l280 -6l281 6q18 0 18 -12v-53q0 -14 -16 -15h-102q-43 0 -69 -24t-30 -61q-4 -36 -4 -265v-135q0 -106 10 -434
q10 -406 392 -408q413 0 413 473v439q0 240 -7 303q-13 114 -95 112h-90q-14 0 -15 17v49q0 14 15 14l252 -6l225 6q20 0 20 -14z" />
    <glyph glyph-name="uogonek" unicode="&#x173;" horiz-adv-x="1036" 
d="M854 567v-151q0 -199 4 -242q6 -72 51 -72t67 6t28 -8l6 -26q2 -14 -13 -21q-90 -29 -141 -59q-162 -96 -162 -254q0 -61 31 -101t76 -40t73 14t33 14q19 -1 19 -27t-39 -55t-88 -28q-256 0 -256 178q0 150 186 285q-4 18 -20 139h-4q-43 -61 -123 -103t-156 -41
q-122 -1 -186 85t-75 152t-11 259v238q0 72 -78 77q-45 6 -45 15v37q0 16 22 16h183q12 0 28 4l23 2q27 0 22 -24q-8 -74 -8 -236v-145q0 -9 -2 -67t0 -86q17 -234 211 -232q39 0 92 32q103 61 105 125v488q0 39 -23 54t-67 17t-44 15v35q1 12 5 15t20 3h190q14 0 35 4l25 2
q23 0 18 -20q-12 -111 -12 -273z" />
    <glyph glyph-name="Ydieresis" unicode="&#x178;" horiz-adv-x="1361" 
d="M945 1802q46 0 74 -26t28 -70q0 -43 -27 -69q-27 -25 -65 -25q-39 0 -73 24t-34 64q0 41 25 72q26 30 72 30zM440 1700q0 42 26 72t71 30t73 -26t27 -70q0 -43 -27 -69q-28 -25 -64 -25t-71 24t-35 64zM1208 1450l185 6q16 0 16 -12v-49q0 -18 -16 -19h-52q-53 0 -97 -42
t-488 -685v-268q0 -145 6 -213t26 -81t66 -13h80q14 0 14 -15v-47q0 -18 -14 -18l-277 6q-173 0 -219 -3t-55 -3q-8 0 -8 16v49q0 14 14 15h100q68 0 72 51q6 86 6 381v119q-27 53 -207 354t-221 349t-104 48h-51q-14 0 -15 15v53q0 12 15 12l239 -6l305 6q14 0 15 -10v-51
q0 -18 -15 -19h-67q-45 0 -57 -14t-7 -44q4 -30 322 -603q20 31 192 291t179 290q14 27 2 54t-70 26h-55q-14 0 -15 19v49q0 12 15 12z" />
    <glyph glyph-name="Zacute" unicode="&#x179;" horiz-adv-x="1437" 
d="M1021 1896q31 0 53 -22t22 -49q0 -51 -60 -82l-344 -168q-8 -6 -14 0l-25 33q-8 8 4 16l281 231q51 41 83 41zM1321 1462q55 0 7 -56q-24 -28 -484 -658t-488 -674h721q49 31 148 140q98 110 139 163q8 8 18 4l29 -16q10 -6 -3 -32q-14 -26 -70 -163t-65 -169t-30 -32
q-4 0 -10 1q-7 1 -19 3t-22 4q-176 23 -633 23h-432q-39 0 -39 16q0 27 12 39q70 82 511 691t458 638h-555q-41 0 -77 -30t-130 -144q-94 -115 -125 -163q-6 -10 -18 -3l-27 13q-8 6 -4 18l129 369q8 23 25 22q9 0 73 -8t523 -8l221 6q111 6 217 6z" />
    <glyph glyph-name="zacute" unicode="&#x17a;" horiz-adv-x="888" 
d="M657 1323q45 0 61 -46t-40 -89l-268 -193q-7 -6 -13 0l-24 21q-6 6 0 12l196 244q43 51 88 51zM387 0h-283q-37 0 -12 35l526 758h-217q-98 0 -148 -35t-173 -189q-12 -16 -23 -8l-26 12q-10 6 -4 21l135 287q33 -10 98 -19q100 -8 268 -8h283q14 0 20 -9t-2 -20
l-542 -762h291q119 0 280 220q10 16 27 6l20 -15q12 -8 4 -20l-157 -279q-67 25 -365 25z" />
    <glyph glyph-name="Zdotaccent" unicode="&#x17b;" horiz-adv-x="1437" 
d="M778 1823q51 0 82 -30t31 -77t-30 -76q-30 -28 -72 -28q-41 0 -79 26t-38 71q0 46 27 80q28 34 79 34zM1321 1462q55 0 7 -56q-24 -28 -484 -658t-488 -674h721q49 31 148 140q98 110 139 163q8 8 18 4l29 -16q10 -6 -3 -32q-14 -26 -70 -163t-65 -169t-30 -32
q-4 0 -10 1q-7 1 -19 3t-22 4q-176 23 -633 23h-432q-39 0 -39 16q0 27 12 39q70 82 511 691t458 638h-555q-41 0 -77 -30t-130 -144q-94 -115 -125 -163q-6 -10 -18 -3l-27 13q-8 6 -4 18l129 369q8 23 25 22q9 0 73 -8t523 -8l221 6q111 6 217 6z" />
    <glyph glyph-name="zdotaccent" unicode="&#x17c;" horiz-adv-x="888" 
d="M490 1114q-48 0 -84 31t-37 74t33 75t88 33q54 0 82 -31q28 -30 28 -72t-31 -76t-79 -34zM387 0h-283q-37 0 -12 35l526 758h-217q-98 0 -148 -35t-173 -189q-12 -16 -23 -8l-26 12q-10 6 -4 21l135 287q33 -10 98 -19q100 -8 268 -8h283q14 0 20 -9t-2 -20l-542 -762
h291q119 0 280 220q10 16 27 6l20 -15q12 -8 4 -20l-157 -279q-67 25 -365 25z" />
    <glyph glyph-name="Zcaron" unicode="&#x17d;" horiz-adv-x="1437" 
d="M769 1577q-5 0 -28 18l-258 230q-8 8 -2 16l15 19q6 8 18 2l268 -115l240 113q16 10 20 2l17 -21q6 -6 -4 -18l-258 -228q-23 -18 -28 -18zM1321 1462q55 0 7 -56q-24 -28 -484 -658t-488 -674h721q49 31 148 140q98 110 139 163q8 8 18 4l29 -16q10 -6 -3 -32
q-14 -26 -70 -163t-65 -169t-30 -32q-4 0 -10 1q-7 1 -19 3t-22 4q-176 23 -633 23h-432q-39 0 -39 16q0 27 12 39q70 82 511 691t458 638h-555q-41 0 -77 -30t-130 -144q-94 -115 -125 -163q-6 -10 -18 -3l-27 13q-8 6 -4 18l129 369q8 23 25 22q9 0 73 -8t523 -8l221 6
q111 6 217 6z" />
    <glyph glyph-name="zcaron" unicode="&#x17e;" horiz-adv-x="888" 
d="M281 1323l225 -156l205 154q12 8 18 2l19 -18q6 -6 -7 -21l-215 -268q-18 -18 -26 -18t-25 20l-225 268q-10 10 -4 17l16 18q7 10 19 2zM387 0h-283q-37 0 -12 35l526 758h-217q-98 0 -148 -35t-173 -189q-12 -16 -23 -8l-26 12q-10 6 -4 21l135 287q33 -10 98 -19
q100 -8 268 -8h283q14 0 20 -9t-2 -20l-542 -762h291q119 0 280 220q10 16 27 6l20 -15q12 -8 4 -20l-157 -279q-67 25 -365 25z" />
    <glyph glyph-name="longs" unicode="&#x17f;" horiz-adv-x="583" 
d="M51 53q0 14 21 15h98q27 0 37 16t12 55v617h-137q-16 0 -12 22l6 62q2 14 24 14h119v39q0 270 137 426q147 162 336 162q78 0 132 -30t54 -75q0 -46 -29 -72t-59 -26t-52 12t-57 53q-34 41 -89 41q-165 0 -206 -199q-17 -83 -18 -131t-1 -159v-322q0 -429 3 -455t12 -38
t40 -12h117q23 0 22 -17v-33q0 -25 -14 -24q-2 0 -31 1l-87 3q-58 2 -128 2l-233 -6q-16 0 -17 14v45z" />
    <glyph glyph-name="florin" unicode="&#x192;" 
d="M786 809q23 0 19 -12l-14 -49q-2 -12 -25 -13h-205l-47 -428q-33 -295 -138 -433t-255 -138q-80 0 -131 37t-51 80q1 88 69 88t105 -95q14 -35 63 -34q82 0 123 102t68 356l49 465h-158q-18 0 -12 19l14 43q2 12 19 12h147q39 291 161 440t283 150q88 0 144 -39t55 -81
q0 -42 -28 -65t-72 -22q-63 0 -80 82q-3 16 -23 32t-61 17q-95 0 -151 -120t-83 -394h215z" />
    <glyph glyph-name="Scommaaccent" unicode="&#x218;" horiz-adv-x="1122" 
d="M539 -123q43 0 85 -40q42 -41 42 -123t-64 -160t-115 -107q-14 -14 -30 -14t-17 14q0 10 15 23q109 102 108 190q0 31 -26 47q-43 10 -66 38q-22 29 -22 60t23 52q24 20 67 20zM915 1430l29 -323q0 -13 -10 -15l-25 -7q-8 -4 -12 7q-37 133 -123 224t-219 91t-195 -74
q-62 -75 -61 -177t69 -172t228 -118q94 -31 137 -46t101 -48q182 -105 182 -363q0 -181 -112 -311t-302 -129q-192 0 -330 107q-33 24 -46 24t-30 -30t-41 -29q-24 0 -19 32q4 31 20 197t17 176t13 11l31 -2q12 0 12 -17q4 -129 74 -237q45 -72 123 -112t174 -40t182 67
q86 68 86 202t-83 209t-264 139t-267 155q-102 102 -102 299q0 143 127 262q104 98 286 99q133 0 242 -51q25 -12 39 2l26 24q16 12 27 12q16 0 16 -38z" />
    <glyph glyph-name="scommaaccent" unicode="&#x219;" horiz-adv-x="729" 
d="M342 -123q43 0 85 -40q42 -41 42 -123t-63 -160t-115 -107q-15 -14 -31 -14t-16 12t14 25q109 102 109 190q0 31 -27 47q-35 9 -57 31t-26 37q-5 17 -5 39t23 43q24 20 67 20zM343 -25q-130 0 -210 60q-8 4 -12 28l-35 195q-2 12 12 16l27 7q12 2 18 -13l52 -100
q25 -47 41 -69q42 -58 120 -58t128 36q50 35 50 105t-42 113q-43 43 -156 74q-242 70 -242 260q0 104 85 177t195 73t195 -43q33 -16 37 -37l31 -144q0 -12 -14 -18l-25 -8q-10 -2 -18 10l-70 94q-51 80 -143 80q-63 0 -111 -36t-47 -85q0 -79 35 -115t160 -70t185 -92
t60 -175t-88 -191t-218 -74z" />
    <glyph glyph-name="uni021A" unicode="&#x21a;" horiz-adv-x="1437" 
d="M606 -186q0 22 24 42t66 21q43 0 85 -40q42 -41 42 -123t-63 -160t-115 -107q-15 -14 -31 -14t-16 12t14 25q109 102 109 190q0 31 -27 47l-10 2q-62 31 -74 69q-4 14 -4 36zM399 -6q-18 0 -18 20v39q0 20 14 21h140q29 0 47 14t22 54t4 708v526h-51q-244 0 -329 -26
t-177 -236q-6 -12 -20 -10l-37 10q-12 4 -8 16q88 318 94 356t21 38t26 -8l27 -19q45 -33 116 -35q326 -12 387 -12h99q111 0 411 12q63 2 107 29l39 25q14 8 26 8q13 0 15 -18q33 -245 61 -384q2 -14 -12 -16l-33 -8q-10 -2 -16 14q-84 200 -150 232t-350 32h-57v-583
q0 -602 2 -637q6 -82 69 -82h129q20 0 21 -21v-43q0 -16 -21 -16l-286 6q-190 0 -247 -3t-65 -3z" />
    <glyph glyph-name="uni021B" unicode="&#x21b;" horiz-adv-x="653" 
d="M215 -195q-1 31 23 51t67 21q43 0 85 -40q42 -41 42 -123t-63 -160t-115 -107q-14 -14 -30 -14t-17 12q0 12 14 25q109 102 109 190q0 31 -27 47q-43 10 -77 53q-12 14 -11 45zM199 487q0 88 4 261h-125q-31 0 -31 24q0 14 39 38t126 116t105 141q9 20 29 20t21 -30
l-11 -203h285q23 0 14 -18l-20 -72q-4 -16 -19 -16h-264q-6 -142 -6 -287v-205q0 -102 34 -141t73 -39q94 0 135 26q14 8 24 -4l11 -18q8 -10 -12 -30t-80 -48t-137 -27q-77 -1 -139 57t-62 118l6 292v45z" />
    <glyph glyph-name="circumflex" unicode="&#x2c6;" horiz-adv-x="628" 
d="M311 1325q8 0 25 -20l225 -269q10 -10 4 -16l-16 -19q-7 -10 -19 -2l-223 158l-207 -156q-12 -8 -18 -2l-19 19q-6 6 7 20l215 269q18 18 26 18z" />
    <glyph glyph-name="caron" unicode="&#x2c7;" horiz-adv-x="628" 
d="M98 1323l226 -156l204 154q12 8 19 2l18 -18q8 -6 -6 -21l-215 -268q-18 -18 -26 -18t-25 20l-225 268q-10 10 -5 17l17 18q6 10 18 2z" />
    <glyph glyph-name="uni02C9" unicode="&#x2c9;" horiz-adv-x="608" 
d="M61 1063v65q0 14 17 15h450q18 0 19 -15v-65q0 -14 -23 -14h-446q-17 0 -17 14z" />
    <glyph glyph-name="breve" unicode="&#x2d8;" horiz-adv-x="667" 
d="M327 993q-93 0 -173 73t-93 171q-2 25 7 27l22 10q8 4 16 -12q32 -66 96 -105t132 -39t136 46t91 98q8 14 17 10l24 -12q8 -2 4 -19q-16 -84 -101 -166t-178 -82z" />
    <glyph glyph-name="dotaccent" unicode="&#x2d9;" horiz-adv-x="342" 
d="M175 1114q-48 0 -85 31t-37 74t34 75t87 33q53 0 82 -31q29 -30 29 -72t-31 -76t-79 -34z" />
    <glyph glyph-name="ring" unicode="&#x2da;" horiz-adv-x="505" 
d="M252 1063q92 0 92 98q0 39 -25 65t-63 26t-67 -28q-27 -28 -27 -69t24 -67t66 -25zM444 1161q0 -63 -54 -105t-142 -42t-137 39t-49 101t54 106q56 43 143 43t136 -39t49 -103z" />
    <glyph glyph-name="ogonek" unicode="&#x2db;" horiz-adv-x="464" 
d="M416 -399q0 -27 -39 -56t-88 -28q-256 0 -256 178q0 92 51 154q36 48 63 71q28 24 53 46t48 34h80q-76 -74 -110 -127t-34 -123t31 -111q31 -40 76 -40t74 14t32 14q19 1 19 -26z" />
    <glyph glyph-name="tilde" unicode="&#x2dc;" horiz-adv-x="698" 
d="M594 1243h35q14 1 3 -51t-51 -96q-41 -44 -95 -45q-54 1 -139 29t-129 28q-80 0 -97 -86q-2 -10 -15 -10h-36q-14 0 -7 35q13 81 57 125t99 44t149 -29q94 -30 145 -30q50 0 67 74q2 12 14 12z" />
    <glyph glyph-name="hungarumlaut" unicode="&#x2dd;" horiz-adv-x="747" 
d="M709 1323q43 0 56 -45t-42 -90l-264 -193q-7 -6 -13 0l-24 21q-6 6 0 12l201 244q43 51 86 51zM432 1323q43 0 56 -45t-42 -90l-264 -193q-6 -6 -12 0l-25 21q-6 6 0 12l201 244q43 51 86 51z" />
    <glyph glyph-name="pi" unicode="&#x3c0;" horiz-adv-x="1077" 
d="M870 850q45 0 66 10q20 10 37 49l51 -14q-14 -96 -47 -164q-29 -8 -150 -8q-12 -170 -8 -438q0 -180 78 -181q37 0 84 21l20 -39q-31 -47 -79 -79t-97 -32q-143 -4 -143 246q0 176 16 504q-109 2 -280 2v-41q0 -213 -30 -415t-75 -259q-78 -33 -125 -35l-14 37
q80 117 118 322t38 393q-170 0 -256 -72l-33 41q37 43 67 70q30 26 108 56t175 30q270 -4 479 -4z" />
    <glyph glyph-name="uni2010" unicode="&#x2010;" horiz-adv-x="827" 
d="M106 498v90q0 14 19 14h573q23 0 23 -22v-78q0 -14 -25 -15h-571q-19 -1 -19 11z" />
    <glyph glyph-name="figuredash" unicode="&#x2012;" 
d="M942 487h-860v115h860v-115z" />
    <glyph glyph-name="endash" unicode="&#x2013;" 
d="M1024 487h-1024v115h1024v-115z" />
    <glyph glyph-name="emdash" unicode="&#x2014;" horiz-adv-x="2048" 
d="M2048 602v-115h-2048v115h2048z" />
    <glyph glyph-name="quoteleft" unicode="&#x2018;" horiz-adv-x="389" 
d="M215 942q-51 0 -103 48t-52 132t50 167t110 136t86 54q25 2 26 -15q0 -14 -17 -26q-129 -123 -129 -232q0 -45 31 -57l36 -14q44 -19 64 -73q21 -54 -15 -87t-87 -33z" />
    <glyph glyph-name="quoteright" unicode="&#x2019;" horiz-adv-x="389" 
d="M70 1401q0 29 28 55t78 25q52 0 104 -48t52 -122q0 -135 -95 -245q-72 -79 -110 -102q-37 -22 -47 -22q-20 0 -21 16q0 14 17 27q129 123 129 232q0 45 -31 57q-35 10 -59 29q-45 32 -45 98z" />
    <glyph glyph-name="quotesinglbase" unicode="&#x201a;" horiz-adv-x="389" 
d="M176 229q52 0 104 -48t52 -122q0 -139 -87 -233q-122 -133 -167 -133q-18 0 -19 16q0 14 15 27q131 113 131 229q0 45 -31 58l-36 14q-68 30 -68 106q0 35 27 61q28 25 79 25z" />
    <glyph glyph-name="quotedblleft" unicode="&#x201c;" horiz-adv-x="737" 
d="M556 942q-50 0 -103 49t-53 132t50 166t111 136t86 55q26 1 27 -16q0 -14 -17 -26q-131 -119 -131 -232q0 -45 31 -57l36 -14q46 -21 67 -74q20 -54 -17 -86q-37 -33 -87 -33zM219 942q-51 0 -103 48t-52 132t50 167t110 136t86 54q25 2 26 -15q0 -14 -17 -26
q-129 -123 -129 -232q0 -45 31 -57l36 -14q44 -19 64 -73q21 -54 -15 -87t-87 -33z" />
    <glyph glyph-name="quotedblright" unicode="&#x201d;" horiz-adv-x="737" 
d="M547 1217q0 45 -37 59t-67 39q-31 25 -31 70t28 71t78 25q50 0 104 -48t54 -122q0 -135 -95 -245q-113 -124 -163 -124q-16 0 -17 16q0 14 17 27q129 117 129 232zM72 1401q0 29 28 55t78 25q52 0 104 -48t52 -122q0 -135 -95 -245q-71 -79 -109 -102q-38 -22 -48 -22
q-20 0 -21 16q0 14 17 27q129 123 129 232q0 45 -31 57q-38 13 -59 29q-45 32 -45 98z" />
    <glyph glyph-name="quotedblbase" unicode="&#x201e;" horiz-adv-x="737" 
d="M519 229q49 0 103 -48t54 -122q0 -139 -87 -233t-121 -114q-34 -19 -50 -19t-17 16q0 14 17 27q129 111 129 229q0 45 -31 58q-2 0 -13 5t-21 9q-70 26 -70 112q0 29 28 55q29 25 79 25zM178 229q52 0 104 -48t52 -122q0 -139 -87 -233q-122 -133 -165 -133q-20 0 -21 16
q0 14 17 27q129 117 129 229q0 45 -31 58l-36 14q-68 30 -68 106q0 35 27 61q28 25 79 25z" />
    <glyph glyph-name="dagger" unicode="&#x2020;" 
d="M535 -276h-43q-14 0 -15 24q-2 188 -30 496t-54 374q76 90 76 265q-68 0 -193 -31t-137 -31q-47 0 -67 26q-20 27 -20 59t25 57q26 25 70 24q8 1 129 -23t193 -24q0 82 -27 244q-26 162 -26 196t29 68q30 33 75 33t71 -31q25 -31 25 -68q0 -36 -30 -198t-31 -244
q70 0 198 24q127 24 155 24t47 -26q43 -58 0 -114q-19 -27 -66 -27q-6 0 -134 31t-200 31q0 -170 76 -265q-27 -66 -53 -368t-29 -508q0 -18 -14 -18z" />
    <glyph glyph-name="daggerdbl" unicode="&#x2021;" 
d="M521 1481q44 0 70 -31q25 -31 25 -68q0 -36 -30 -198t-31 -244q72 0 199 24t133 23q45 1 65 -25q44 -56 2 -114q-18 -27 -59 -27q-12 0 -140 31t-200 31q0 -145 57 -267q-57 -102 -57 -294q68 0 193 30t137 31q47 0 67 -26q20 -27 20 -59t-25 -56q-26 -24 -52 -25
q-26 0 -147 24t-193 23q0 -82 28 -242q27 -160 27 -197q0 -36 -32 -69q-32 -32 -74 -32q-43 0 -69 30q-25 30 -25 70q0 39 29 199q30 160 32 241q-72 0 -199 -24t-133 -23q-39 0 -63 28q-24 29 -23 57q-1 28 19 54t67 27q6 0 133 -31t199 -30q0 88 -18 172t-39 122
q57 137 57 267q-69 0 -193 -31t-137 -31q-47 0 -67 26q-20 27 -20 59t25 57q26 25 71 24q8 1 129 -23t192 -24q0 82 -28 244q-27 162 -27 196t30 68q31 33 75 33z" />
    <glyph glyph-name="bullet" unicode="&#x2022;" horiz-adv-x="696" 
d="M346 979q106 1 176 -65t70 -172t-69 -170t-169 -64t-175 68t-75 166q0 99 68 168t174 69z" />
    <glyph glyph-name="onedotenleader" unicode="&#x2024;" 
d="M520 -25q-47 0 -88 29t-41 80t30 89t87 38t91 -34t34 -86t-33 -84t-80 -32z" />
    <glyph glyph-name="twodotenleader" unicode="&#x2025;" 
d="M776 -25q-47 0 -88 29t-41 80t30 89t87 38t91 -34t34 -86t-33 -84t-80 -32zM264 -25q-47 0 -88 29t-41 80t30 89t87 38t91 -34t34 -86t-33 -84t-80 -32z" />
    <glyph glyph-name="ellipsis" unicode="&#x2026;" horiz-adv-x="2048" 
d="M1032 -25q-47 0 -88 29t-41 80t30 89t87 38t92 -34t35 -86t-34 -84t-81 -32zM1716 -25q-47 0 -89 29t-42 79t31 89t88 39t92 -34t35 -86t-34 -84t-81 -32zM349 -25q-48 0 -89 29t-41 79t31 89t88 39t92 -34t35 -86t-34 -84t-82 -32z" />
    <glyph glyph-name="perthousand" unicode="&#x2030;" horiz-adv-x="2252" 
d="M1905 840q278 0 307 -428q-2 -203 -83 -317t-214 -113q-243 0 -296 296q-11 60 -11 115q0 186 75 317q77 130 222 130zM1915 43q90 0 119 84q29 90 28 274q0 377 -164 377q-70 0 -104 -71q-43 -90 -43 -280t37 -284q20 -47 58 -73t69 -27zM1188 840q220 0 288 -285
q15 -68 19 -143q-2 -203 -83 -317t-214 -113q-243 0 -296 296q-11 60 -11 115q0 187 76 317t221 130zM1198 43q90 0 119 84q29 90 29 274q0 377 -164 377q-70 0 -105 -71q-43 -90 -43 -280t37 -284q20 -47 58 -73t69 -27zM372 -31q-7 1 -36 17t-29 24t10 25l832 1347
q8 16 16 17q8 -1 38 -17t30 -22t-8 -21l-832 -1343q-14 -27 -21 -27zM41 952q0 186 76 316t232 131q156 0 229 -149q59 -123 67 -279q-2 -203 -83 -317t-214 -113q-242 0 -296 296q-11 60 -11 115zM348 602q90 0 119 84q29 90 29 275q0 377 -164 376q-70 0 -105 -71
q-43 -90 -43 -280t37 -284q20 -48 58 -74t69 -26z" />
    <glyph glyph-name="guilsinglleft" unicode="&#x2039;" horiz-adv-x="520" 
d="M53 434q0 4 10 15l318 317q8 8 12 8t10 -6l29 -29q6 -6 6 -11t-8 -13l-186 -281l188 -282q6 -10 6 -14t-6 -11l-31 -29q-4 -4 -7 -4t-15 8l-318 320q-8 8 -8 12z" />
    <glyph glyph-name="guilsinglright" unicode="&#x203a;" horiz-adv-x="520" 
d="M125 94q-4 0 -10 6l-27 27q-6 6 -6 11t8 14l186 282l-188 281q-6 8 -6 13t6 11l29 31q4 4 8 4t14 -10l320 -318q8 -8 8 -12t-10 -14l-320 -318q-8 -8 -12 -8z" />
    <glyph glyph-name="fraction" unicode="&#x2044;" horiz-adv-x="129" 
d="M-322 -31q-8 1 -38 17t-29 22q0 6 8 27l762 1347q8 16 14 17q10 1 39 -15t31 -22t-6 -23l-762 -1343q-11 -27 -19 -27z" />
    <glyph glyph-name="zero.superior" unicode="&#x2070;" horiz-adv-x="686" 
d="M338 1663q225 0 291 -285q16 -70 16 -143q2 -201 -80 -315t-217 -115q-242 0 -296 296q-11 60 -11 116q0 186 76 316t221 130zM332 1602q-148 0 -148 -352q0 -190 37 -283q20 -47 58 -74t69 -27q90 0 119 84q29 90 29 275q0 377 -164 377z" />
    <glyph glyph-name="four.superior" unicode="&#x2074;" horiz-adv-x="686" 
d="M414 1135v290q0 17 -10 21t-19 -8l-231 -271q-27 -33 8 -32h252zM518 823h-88q-16 0 -16 21v194h-396q-18 0 -18 20t14 34l457 546q25 25 37 25q31 0 31 -47v-481h133q14 0 14 -19v-61q0 -16 -20 -17h-127v-192q-1 -23 -21 -23z" />
    <glyph glyph-name="five.superior" unicode="&#x2075;" horiz-adv-x="686" 
d="M35 884q0 68 57 68q27 0 51 -39q29 -37 102 -37t135 58q62 56 62 136t-45 132t-119 51q-74 0 -106 -11t-43 -7q-6 4 -6 31l49 346q4 27 27 26h295q29 0 44 14t33 48q7 10 27 4t16 -21l-47 -131q-10 -29 -55 -28h-281l-28 -172q45 10 135 10t164 -62t73 -163
q0 -143 -111 -238q-112 -94 -255 -94q-76 -1 -125 23t-49 56z" />
    <glyph glyph-name="six.superior" unicode="&#x2076;" horiz-adv-x="686" 
d="M337 1235q-79 0 -110 -55q-27 -44 -27 -104t10 -97q9 -37 47 -75t87 -38t83 22q65 41 66 140t-38 153t-118 54zM343 805q-126 0 -196 67q-84 84 -84 220q0 244 193 436q76 76 188 123q28 12 48 12q20 1 20 -21t-20 -28q-78 -31 -164 -133t-109 -230l4 -4q53 57 168 57
t178 -71q63 -72 64 -150q0 -125 -82 -201t-208 -77z" />
    <glyph glyph-name="seven.superior" unicode="&#x2077;" horiz-adv-x="686" 
d="M254 1532q-43 0 -68 -18t-59 -64q-10 -14 -29 -6q-16 8 -12 20l80 205q6 14 24 14t16 -17q-2 -16 14 -22q14 -6 63 -6h387q10 0 12 -10t-10 -28t-72 -126t-96 -188l-25 -51q-115 -217 -155 -367q-18 -63 -78 -63t-60 45q0 64 371 682h-303z" />
    <glyph glyph-name="eight.superior" unicode="&#x2078;" horiz-adv-x="686" 
d="M492 1462q0 59 -40 98t-107 39q-67 1 -105 -41t-39 -100t33 -93q34 -34 126 -85q57 27 95 75q37 48 37 107zM188 1001q0 -59 48 -98t110 -39q64 0 103 41t39 97t-45 96q-44 40 -132 82q-123 -53 -123 -179zM606 1022q0 -80 -76 -148t-201 -69q-126 0 -188 54
q-61 54 -61 122q0 139 176 229q-184 94 -184 220q0 90 80 162t198 71q118 0 187 -52q67 -52 67 -126t-44 -128t-142 -106q188 -90 188 -229z" />
    <glyph glyph-name="nine.superior" unicode="&#x2079;" horiz-adv-x="686" 
d="M469 1403q1 87 -31 145t-100 58t-112 -52t-44 -137q0 -86 40 -135t114 -49t115 57q18 27 18 113zM326 1663q145 0 217 -88t71 -197q0 -287 -217 -460q-98 -80 -202 -107q-18 -6 -44 -6q-26 -1 -26 21t29 30q90 27 187 126t118 237l-2 2q-74 -57 -152 -58q-133 0 -195 73
t-63 173q0 37 31 99t67 91q83 64 181 64z" />
    <glyph glyph-name="parenleft.superior" unicode="&#x207d;" horiz-adv-x="491" 
d="M102 1249q0 175 104 317t247 193q23 8 44 8t21 -22q0 -8 -24 -25q-268 -172 -268 -464t268 -470q25 -16 24 -24q0 -23 -22 -23q-64 0 -171 81q-223 168 -223 429z" />
    <glyph glyph-name="parenright.superior" unicode="&#x207e;" horiz-adv-x="491" 
d="M266 1255q0 293 -268 465q-25 16 -25 25q1 38 63 16t131 -74q222 -167 222 -421q0 -184 -103 -326t-247 -192q-23 -8 -45 -9q-20 0 -21 23q0 8 25 24q128 84 198 194t70 275z" />
    <glyph glyph-name="n.superior" unicode="&#x207f;" horiz-adv-x="768" 
d="M428 569v29q0 12 21 12h40q29 0 33 44t4 104v176q0 92 -41 129q-25 20 -89 20t-117 -55q-37 -35 -37 -82v-287q0 -29 7 -39t30 -10h38q14 0 15 -12v-31q0 -12 -10 -12l-156 4l-135 -4q-10 0 -11 12v31q0 12 15 12h45q31 0 31 31v326q0 55 -64 82q-22 11 -22 18v8
q0 6 12 15l153 67q20 10 30 10t9 -16l13 -86h2q35 41 94 71t124 30q115 -1 170 -95q26 -43 25 -72v-358q0 -31 33 -31h49q18 0 19 -12v-29q0 -14 -13 -14l-167 4l-138 -4q-12 0 -12 14z" />
    <glyph glyph-name="zero.inferior" unicode="&#x2080;" horiz-adv-x="686" 
d="M338 623q225 0 291 -285q16 -70 16 -143q2 -201 -80 -316t-217 -115q-94 0 -160 46t-96 118q-52 125 -51 248q0 186 76 316t221 131zM332 561q-148 1 -148 -351q0 -190 37 -284q20 -48 58 -74t69 -26q90 0 119 84q29 90 29 274q0 377 -164 377z" />
    <glyph glyph-name="one.inferior" unicode="&#x2081;" horiz-adv-x="686" 
d="M428 -80q0 -47 15 -59t79 -13h47q12 0 13 -12v-49q0 -10 -15 -10l-213 6l-215 -6q-14 0 -14 10v53q0 8 18 8h60q63 0 77 12t17 56l2 250v61q0 78 -4 172q-4 49 -31 50q-18 0 -53 -13l-80 -33q-16 -8 -20 -2l-23 41q-4 6 8 13l283 153q27 14 37 15q16 0 16 -19l-4 -360
v-324z" />
    <glyph glyph-name="two.inferior" unicode="&#x2082;" horiz-adv-x="686" 
d="M301 518q-106 0 -182 -98q-10 -16 -23 -10l-26 14q-6 2 -4 14q25 61 94 123q70 61 175 61t173 -54q68 -56 67 -160q0 -143 -161 -314q-121 -129 -217 -200v-5h227q55 1 87 21t58 59q10 14 35 6t17 -26l-84 -182q-3 -13 -25 -13t-32 14t-64 15h-289l-117 -4q-8 0 -11 13
t5 20q172 141 281 260q150 162 149 295q0 75 -42 113t-91 38z" />
    <glyph glyph-name="three.inferior" unicode="&#x2083;" horiz-adv-x="686" 
d="M47 -132q0 28 15 48t43 21t51 -46l8 -22q32 -41 110 -41t129 51t51 120t-48 125q-49 56 -123 69q-29 6 -29 28q4 20 22 23q57 4 105 50q47 46 47 104t-35 95q-35 38 -86 37q-119 0 -162 -118q-6 -18 -20 -15l-27 6q-12 2 -8 21q16 80 76 139t172 59t162 -52t51 -109
q0 -131 -145 -215q72 -14 131 -74t59 -137q0 -121 -95 -196t-239 -75q-80 0 -131 18t-68 38q-16 20 -16 48z" />
    <glyph glyph-name="four.inferior" unicode="&#x2084;" horiz-adv-x="686" 
d="M414 94v291q0 17 -10 21t-19 -9l-231 -270q-27 -33 8 -33h252zM518 -217h-88q-16 0 -16 20v195h-396q-18 0 -18 19t14 34l457 547q25 25 37 25q31 0 31 -48v-481h133q14 0 14 -18v-62q0 -16 -20 -16h-127v-193q-1 -22 -21 -22z" />
    <glyph glyph-name="five.inferior" unicode="&#x2085;" horiz-adv-x="686" 
d="M35 -156q0 68 57 68q27 0 51 -39q29 -37 102 -37t135 58t62 136q0 80 -45 132t-119 51q-74 0 -106 -11t-43 -7q-6 4 -6 30l49 346q4 27 27 27h295q29 0 44 13t33 48q6 10 27 5q20 -6 16 -21l-47 -131q-10 -29 -55 -29h-281l-28 -172q45 11 135 11t164 -62t73 -164
q1 -143 -111 -237t-255 -95q-76 0 -125 24t-49 56z" />
    <glyph glyph-name="six.inferior" unicode="&#x2086;" horiz-adv-x="686" 
d="M344 -174q49 0 83 22q65 41 66 139q1 99 -38 153t-118 54t-110 -55q-27 -43 -27 -103t10 -98q9 -36 47 -74t87 -38zM343 -236q-126 0 -196 68q-84 84 -84 219q0 244 193 436q76 76 188 123q27 12 48 13q20 1 20 -21t-20 -29q-78 -31 -164 -133t-109 -229l4 -4
q53 57 168 57t178 -72t64 -149q0 -125 -82 -202t-208 -77z" />
    <glyph glyph-name="seven.inferior" unicode="&#x2087;" horiz-adv-x="686" 
d="M254 492q-43 0 -68 -18t-59 -64q-10 -14 -29 -7q-16 8 -12 21l80 205q6 14 24 14t16 -17t13 -23q15 -5 64 -5h387q10 0 12 -10t-10 -28t-72 -126t-96 -188l-25 -51q-114 -215 -155 -367q-18 -64 -78 -64t-60 46q0 62 371 682h-303z" />
    <glyph glyph-name="eight.inferior" unicode="&#x2088;" horiz-adv-x="686" 
d="M345 559q-67 0 -105 -42t-39 -100t33 -92t126 -85q57 27 95 74q37 48 37 108t-40 98q-40 39 -107 39zM188 -39q0 -59 48 -98t110 -39q64 0 103 41t39 97t-45 96q-44 40 -132 81q-123 -53 -123 -178zM606 -18q0 -80 -76 -149t-201 -69t-187 54t-62 123q0 139 176 229
q-184 94 -184 219q0 90 80 162t198 72q118 -1 187 -53q67 -52 67 -126t-44 -128t-142 -105q188 -90 188 -229z" />
    <glyph glyph-name="nine.inferior" unicode="&#x2089;" horiz-adv-x="686" 
d="M469 363q1 86 -31 144t-100 58t-112 -51t-44 -137t40 -135t114 -49t115 57q18 27 18 113zM326 623q145 0 217 -88t71 -197q0 -287 -217 -461q-98 -80 -202 -106q-18 -7 -44 -7t-26 22t29 30q90 27 187 126t118 236l-2 2q-74 -57 -152 -57q-133 0 -195 73t-63 173
q0 37 31 99t67 91q83 64 181 64z" />
    <glyph glyph-name="parenleft.inferior" unicode="&#x208d;" horiz-adv-x="491" 
d="M102 186q0 176 104 318t247 192q23 8 45 9q20 0 20 -23q0 -8 -24 -25q-268 -173 -268 -465t268 -468q25 -16 24 -25q0 -23 -22 -23q-64 0 -171 81q-223 168 -223 429z" />
    <glyph glyph-name="parenright.inferior" unicode="&#x208e;" horiz-adv-x="491" 
d="M266 193q0 293 -268 464q-25 16 -25 25q0 23 22 23q65 0 172 -81q222 -167 222 -421q0 -183 -103 -325t-247 -193q-23 -8 -45 -9q-20 0 -21 23q0 8 25 25q129 84 199 194q69 111 69 275z" />
    <glyph glyph-name="colonmonetary" unicode="&#x20a1;" 
d="M543 74q-35 0 -54 4l-26 -115q-2 -12 -21 -8l-32 8q-12 4 -11 21l25 106q-51 8 -100 35l-37 -158q-2 -12 -21 -8l-33 8q-14 4 -10 23l41 170q-117 80 -180 226t-64 302q0 258 142 438q57 74 153 125t211 52h4l29 133q6 12 16 10l39 -10q12 -6 11 -21l-27 -115
q55 -6 102 -22l35 152q2 14 17 10l39 -10q14 -4 10 -21l-35 -156q45 -21 78 -43t37 -4l14 51q4 10 23 11q18 0 18 -29t9 -168t13 -163t-4 -27l-26 -7q-6 -2 -8 2t-7 13q-14 57 -68 146t-100 128l-231 -979q37 -6 72 -6q227 0 381 219q8 10 14 6l23 -16q8 -2 2 -18
q-72 -127 -189 -211t-274 -84zM178 748q0 -264 121 -426l2 -3l213 920q-117 -2 -196 -83q-140 -144 -140 -408zM451 205l231 995q-41 25 -98 35l-226 -969q42 -41 93 -61z" />
    <glyph glyph-name="Euro" unicode="&#x20ac;" 
d="M778 596q8 0 14 -4t3 -8l-19 -49q-3 -13 -26 -13h-390q16 -213 90 -342t196 -129t184 78t98 205q6 18 18 14l31 -8q6 -2 6 -21q-20 -190 -20 -248q-1 -59 -5 -65t-21 -6t-22 12l-24 58q-12 29 -35 4q-96 -104 -217 -105q-203 0 -315 159t-142 394h-139q-10 0 -14 3t-2 12
l18 47q4 12 21 12h110q-4 33 -4 86t2 80h-123q-10 0 -14 3t-2 11l16 47q4 12 21 13h112q45 315 228 475q100 88 216 88t220 -103q23 -27 37 11l14 39q5 12 23 12t21 -5t3 -67t12 -162q12 -98 11 -105q0 -7 -17 -11l-16 -7q-14 -4 -23 17q-61 191 -123 249t-153 58
q-131 0 -203 -138t-82 -351h500q8 0 13 -4t3 -9l-18 -49q-4 -12 -27 -12h-473v-74l4 -92h424z" />
    <glyph glyph-name="uni2113" unicode="&#x2113;" horiz-adv-x="849" 
d="M201 672q1 238 33 350t111 194q79 84 178 84t156 -65q56 -66 56 -184q-1 -70 -31 -143t-62 -121q-32 -49 -100 -115t-92 -86t-88 -72v-131q0 -279 166 -279q121 0 220 127l38 -36q-131 -219 -327 -220q-125 0 -189 80q-70 80 -69 277v76l-113 -84l-25 49l138 114v185z
M362 815v-219q248 219 248 455q0 80 -32 130q-33 50 -86 50q-70 1 -100 -99t-30 -317z" />
    <glyph glyph-name="trademark" unicode="&#x2122;" horiz-adv-x="1859" 
d="M1537 1452h76l95 2h27q12 0 12 -10v-35q0 -14 -8 -14h-21q-29 -1 -37 -11t-8 -32l-4 -271l4 -252q0 -55 35 -55h49q8 0 8 -12v-35q0 -12 -10 -12l-147 2l-152 -2q-10 0 -10 12v33q0 14 10 14h41q39 0 47 37q2 18 2 256v311h-6l-278 -622q-14 -25 -28 -25t-20 19l-253 626
h-13v-528q8 -74 70 -74h24q8 0 9 -14v-33q0 -12 -11 -12l-131 2l-135 -2q-10 0 -10 12v33q0 14 8 14h25q57 0 67 60q14 88 15 340v163q0 57 -58 58h-33q-6 0 -6 10v37q0 12 9 12l129 -4q47 0 108 4q33 0 39 -20l203 -508l223 510q6 16 44 16zM203 725v37q0 12 10 12h57
q33 0 37 23q2 31 2 346v248q-121 1 -166 -15t-92 -100q-2 -14 -18 -8l-19 8q-6 0 -4 8q18 64 30 130t20 67q7 1 30 -14t60 -17q198 -6 232 -6t224 6q37 4 58 14l20 13q8 4 13 4t8 -17l10 -80q10 -78 12 -94t-4 -20l-16 -6q-14 -2 -17 10q-39 80 -76 98t-182 19v-576
q6 -41 37 -41h55q10 0 11 -12v-39q0 -8 -11 -8l-149 2l-160 -2q-12 0 -12 10z" />
    <glyph glyph-name="Omega" unicode="&#x2126;" horiz-adv-x="1579" 
d="M305 145h193l-44 44q-122 122 -152 169q-31 48 -67 106t-54 140q-19 82 -19 133q0 277 182 453t456 176t453 -171q180 -171 181 -450q0 -160 -85 -293t-160 -211q-75 -79 -87 -96h174q74 0 102 25t66 131l55 -4l-39 -297h-506l-10 27l35 51q112 157 146 239
q78 188 91 272q13 83 13 154q0 248 -116 402q-115 153 -317 153t-316 -150t-113 -411q0 -184 81 -352q81 -169 140 -261t65 -99l-14 -25h-506l-35 297l49 4q35 -100 66 -128t92 -28z" />
    <glyph glyph-name="estimated" unicode="&#x212e;" horiz-adv-x="1724" 
d="M1368 715v391q0 29 -20 49q-199 203 -484 203t-487 -209q-20 -20 -21 -49v-385q0 -12 11 -13h993q8 1 8 13zM1661 664h-1294q-10 0 -11 -11v-389q0 -29 19 -47q201 -211 501 -211t502 236h117q-111 -129 -277 -204t-356 -75q-330 0 -564 211t-235 508q1 297 235 508
t564 211t564 -211t235 -508v-18z" />
    <glyph glyph-name="onethird" unicode="&#x2153;" horiz-adv-x="1519" 
d="M373 696q0 -47 15 -59t79 -12h47q12 0 12 -13v-49q0 -10 -14 -10l-213 6l-215 -6q-14 0 -14 10v53q0 8 18 9h59q63 0 78 11q14 11 17 56l2 250v62q0 78 -4 172q-4 49 -31 49q-18 0 -53 -13l-80 -32q-16 -8 -21 -2l-22 41q-4 6 8 12l283 153q27 14 36 15q16 0 17 -19
l-4 -360v-324zM866 86q0 28 16 47q16 20 43 21q28 1 50 -45l8 -23q33 -41 111 -41t129 51t51 120t-49 125t-123 69q-29 6 -29 28q4 20 23 23q57 4 104 50q47 45 47 103t-35 96t-86 38q-119 0 -161 -119q-6 -18 -21 -15l-26 7q-12 2 -9 20q17 80 77 139q60 60 172 60t162 -52
t50 -110q0 -131 -145 -215q72 -15 131 -75t59 -136q0 -121 -95 -196t-239 -74q-80 0 -131 17q-52 17 -68 38t-16 49zM337 -31q-7 1 -36 17t-29 24t11 25l831 1347q8 16 16 17q8 -1 38 -17t30 -22t-8 -21l-832 -1343q-14 -27 -21 -27z" />
    <glyph glyph-name="twothirds" unicode="&#x2154;" horiz-adv-x="1519" 
d="M-4 566q0 11 8 18q213 190 281 264q150 162 149 295q0 75 -42 113t-91 38q-106 0 -182 -98q-10 -16 -23 -10l-26 14q-6 2 -4 14q25 61 94 123q70 61 175 61t173 -54q68 -56 67 -160q0 -143 -161 -314q-121 -129 -217 -200v-4h227q55 0 87 20t58 59q10 15 35 7t17 -27
l-84 -182q-3 -13 -25 -13t-32 14t-64 15h-289l-117 -4q-14 0 -14 11zM948 86q0 28 16 47q16 20 43 21q28 1 50 -45l8 -23q33 -41 111 -41t129 51t51 120t-49 125t-123 69q-29 6 -29 28q4 20 23 23q57 4 104 50q47 45 47 103t-35 96t-86 38q-119 0 -161 -119q-6 -18 -21 -15
l-27 7q-12 2 -8 20q17 80 77 139q60 60 172 60t162 -52t50 -110q0 -131 -145 -215q72 -15 131 -75t59 -136q0 -121 -95 -196t-239 -74q-80 0 -131 17q-52 17 -68 38t-16 49zM419 -31q-7 1 -36 17t-29 24t11 25l831 1347q8 16 16 17q8 -1 38 -17t30 -22t-8 -21l-832 -1343
q-14 -27 -21 -27z" />
    <glyph glyph-name="oneeighth" unicode="&#x215b;" horiz-adv-x="1519" 
d="M379 696q0 -47 15 -59t79 -12h47q12 0 12 -13v-49q0 -10 -14 -10l-213 6l-215 -6q-14 0 -14 10v53q0 8 18 9h60q63 0 77 11t17 56l2 250v62q0 78 -4 172q-4 49 -31 49q-18 0 -53 -13l-80 -32q-16 -8 -21 -2l-22 41q-4 6 8 12l283 153q27 14 37 15q16 0 16 -19l-4 -360
v-324zM341 -31q-7 1 -36 17t-29 24t11 25l831 1347q8 16 17 17q7 -1 37 -17t30 -22t-8 -21l-832 -1343q-14 -27 -21 -27zM1331 638q1 60 -39 99t-107 39t-106 -42t-39 -100t34 -92t126 -85q57 27 94 75q37 46 37 106zM1028 178q0 -59 48 -98t110 -39q64 0 102 41t39 97
q0 56 -44 96t-132 81q-123 -53 -123 -178zM1169 -18q-126 0 -188 54q-61 54 -61 122q0 139 176 229q-184 94 -185 219q0 90 80 162q81 72 199 72t186 -52t68 -127q0 -73 -44 -127t-143 -106q188 -90 189 -229q0 -81 -76 -149t-201 -68z" />
    <glyph glyph-name="threeeighths" unicode="&#x215c;" horiz-adv-x="1519" 
d="M18 644q0 28 16 48t43 21q28 1 50 -45l8 -23q33 -41 111 -41t129 51t51 120t-49 125t-123 69q-29 6 -29 28q4 20 23 23q57 4 104 50t47 104t-34 95q-35 38 -86 38q-119 0 -162 -119q-6 -18 -21 -14l-26 6q-12 2 -9 20q17 80 77 139t172 59t162 -51q50 -52 50 -110
q0 -131 -145 -215q72 -14 131 -74t59 -137q0 -121 -95 -196t-239 -74q-80 0 -131 17q-52 17 -68 38q-16 20 -16 48zM329 -31q-7 1 -36 17t-29 24t10 25l832 1347q8 16 16 17q8 -1 38 -17t30 -22t-8 -21l-832 -1343q-14 -27 -21 -27zM1323 638q1 60 -39 99t-107 39t-106 -42
t-39 -100t34 -92t126 -85q57 27 94 75q37 46 37 106zM1020 178q0 -59 48 -98t110 -39q64 0 102 41t39 97q0 56 -44 96t-132 81q-123 -53 -123 -178zM1160 -18q-126 0 -187 54t-62 122q0 139 176 229q-184 94 -184 219q0 90 80 162q81 72 199 72t186 -52t68 -127
q0 -73 -44 -127t-143 -106q188 -90 189 -229q0 -81 -76 -149t-202 -68z" />
    <glyph glyph-name="fiveeighths" unicode="&#x215d;" horiz-adv-x="1519" 
d="M45 620q0 68 57 68q27 0 52 -39q26 -37 100 -37t136 58t62 136q0 80 -44 132q-45 52 -120 51q-74 0 -106 -11t-43 -7q-6 4 -6 30l49 347q4 27 27 26h295q29 0 43 14t35 48q6 10 26 4t17 -21l-47 -131q-10 -29 -56 -28h-280l-29 -173q45 11 135 11t164 -62t74 -164
q0 -143 -112 -237t-255 -94q-76 -1 -125 23t-49 56zM329 -31q-7 1 -36 17t-29 24t10 25l832 1347q8 16 16 17q8 -1 38 -17t30 -22t-8 -21l-832 -1343q-14 -27 -21 -27zM1323 638q1 60 -39 99t-107 39t-106 -42t-39 -100t34 -92t126 -85q57 27 94 75q37 46 37 106zM1020 178
q0 -59 48 -98t110 -39q64 0 102 41t39 97q0 56 -44 96t-132 81q-123 -53 -123 -178zM1160 -18q-126 0 -187 54t-62 122q0 139 176 229q-184 94 -184 219q0 90 80 162q81 72 199 72t186 -52t68 -127q0 -73 -44 -127t-143 -106q188 -90 189 -229q0 -81 -76 -149t-202 -68z" />
    <glyph glyph-name="seveneighths" unicode="&#x215e;" horiz-adv-x="1519" 
d="M217 586q0 62 371 682h-303q-43 0 -68 -18t-59 -64q-10 -14 -29 -6q-16 8 -12 20l80 205q8 14 25 14q18 0 16 -17q-2 -16 12 -22t63 -6h387q12 0 13 -10q0 -12 -7 -22q-91 -137 -171 -320l-27 -51q-122 -249 -154 -367q-18 -63 -78 -63t-59 45zM258 -31q-8 1 -37 17
t-28 24q0 8 10 25l831 1347q8 16 17 17q7 -1 37 -17t30 -22t-8 -21l-831 -1343q-13 -27 -21 -27zM1282 638q0 60 -40 99t-106 39q-67 0 -106 -42t-39 -100t34 -92t126 -85q57 27 94 75q37 46 37 106zM979 178q-1 -59 47 -98t112 -39t102 41t38 97t-44 96t-132 81
q-123 -53 -123 -178zM1119 -18q-126 0 -187 54t-62 122q0 139 177 229q-184 94 -185 219q0 90 80 162t198 72t187 -52q68 -52 68 -127q0 -73 -44 -127t-143 -106q188 -90 189 -229q0 -81 -76 -149t-202 -68z" />
    <glyph glyph-name="partialdiff" unicode="&#x2202;" horiz-adv-x="1021" 
d="M250 301q0 -98 47 -180t145 -82q145 0 232 192q74 174 98 383q-104 127 -223 125t-209 -129t-90 -309zM502 819h2q172 0 280 -129q14 72 15 178q4 176 -51 312q-84 184 -277 184q-131 0 -235 -66q-20 -4 -55 37q-34 41 -23 64q104 57 260 57q274 0 436 -272
q100 -176 100 -410q0 -301 -104 -504q-147 -295 -397 -295q-168 0 -271 114q-102 114 -102 290t117 307q133 133 305 133z" />
    <glyph glyph-name="Delta" unicode="&#x2206;" horiz-adv-x="1337" 
d="M217 98h834l-418 1024zM92 0v49l561 1299l58 18l542 -1315v-51h-1161z" />
    <glyph glyph-name="product" unicode="&#x220f;" horiz-adv-x="1499" 
d="M76 1333h1349v-47q-129 -10 -159 -44t-31 -163v-991q0 -129 30 -164t156 -43v-47h-544v47q135 8 167 43t31 164v1116q0 39 -13 49t-56 11h-510q-46 0 -58 -10t-12 -56v-1110q0 -129 31 -164t153 -43v-47h-526v47q123 8 153 43t29 164v991q0 129 -30 163q-31 34 -160 44
v47z" />
    <glyph glyph-name="summation" unicode="&#x2211;" horiz-adv-x="1118" 
d="M78 1333h913q4 -80 25 -299l-51 -6q-39 142 -83 190t-251 48h-344l426 -611l-492 -673h535q109 0 163 41t99 172l55 -15l-82 -344h-940v53l506 697l-479 694v53z" />
    <glyph glyph-name="minus" unicode="&#x2212;" 
d="M115 549h794v-115h-794v115z" />
    <glyph glyph-name="uni2215" unicode="&#x2215;" horiz-adv-x="129" 
d="M-322 -31q-8 1 -38 17t-29 22q0 6 8 27l762 1347q8 16 14 17q10 1 39 -15t31 -22t-6 -23l-762 -1343q-11 -27 -19 -27z" />
    <glyph glyph-name="uni2219" unicode="&#x2219;" horiz-adv-x="520" 
d="M268 608q-47 0 -88 29t-41 80t30 89t87 38t91 -34t34 -86t-33 -84t-80 -32z" />
    <glyph glyph-name="radical" unicode="&#x221a;" horiz-adv-x="1167" 
d="M94 868l-33 66l297 156l381 -828h4l275 1616l78 -10l-332 -1946l-483 1045z" />
    <glyph glyph-name="infinity" unicode="&#x221e;" horiz-adv-x="1579" 
d="M854 520q102 -102 164 -146t141 -52q84 0 138 54q55 54 59 141t-50 139t-141 52t-179 -72q-49 -36 -67 -53q-17 -19 -39 -39t-26 -24zM396 709q-74 -1 -124 -59t-49 -139q3 -81 59 -135t140 -54q121 0 307 186q-55 61 -94 97t-103 70q-62 34 -136 34zM1157 229
q-84 1 -169 51t-200 160q-178 -166 -274 -194q-53 -16 -113 -17q-123 0 -207 83t-83 204q0 121 86 204q87 83 203 83q116 -1 204 -57t189 -160q101 98 183 156q82 59 207 60q124 1 205 -81q80 -82 80 -208t-89 -205t-222 -79z" />
    <glyph glyph-name="integral" unicode="&#x222b;" horiz-adv-x="784" 
d="M475 1184v-635q0 -475 -85 -693t-259 -218q-55 0 -88 28t-33 65t24 61t56 24t78 -36q45 -36 61 -36q41 0 58 70q16 70 16 262v790q0 362 90 559t266 197q43 0 70 -22t27 -56q0 -35 -26 -55q-26 -21 -60 -21t-64 28q-31 28 -55 28q-43 0 -59 -68t-17 -272z" />
    <glyph glyph-name="approxequal" unicode="&#x2248;" horiz-adv-x="1206" 
d="M827 565q-95 1 -235 63t-225 62q-115 0 -203 -127l-62 64q102 162 271 161q123 4 252 -59q135 -61 237 -61t187 116l55 -71q-39 -66 -110 -107t-167 -41zM834 242q-90 0 -250 67q-121 55 -229 55t-191 -116l-62 63q106 152 271 152q115 4 251 -57q136 -62 242 -62
t181 115l57 -68q-39 -65 -110 -107q-70 -42 -160 -42z" />
    <glyph glyph-name="notequal" unicode="&#x2260;" 
d="M115 401h278l113 195h-391v115h456l146 250l100 -58l-112 -192h204v-115h-270l-113 -195h383v-114h-450l-154 -267l-100 58l121 209h-211v114z" />
    <glyph glyph-name="lessequal" unicode="&#x2264;" 
d="M909 18h-794v115h794v-115zM909 274l-794 379v66l794 375v-136l-571 -262v-10l571 -272v-140z" />
    <glyph glyph-name="greaterequal" unicode="&#x2265;" 
d="M909 18h-794v115h794v-115zM909 653l-794 -379v140l571 272v10l-571 262v136l794 -375v-66z" />
    <glyph glyph-name="lozenge" unicode="&#x25ca;" horiz-adv-x="1155" 
d="M582 1368h-7l-337 -674l337 -678h7l333 676zM530 1493h97l409 -803l-409 -799h-99l-409 799z" />
    <glyph glyph-name="uniF634" unicode="&#xf634;" horiz-adv-x="389" 
d="M172 -123q43 0 85 -40q42 -41 42 -123t-63 -160t-115 -107q-15 -14 -31 -14t-16 12t14 25q109 102 109 190q0 31 -27 47q-32 6 -56 30q-23 23 -27 38q-5 17 -5 39t23 43q24 20 67 20z" />
    <glyph glyph-name="fi" unicode="&#xfb01;" horiz-adv-x="1120" 
d="M51 53q0 14 21 15h106q39 0 41 71v617h-137q-18 0 -14 20l8 64q2 14 24 14h119v35q0 254 154 422q76 86 179 128t189 42q87 0 147 -44q60 -43 61 -95t-29 -78t-68 -27q-62 1 -116 71t-113 70q-92 0 -156 -71q-45 -49 -69 -126t-28 -137t-3 -149v-41h297q90 0 176 20
t90 19q16 0 11 -30t-5 -343v-223q0 -154 2 -176q0 -53 39 -53h88q18 0 18 -19v-37q0 -18 -16 -18l-197 6l-200 -6q-16 0 -17 16v41q0 16 21 17h82q31 0 32 47v487q0 92 -32 123q-33 31 -140 31h-249v-183q0 -430 4 -452q0 -53 37 -53h92q20 0 20 -17v-37q0 -20 -12 -20
l-207 6l-233 -6q-16 0 -17 14v45z" />
    <glyph glyph-name="fl" unicode="&#xfb02;" horiz-adv-x="1116" 
d="M367 972v-118h421q0 184 -6 340q-6 184 -155 184q-111 0 -181 -71q-29 -29 -41 -64t-18 -52t-10 -49t-6 -46q-4 -28 -4 -124zM68 -6q-16 0 -17 14v45q0 14 21 15h102q43 0 45 63v625h-137q-18 0 -14 20l8 64q2 14 24 14h119v35q0 264 130 428t347 164q137 0 226 -49
q18 -10 16 -57t-2 -582v-183q0 -416 2 -465t13 -63t34 -14h96q25 0 25 -19v-35q0 -20 -14 -20l-230 6q-129 0 -168 -3t-43 -3q-14 0 -14 20v35q0 18 27 19h79q39 0 43 45q2 70 2 540v103h-421v-183q0 -430 2 -460q4 -45 41 -45h100q20 0 20 -17v-33q0 -25 -14 -24l-29 2
l-186 4q-143 0 -187 -3t-46 -3z" />
    <glyph glyph-name="emdash.alt" horiz-adv-x="1536" 
d="M1536 602v-115h-1536v115h1536z" />
    <glyph glyph-name="zero.slash" 
d="M63 614q-1 348 129 566t326 219q141 0 246 -109l49 94q10 20 29 11l61 -31q16 -8 6 -31l-73 -137q125 -210 125 -528t-119 -508t-320 -191q-160 0 -274 121l-62 -117q-12 -25 -28 -12l-66 41q-10 7 0 27l84 155q-113 193 -113 430zM504 1325q-118 0 -180 -123
q-82 -160 -82 -553q-1 -174 24 -293l434 815q-78 154 -196 154zM525 43q131 0 195 142t64 556q1 156 -34 291l-437 -819q82 -170 212 -170z" />
    <glyph glyph-name="R_p" horiz-adv-x="2207" 
d="M1489 186q0 -86 43 -104q76 -33 190 -33t184 81q68 82 68 268t-76 283t-190 97q-62 0 -122 -35t-97 -94v-463zM125 -6q-16 0 -16 16v47q0 16 10 17h82q76 0 75 69q3 102 3 475v232q0 283 -3 342q-4 102 -71 102h-80q-12 0 -12 15v51q0 14 12 14l219 -6l330 6
q228 0 336 -108t108 -228t-89 -236q-89 -114 -249 -155v-4q68 -27 111 -76q17 -18 37 -54t50 -88t98 -163t112 -150q45 -39 153 -38v506q0 38 -15 62t-58 48l-47 27q-14 6 -15 18v17q0 8 15 14l196 98q33 16 47 17q14 0 15 -41l8 -97h6q45 57 124 97t189 39q110 0 219 -101
q59 -59 85 -131t26 -188q0 -203 -126 -343t-316 -141q-121 0 -205 17v-412q0 -43 10 -56t35 -13h90q18 0 18 -21v-35q0 -18 -18 -18l-27 2l-184 4l-207 -6q-18 0 -18 20v37q0 16 24 17h80q37 0 43 49t6 358v76q-85 6 -145 6t-145 -6q-39 39 -169 269q-129 230 -173 272
q-88 84 -211 83q-37 0 -66 -6v-77q0 -350 4 -381q8 -80 49 -80h125q16 0 17 -17v-45q0 -12 -4 -15t-19 -3l-233 6q-164 0 -203 -3t-43 -3zM432 1227v-541q39 -8 88 -8q125 0 216 38t133 97q79 111 79 219q0 109 -98 193q-123 84 -328 84q-42 1 -66 -17t-24 -65z" />
    <glyph glyph-name="space_uni0326" horiz-adv-x="389" 
d="M172 -123q43 0 85 -40q42 -41 42 -123t-63 -160t-115 -107q-15 -14 -31 -14t-16 12t14 25q109 102 109 190q0 31 -27 47q-32 6 -56 30q-23 23 -27 38q-5 17 -5 39t23 43q24 20 67 20z" />
    <glyph glyph-name="c_t" horiz-adv-x="1495" 
d="M1483 854q8 0 13 -6t1 -12l-20 -72q-5 -16 -19 -16h-264q-6 -141 -6 -287v-205q0 -102 34 -141t72 -39q94 0 136 26q14 8 24 -4l10 -18q8 -10 -12 -30t-79 -48q-60 -28 -137 -27q-77 -1 -139 57t-63 118l6 292v45q0 88 4 261h-124q-31 0 -31 24q0 18 39 33
q109 47 143 125q17 42 23 108t-11 123q-63 203 -288 203q-133 0 -229 -79t-95 -187q0 -68 22 -119t85 -102q106 -15 160 -69t55 -95q-4 -72 -74 -72t-115 82q-31 57 -61 74q-31 16 -76 16q-96 0 -169 -84q-73 -85 -73 -243t105 -302q80 -104 223 -104q76 0 124 19t101 69
q8 8 17 0l20 -21q12 -12 0 -26q-49 -57 -141 -101t-189 -45q-203 0 -317 144q-92 123 -92 293t118 316q118 144 304 151v4q-51 33 -89 93t-38 120q0 141 110 237q111 97 301 97t311 -96q122 -96 121 -257l-14 -223h283z" />
    <glyph glyph-name="s_t" horiz-adv-x="1382" 
d="M928 487q0 88 4 261h-125q-31 0 -31 24q0 18 37 31q166 55 170 235q2 148 -78 222t-222 74t-234 -62q-93 -61 -93 -185t119 -215q12 -6 46 -18q33 -12 57 -23t28 -32l31 -144q0 -12 -14 -18l-25 -8q-10 -2 -18 10l-70 94q-51 80 -143 80q-63 0 -111 -36t-47 -85
q0 -79 35 -115t160 -70t185 -92t60 -175t-88 -191t-218 -74t-210 60q-8 4 -12 28l-35 195q-2 12 12 16l27 7q12 2 18 -13l52 -100q25 -47 41 -69q42 -58 120 -58t128 36q50 35 50 105t-42 113q-43 43 -156 74q-242 70 -242 260q0 104 86 177t207 73v4q-137 86 -137 218
t115 220t325 88t317 -95q108 -95 95 -257l-17 -203h285q23 0 14 -18l-20 -72q-4 -16 -18 -16h-265q-6 -141 -6 -287v-205q0 -102 34 -141t73 -39q94 0 135 26q14 8 24 -4l11 -18q8 -10 -12 -30t-79 -48t-137 -27q-78 -1 -140 57t-62 118l6 292v45z" />
    <glyph glyph-name="a.sc" horiz-adv-x="1103" 
d="M371 420h278q-54 162 -110 358q-4 14 -11 15q-8 0 -16 -23q-102 -270 -141 -350zM674 12v43q0 12 10 13h33q33 0 33 34q-10 53 -80 252h-330q-4 -12 -41 -109t-41 -110q-20 -68 37 -67h51q14 0 14 -15v-45q0 -14 -12 -14l-158 6l-159 -6q-8 0 -8 18v43q0 12 8 13h28
q53 0 84 43q9 9 80 167q70 158 85 189t79 178q63 147 73 178t1 35q-10 10 -10 16q0 13 22 19q57 8 115 59q6 14 22 14t23 -22q159 -453 171 -494t62 -177t60 -150q41 -55 96 -55h39q10 0 10 -13v-43q0 -18 -14 -18l-180 6l-187 -6q-16 0 -16 18z" />
    <glyph glyph-name="b.sc" horiz-adv-x="1021" 
d="M399 614v-88q150 -10 209 29q76 53 76 137t-60 130t-159 46q-33 0 -46 -2t-17 -28t-3 -224zM399 463v-252q0 -78 29 -117q28 -39 104 -39t136 48q59 48 59 143q0 150 -133 194q-64 23 -195 23zM117 14v43q0 10 14 11h55q43 0 56 51q6 29 6 295v151q0 150 -5 212t-44 74
q-14 3 -39 3h-39q-10 0 -10 14v45q0 14 12 15l192 -6l174 6q180 0 248 -35q106 -55 107 -178q0 -90 -41 -130t-150 -79v-4q248 -74 248 -262q0 -58 -30 -116t-76 -81q-94 -49 -291 -49l-207 6l-164 -6q-16 0 -16 20z" />
    <glyph glyph-name="c.sc" horiz-adv-x="1019" 
d="M559 -25q-205 0 -330 117q-72 66 -108 167q-37 101 -37 206q0 199 137 348q117 133 349 133q128 0 231 -59q31 -16 35 0l6 22q8 17 46 7q12 -3 11 -19q0 -65 23 -264q4 -20 -7 -21l-49 -8q-6 -2 -8 2t-6 15q-40 154 -188 227q-59 29 -117 29q-139 0 -218 -114t-77 -251
q0 -199 129 -340q85 -94 203 -94t200 43t121 110q10 18 21 13l35 -23q8 -4 -3 -26q-52 -96 -158 -158t-241 -62z" />
    <glyph glyph-name="d.sc" horiz-adv-x="1208" 
d="M406 563v-92q0 -164 4 -295q0 -41 28 -79t120 -38q93 0 179 41t135 101q78 96 78 252q6 79 -22 157t-74 127q-119 129 -326 129q-72 0 -92 -14q-26 -12 -28 -58t-2 -231zM94 12v45q0 10 10 11h91q37 0 47 46q6 24 6 388v96q0 156 -8 221q-4 35 -58 35h-76q-8 0 -8 14v47
q0 12 11 13l206 -6l215 6q166 0 266 -23t187 -98q141 -125 141 -330q0 -119 -26 -197t-97 -149q-131 -135 -434 -135l-272 4l-191 -6q-10 0 -10 18z" />
    <glyph glyph-name="e.sc" horiz-adv-x="1001" 
d="M406 510q110 0 150 10t56 35t17 72q0 10 10 10l45 -2q16 0 12 -15q-4 -16 -4 -94t8 -184q0 -10 -10 -10l-43 -4q-10 0 -12 8q-7 44 -23 66q-31 44 -206 44v-69l4 -217q0 -66 34 -84t114 -18q79 0 124 8q45 10 92 49q12 8 52 59q40 50 56 74t27 16l33 -18q10 -4 6 -15
l-74 -217q-8 -20 -22 -20l-121 4l-432 2l-92 -2q-70 -4 -82 -4t-12 14v47q0 12 14 13h18q70 0 86 7t17 29v437q0 221 -4 258t-22 46t-79 9h-20q-8 0 -8 14v50q0 10 10 10l174 -6l459 2l55 4q8 0 11 -20t35 -117t33 -105t-3 -10l-33 -14q-10 -6 -16 5t-62 73q-55 62 -83 88
t-72 26l-217 4v-348z" />
    <glyph glyph-name="f.sc" horiz-adv-x="940" 
d="M125 10v45q0 12 12 13h58q45 0 49 32q4 45 4 389v93q0 199 -2 215q-12 57 -56 57h-79q-10 0 -11 14v45q0 14 13 15l88 -2q86 -4 348 -4t285 6q4 -27 51 -248q4 -14 -2 -16l-33 -15q-6 -6 -16 13q-37 68 -91 139q-25 33 -73 44t-262 11v-387q88 0 153 8q55 12 72 101
q2 18 12 18l41 -4q8 0 7 -15t-1 -111t6 -165q0 -12 -10 -12l-39 -4q-12 0 -12 12q-8 80 -72 92q-63 14 -157 14v-294q0 -41 55 -41h49q10 0 10 -13v-45q0 -16 -10 -16l-201 6l-174 -6q-12 0 -12 16z" />
    <glyph glyph-name="g.sc" horiz-adv-x="1085" 
d="M1044 383v-49q0 -12 -10 -12h-35q-59 0 -59 -43v-158l6 -41q0 -12 -22 -23q-168 -82 -351 -82q-92 0 -195 38t-171 112q-123 135 -123 349t150 343t368 129q68 0 134 -20t95 -42q28 -22 33 -12l10 19q6 14 28 14q22 1 22 -17t30 -243q0 -14 -8 -16l-39 -13q-9 -5 -16 17
q-37 84 -98 145q-94 98 -212 98t-214 -104q-47 -51 -77 -126t-30 -142q0 -227 125 -359q86 -92 199 -92t168 45q31 25 30 88v76q0 61 -100 62h-49q-10 0 -10 10v49q0 10 10 10l223 -4l176 4q12 0 12 -10z" />
    <glyph glyph-name="h.sc" horiz-adv-x="1318" 
d="M1130 68h60q10 0 10 -15v-45q0 -14 -16 -14l-189 6l-198 -6q-18 0 -19 14v47q0 12 15 13h79q37 0 37 71l4 275v18q0 16 -30 17h-457q-20 0 -20 -13v-18q0 -236 2 -278t12 -57t33 -15h61q12 0 12 -15v-45q0 -14 -12 -14l-184 6l-201 -6q-14 0 -14 14v47q0 12 14 13h64
q33 0 41 17t10 58l4 314v57l-4 262q0 78 -60 78h-55q-16 0 -16 14v43q0 16 16 17l207 -6l184 6q16 0 17 -17v-43q0 -14 -17 -14h-57q-55 0 -55 -53l-2 -250v-16q0 -16 16 -17h463q29 0 28 21v18l-4 231q0 66 -47 66h-59q-14 0 -15 12v47q0 14 15 15l194 -6l174 6
q18 0 19 -21v-39q0 -14 -19 -14h-53q-45 0 -45 -49l-2 -285v-45l2 -307q2 -60 13 -80t44 -20z" />
    <glyph glyph-name="i.sc" horiz-adv-x="653" 
d="M406 422q0 -248 2 -279q6 -76 88 -75h30q12 0 13 -11v-49q0 -14 -13 -14l-215 6l-200 -6q-12 0 -13 16v45q0 12 13 13h45q55 0 70 10q14 10 18 38t4 339v90l-4 266q0 43 -105 43h-37q-12 0 -12 14v47q0 12 12 13l236 -6l180 6q12 0 12 -10v-50q0 -14 -12 -14h-35
q-43 0 -58 -10t-17 -41l-2 -279v-102z" />
    <glyph glyph-name="j.sc" horiz-adv-x="567" 
d="M500 868q0 -14 -17 -14h-61q-51 0 -51 -39q-4 -57 -4 -323v-101q1 -187 -3 -251t-4 -72q0 -139 -49 -218q-109 -178 -282 -178q-35 0 -70 20t-35 54t22 58t50 24t66 -39t59 -39q47 0 69 72t21 286l-2 324v361q-3 35 -17 48t-49 13h-57q-12 0 -12 10v51q0 12 12 13l211 -6
l188 6q14 0 15 -15v-45z" />
    <glyph glyph-name="k.sc" horiz-adv-x="1083" 
d="M403 494h11q27 0 52 13t144 151t129 156t5 30q-5 14 -23 14h-8q-10 0 -11 12v48q0 10 13 10l164 -6l118 6q10 0 11 -13v-47q0 -14 -13 -14h-28q-55 0 -89 -20t-144 -135q-110 -116 -165 -181q5 -6 97 -112t179 -206t93 -106q35 -27 74 -26h32q12 0 13 -15v-43
q0 -16 -13 -16l-172 6l-170 -6q-14 0 -14 16v43q0 12 12 13h11q14 0 19 9t-2 22t-127 161t-134 158q-25 16 -49 16h-15v-67l5 -269q0 -29 41 -28h43q12 0 12 -15v-43q0 -16 -12 -16l-68 2q-68 4 -98 4t-97 -4l-69 -2q-10 0 -10 16v43q0 14 12 15h45q31 0 39 32q2 8 2 381v62
l-6 280q0 31 -43 31h-37q-10 0 -10 12v49q0 12 14 13l67 -2q66 -4 109 -4l152 6q12 0 12 -17v-45q0 -12 -12 -12h-41q-27 0 -36 -7t-9 -28l-5 -272v-53z" />
    <glyph glyph-name="l.sc" horiz-adv-x="954" 
d="M248 584q0 195 -3 219q-3 23 -11 37q-8 13 -74 14h-31q-10 0 -10 14v50q0 10 10 10l195 -6q41 0 120 4l80 2q10 0 11 -13v-49q0 -12 -13 -12h-30q-54 0 -68 -9t-14 -36l-4 -289v-112q0 -289 4 -336q270 0 305 4q23 6 79 78t85 120q10 12 18 11l33 -15q6 -2 2 -23
t-31 -129q-28 -107 -33 -122q-70 4 -553 4l-114 -2q-78 -4 -85 -4t-7 18v43q0 12 14 13h63q53 0 58 36l4 406v74z" />
    <glyph glyph-name="m.sc" horiz-adv-x="1519" 
d="M160 854h-37q-10 0 -10 10v54q0 10 10 10l74 -2q76 -4 110 -4l123 6q25 0 35 -23l295 -669q22 43 81 169q60 125 146 297t89 196t34 24l248 4l24 2q10 0 11 -17v-43q0 -14 -15 -14h-49q-35 0 -39 -43l-4 -356l4 -316q0 -72 45 -71h68q10 0 10 -11v-49q0 -14 -14 -14
l-203 6l-192 -6q-12 0 -13 20v41q0 12 13 13h65q55 0 55 41q4 61 4 327v402l-4 2q-11 -33 -158 -332t-185 -380t-40 -83q-16 -31 -30 -31t-30 29t-102 232q-87 203 -95 217t-72 165q-66 152 -82 181h-4q-6 -32 -6 -348t2 -328q6 -53 28 -74q23 -20 70 -20h31q10 0 10 -17
v-45q0 -12 -12 -12l-173 6l-174 -6q-12 0 -12 20v41q0 12 10 13h27q86 0 98 57q23 113 23 450l-2 232q0 19 -3 27q-7 20 -83 20z" />
    <glyph glyph-name="n.sc" horiz-adv-x="1216" 
d="M1116 911v-43q0 -14 -12 -14h-21q-37 0 -49 -10t-17 -50t-5 -290v-479q0 -39 -31 -39q-20 0 -47 20q-10 10 -150 177t-194 231t-157 198t-120 152h-4v-281q0 -291 13 -346q8 -70 49 -69h43q10 0 10 -13v-49q0 -12 -10 -12l-156 6l-137 -6q-6 0 -6 14v53q0 6 8 7h47
q52 0 60 82q5 54 6 380v215q0 53 -31 81t-78 28h-18q-12 0 -13 12v49q0 12 13 13l28 -2h25q53 -4 82 -4l100 4q39 0 49 -17q123 -164 212 -269q89 -106 201 -244t124 -152h8v135q0 147 -6 246q0 154 -17 192q-14 37 -75 37h-35q-14 0 -14 14v50q0 10 14 10l63 -2
q66 -4 105 -4l129 6q14 0 14 -17z" />
    </font>
</defs>
</svg>
